<?xml version="1.0" encoding="utf-8"?>
<!-- Generator: Adobe Illustrator 23.1.1, SVG Export Plug-In . SVG Version: 6.00 Build 0)  -->
<svg version="1.1" id="Шар_1" xmlns="http://www.w3.org/2000/svg" xmlns:xlink="http://www.w3.org/1999/xlink" x="0px" y="0px"
	 viewBox="0 0 111 120" style="enable-background:new 0 0 111 120;" xml:space="preserve">
<style type="text/css">
	.st0{fill:#D2D2D2;}
</style>
<g>
	<path class="st0" d="M15.65,68.6c0.03-2.53-1.73-5.02,1.68-6.63c0.63-0.3,0.84-1.99,0.86-3.04c0.09-4.81,0.01-9.62,0.06-14.43
		c0.01-1.61,0.21-3.22,0.35-5.18c17.2,0,34.01,0,51.1,0c0.18,1.1,0.46,2.03,0.47,2.97c0.04,6.47,0.08,12.94,0,19.41
		c-0.06,5.17-2.17,7.3-7.16,7.34c-6.3,0.06-12.61-0.06-18.91,0.04c-2.49,0.04-4.35-0.61-6.1-2.54c-3.73-4.1-9.57-3.87-13.07,0.45
		c-1.31,1.62-2.75,2.27-4.71,2.07C18.9,68.93,17.59,68.8,15.65,68.6z M21.35,60.18c0,0.12,0,0.25,0,0.37c15.35,0,30.69,0,46.04,0
		c0-0.12,0-0.25,0-0.37C52.05,60.18,36.7,60.18,21.35,60.18z"/>
	<path class="st0" d="M70.22,69.57c0.73-3.83,1.56-6.46,1.68-9.13c0.23-5.12,0.07-10.26,0.07-15.81c5.46-0.86,10.56-0.61,15.63-0.33
		c0.83,0.05,1.96,1.23,2.33,2.13c1.93,4.75,3.75,9.56,5.41,14.41c0.46,1.36,0.6,3.03,0.26,4.41c-0.31,1.28-1.21,2.84-2.3,3.39
		c-1.6,0.81-3.9,0.94-4.88-1.02c-2.47-4.96-6.87-3.83-10.86-3.63c-1.25,0.06-2.5,1.3-3.62,2.16C72.74,67.08,71.69,68.2,70.22,69.57z
		 M87.69,53.3c-0.28-6.52-1.51-7.2-9.04-5.5c0,1.76,0,3.55,0,5.5C81.89,53.3,84.62,53.3,87.69,53.3z"/>
	<path class="st0" d="M24.04,72.49c0.4-4.15,4.2-7.18,8.37-6.66c3.93,0.5,6.88,4.18,6.47,8.07c-0.41,3.93-4.05,7.04-7.89,6.76
		C26.85,80.36,23.65,76.59,24.04,72.49z M31.6,69.17c-1.39,1.64-2.96,2.68-2.94,3.69c0.02,1.09,1.29,2.58,2.4,3.15
		c1.39,0.71,3.65-1.19,3.26-2.72C34.01,72.04,32.86,71.01,31.6,69.17z"/>
	<path class="st0" d="M80.61,80.63c-4.11-0.16-7.55-3.87-7.3-7.86c0.26-4.04,3.49-7.02,7.57-6.99c4.14,0.03,7.39,3.56,7.19,7.79
		C87.89,77.59,84.51,80.78,80.61,80.63z M80.64,69.16c-1.23,1.79-2.35,2.79-2.63,3.98c-0.38,1.64,1.36,3.02,3.14,2.77
		c1.7-0.24,2.85-1.33,2.4-2.97C83.24,71.77,82,70.85,80.64,69.16z"/>
	<path class="st0" d="M65.34,73.06c-4.95-0.07-10.05,0.65-15.06-0.51c-0.1-0.4-0.2-0.8-0.3-1.2c0.82-0.53,1.62-1.47,2.46-1.51
		c3.63-0.18,7.27-0.14,10.9-0.08C65.1,69.79,66.21,70.54,65.34,73.06z"/>
</g>
</svg>
