<?xml version="1.0" encoding="utf-8"?>
<!-- Generator: Adobe Illustrator 23.1.1, SVG Export Plug-In . SVG Version: 6.00 Build 0)  -->
<svg version="1.1" id="Шар_1" xmlns="http://www.w3.org/2000/svg" xmlns:xlink="http://www.w3.org/1999/xlink" x="0px" y="0px"
	 viewBox="0 0 111 120" style="enable-background:new 0 0 111 120;" xml:space="preserve">
<style type="text/css">
	.st0{fill:#D2D2D2;}
</style>
<g>
	<path class="st0" d="M47.48,58.86c-3.76-1.07-6.99-1.83-10.09-2.95c-1.04-0.38-2.52-1.73-2.47-2.56c0.27-4.53,0.95-9.04,1.56-14.23
		c5.1,1.58,9.44,2.93,14.21,4.41C50.43,48.82,51.76,54.12,47.48,58.86z"/>
	<path class="st0" d="M81.46,62.16c-4.81,0-9.03,0-13.47,0c-1.03-5.35-0.2-10.14,0.69-15.35c4.6,0,8.95,0,14.01,0
		C82.28,52.1,81.89,56.95,81.46,62.16z"/>
	<path class="st0" d="M35.05,57.44c12.42,0.28,17.41,7.24,16.04,18.83c-4.02-1.03-8-1.99-11.93-3.11c-0.85-0.24-1.98-0.98-2.2-1.71
		C35.62,66.89,34.94,62.22,35.05,57.44z"/>
	<path class="st0" d="M23.28,31.88c2.31,1.23,3.91,2.04,5.47,2.91c6.82,3.8,6.82,3.81,5.64,11.68c-0.36,2.42-0.75,4.84-1.25,8.01
		c-3.52-1.51-6.72-2.68-9.7-4.27c-0.88-0.47-1.23-2.09-1.63-3.25c-0.2-0.58,0.02-1.31,0.09-1.96C22.32,40.9,22.75,36.82,23.28,31.88
		z"/>
	<path class="st0" d="M51.66,64.64c2.55-0.87,4.95-2.59,6.98-2.22c6.78,1.23,7.06-1.05,8.2,7.76c0.31,2.42,0.68,4.83,1.04,7.38
		c-4.63,1.33-8.67,0-12.67-0.68c-0.87-0.15-1.85-1.81-2.11-2.93C52.47,71.23,52.22,68.42,51.66,64.64z"/>
	<path class="st0" d="M67.31,64.18c4.93,0,9.15,0,13.76,0c1.95,4.28,1.94,8.82,2.59,13.86c-4.27,0.21-8.02,0.52-11.77,0.48
		c-0.85-0.01-2.25-1.1-2.43-1.91C68.59,72.66,68.04,68.62,67.31,64.18z"/>
	<path class="st0" d="M35.28,71.27c-6.85-1.09-10.93-3.93-11.69-10.45c-0.32-2.75-0.99-5.47-1.59-8.68
		c4.25,0.28,7.33,2.16,10.46,3.77c0.59,0.3,1.01,1.35,1.12,2.11C34.19,62.25,34.68,66.49,35.28,71.27z"/>
	<path class="st0" d="M38.91,85.91c2.4-3.3,6.36-0.53,9.64-2.72c-0.3-1.36-0.67-2.98-1.1-4.91c2.93,0,5.79,0,8.64,0
		c0.04,0.55,0.17,0.91,0.06,1.17c-1.74,4.32-1.59,4.49,3.1,4.78c1.83,0.11,4.05-0.74,5.31,1.7c-0.64,2.17-2.46,1.82-4.02,1.9
		C46.67,88.5,41.51,88.07,38.91,85.91z"/>
	<path class="st0" d="M62.32,47.76c2.78-2.5,5.82-4.61,6.64-8.85c0.39-2.02,2.67-3.67,4.42-5.9c2.26,2.13,3.62,3.42,5.18,4.88
		c-2.43,2.94-4.03,6.01-8.2,6.13c-1.05,0.03-2.12,1.47-3.06,2.39c-4.04,3.94-8.02,7.95-12.06,11.9c-1.11,1.08-2.34,2.03-4.02,2.55
		c1.84-4.69,6.26-7.22,9.05-11.06C60.95,49.12,61.64,48.44,62.32,47.76z"/>
	<path class="st0" d="M92.65,62.02c-3.25,0-6.3,0-9.71,0c0.32-4.75,0.61-9.12,0.91-13.56C90.43,50.16,93.82,55.27,92.65,62.02z"/>
	<path class="st0" d="M92.27,63.48c1.89,5.88,0.33,8.64-7.35,12.84c-0.62-4.02-1.2-7.77-1.87-12.08
		C86.61,63.94,89.49,63.71,92.27,63.48z"/>
	<path class="st0" d="M55.16,60.23c4.09-3.89,7.42-7.05,10.71-10.18c1.21,3.94,1.01,6.79-1.01,11.93
		C61.99,61.47,59.03,60.93,55.16,60.23z"/>
	<path class="st0" d="M62.32,47.76c-0.69,0.68-1.37,1.36-2.06,2.04c-2.61,1.88-5.23,3.77-8.43,6.07c-0.34-3.96-0.24-7.51,1.13-11.6
		c2.71,0.37,5.43,0.62,8.07,1.21C61.6,45.61,61.9,46.97,62.32,47.76z"/>
	<path class="st0" d="M21.63,34.24c-0.54,5.31-0.97,9.47-1.44,14.11C16.9,44.68,17.29,40.81,21.63,34.24z"/>
	<path class="st0" d="M22.89,62.34c-5.19-5.72-5.73-7.85-3.53-12.2C21.89,53.62,21.28,57.69,22.89,62.34z"/>
</g>
</svg>
