<?xml version="1.0" encoding="utf-8"?>
<!-- Generator: Adobe Illustrator 23.1.1, SVG Export Plug-In . SVG Version: 6.00 Build 0)  -->
<svg version="1.1" id="Шар_1" xmlns="http://www.w3.org/2000/svg" xmlns:xlink="http://www.w3.org/1999/xlink" x="0px" y="0px"
	 viewBox="0 0 818 901" style="enable-background:new 0 0 818 901;" xml:space="preserve">
<style type="text/css">
	.st0{opacity:0.3;}
	.st1{fill:#1D1E1C;}
	.st2{fill:#2D2D2D;}
	.st3{fill:#AFAFAF;}
</style>
<g class="st0">
	<path d="M366.09,456.57c-4.05,0.95-8.12,2.46-11.05,5.41c-2.81,2.83-4.3,6.77-4.77,10.74c-1.83,15.35,10.2,28.59,21.89,38.7
		c20.84,18.02,38.81,21.09,63.18,7.74c14.26-7.81,38.28-19.85,40.54-38.17c3.15-25.58-21.48-32.43-40.47-28.16
		C412.36,458,388.87,451.2,366.09,456.57z"/>
	<path d="M672.75,217.82c-1.74,5.01-10.24,1.89-11.21-3.32c-0.96-5.21,2.02-10.25,3.1-15.44c6.45-30.8-50.96-48.13-42.86-78.53
		c6.1,3.33,9.91,10.45,9.3,17.37c13.24-3.82,26.49,6.75,33.63,18.53c7.13,11.79,11.17,25.65,20.68,35.62
		c4.21,4.41,9.41,7.94,12.9,12.94c3.5,5,4.83,12.35,0.84,16.97c8.5-5.21,20.25-0.64,26.27,7.31c6.02,7.95,7.76,18.25,9.32,28.1
		c2.1,13.27,4.2,26.55,6.3,39.82c-7.79-20.35-22.86-37.83-41.85-48.54c-7.89-4.45-17.16-8.53-20.49-16.96
		c-0.92-2.34-107.07,77.38-120.11,86.02C547.14,294.24,648.22,235.6,672.75,217.82z"/>
	<path d="M143.89,694.36c1.86-4.96,10.28-1.65,11.12,3.58c0.84,5.23-2.26,10.2-3.47,15.36c-7.18,30.64,49.8,49.33,40.98,79.53
		c-6.02-3.48-9.66-10.68-8.88-17.59c-13.33,3.5-26.32-7.38-33.18-19.33c-6.85-11.95-10.55-25.91-19.83-36.1
		c-4.11-4.51-9.21-8.16-12.59-13.24c-3.38-5.08-4.54-12.46-0.43-16.98c-8.63,5.01-20.26,0.16-26.09-7.94
		c-5.83-8.09-7.32-18.43-8.64-28.31c-1.78-13.32-3.56-26.64-5.35-39.96c7.31,20.53,21.96,38.37,40.68,49.52
		c7.79,4.64,16.95,8.93,20.08,17.44c0.87,2.36,176.42-131.86,189.66-140.18C338.82,563.91,168.83,677.17,143.89,694.36z"/>
	<path d="M677.34,685.9c-5.27-0.57-4.15-9.55,0.71-11.67c4.86-2.11,10.44-0.34,15.74-0.45c31.46-0.65,35.43-60.48,66.87-59.43
		c-1.87,6.69-7.95,12.01-14.84,12.97c6.7,12.04-0.61,27.33-10.49,36.93c-9.88,9.6-22.48,16.65-30.05,28.17
		c-3.35,5.1-5.62,10.95-9.7,15.49c-4.08,4.53-10.95,7.49-16.34,4.63c6.99,7.11,5.18,19.59-1.21,27.24
		c-6.4,7.65-16.03,11.66-25.28,15.4c-12.46,5.03-24.92,10.06-37.38,15.09c18.08-12.17,31.72-30.79,37.88-51.7
		c2.56-8.69,4.45-18.64,11.91-23.78c2.07-1.43-142.24-128.76-153.59-139.52C531.87,538.86,654.5,666,677.34,685.9z"/>
	<path d="M145.48,220.39c5.25,0.7,3.92,9.65-0.99,11.65c-4.91,2-10.44,0.09-15.74,0.07c-31.47-0.1-36.86,59.62-68.27,57.82
		c2.03-6.65,8.24-11.82,15.14-12.61c-6.41-12.2,1.26-27.31,11.37-36.67c10.11-9.37,22.87-16.11,30.72-27.44
		c3.47-5.02,5.88-10.81,10.07-15.25c4.19-4.44,11.12-7.22,16.45-4.24c-6.82-7.28-4.71-19.71,1.86-27.21s16.31-11.28,25.64-14.79
		c12.58-4.73,25.15-9.47,37.73-14.2c-18.36,11.74-32.44,30.03-39.1,50.78c-2.77,8.63-4.89,18.53-12.47,23.49
		c-2.11,1.38,98.83,88.64,109.92,99.68C247.1,327.39,167.84,240.83,145.48,220.39z"/>
	<path d="M757.54,469.24c-4.6,2.62-8.96-5.31-6.26-9.87c2.7-4.56,8.26-6.39,12.49-9.59c25.11-18.96-6.74-69.77,19.36-87.35
		c2.41,6.52,0.59,14.39-4.42,19.2c12.48,5.83,15.52,22.5,13.14,36.08c-2.38,13.57-8.46,26.67-7.85,40.43
		c0.27,6.1,1.86,12.17,1.21,18.23c-0.65,6.07-4.48,12.48-10.53,13.33c9.83,1.67,15.68,12.84,14.98,22.79
		c-0.7,9.95-6.16,18.85-11.46,27.29c-7.15,11.38-14.3,22.76-21.45,34.14c7.52-20.46,7.66-43.54,0.4-64.09
		c-3.02-8.54-7.32-17.71-4.28-26.25c0.84-2.37-146.66-14.71-162.16-16.78C597.55,441.6,727.37,466.49,757.54,469.24z"/>
	<path d="M61.9,448.69c4.67-2.51,8.83,5.52,6.02,10.02c-2.81,4.49-8.41,6.2-12.71,9.29c-25.56,18.36,5.08,69.91-21.43,86.86
		c-2.25-6.58-0.25-14.4,4.88-19.09c-12.34-6.13-14.98-22.87-12.28-36.38c2.7-13.51,9.09-26.46,8.81-40.24
		c-0.13-6.1-1.57-12.21-0.78-18.26c0.8-6.05,4.78-12.37,10.84-13.08c-9.79-1.9-15.37-13.21-14.44-23.14s6.6-18.7,12.11-27.01
		c7.42-11.21,14.84-22.41,22.25-33.62c-8,20.27-8.69,43.34-1.92,64.06c2.81,8.61,6.9,17.88,3.66,26.34
		c-0.9,2.35,185.95,17.89,201.4,20.33C260.87,479.82,92,452.14,61.9,448.69z"/>
	<path d="M424.03,803.4c-3.04-4.34,4.45-9.42,9.24-7.15c4.79,2.26,7.14,7.63,10.71,11.54c21.22,23.24,68.84-13.21,88.77,11.14
		c-6.27,3-14.27,1.93-19.53-2.62c-4.64,12.97-20.96,17.55-34.7,16.44c-13.73-1.1-27.34-5.94-40.99-4.05
		c-6.05,0.84-11.94,2.99-18.04,2.9c-6.1-0.08-12.84-3.3-14.25-9.24c-0.74,9.95-11.32,16.81-21.29,17.04
		c-9.97,0.23-19.34-4.37-28.24-8.87c-12-6.06-23.99-12.12-35.99-18.17c21.07,5.58,44.06,3.57,63.84-5.57
		c8.23-3.8,16.95-8.94,25.73-6.71c2.44,0.62-2.32-107.61-1.69-123.24C433.34,681.31,423.95,773.1,424.03,803.4z"/>
	<path d="M399.96,96.63c2.94,4.41-4.68,9.31-9.41,6.93s-6.95-7.8-10.43-11.79c-20.66-23.74-69.13,11.56-88.48-13.26
		c6.34-2.85,14.31-1.59,19.46,3.08c4.95-12.86,21.37-17.04,35.08-15.61s27.19,6.59,40.88,5.02c6.06-0.69,12.01-2.7,18.11-2.47
		c6.1,0.23,12.76,3.61,14.03,9.58c0.98-9.93,11.72-16.53,21.69-16.53c9.97,0.01,19.23,4.83,28.02,9.54
		c11.85,6.34,23.7,12.68,35.54,19.03c-20.93-6.08-43.96-4.62-63.96,4.05c-8.31,3.6-17.16,8.53-25.89,6.09
		c-2.42-0.68-2.69,126.24-3.68,141.85C385.3,237.07,399.32,126.92,399.96,96.63z"/>
	<path class="st1" d="M527.9,405.38c2.26,1.69,4.58,3.45,6.05,5.86c1.77,2.93,2.09,6.49,2.32,9.91c0.62,9.11,0.42,19.61-6.52,25.55
		c-4.88,4.17-11.75,4.83-18.16,5.31c-13.89,1.02-28.66,1.87-40.89-4.78c-4.11-2.23-7.75-5.23-11.36-8.21
		c-4.39-3.62-8.89-7.36-11.71-12.31s-3.67-11.44-0.61-16.24c1.82-2.86,4.76-4.78,7.69-6.48C480.99,388.8,503.39,387.03,527.9,405.38
		z"/>
	<path class="st1" d="M311.22,393.7c-3.94,0.44-7.95,1.01-11.53,2.71c-3.35,1.59-6.17,4.09-8.94,6.56
		c-7.14,6.4-14.89,14.9-12.62,24.22c1.2,4.94,5.15,8.86,9.68,11.16c4.53,2.3,9.63,3.2,14.66,3.91c8.04,1.14,16.14,1.89,24.25,2.24
		c8.38,0.36,17.06,0.25,24.76-3.09c8.04-3.49,14.47-10.52,17.23-18.84C380.68,386.46,332.89,391.3,311.22,393.7z"/>
	<path d="M539.23,308.83c4.39-2.5,4.42-2.53,7.77,1.72c1.53,1.94,2.91,4,4.47,6.15c-3.4,1.92-6.56,3.71-9.82,5.55
		c1.36,2.35,2.62,4.56,3.92,6.76c0.71,1.2,0.86,1.88-0.74,2.75c-11.38,6.17-22.67,12.5-33.98,18.79
		c-10.86,6.04-21.7,12.13-32.57,18.16c-12.66,7.03-25.36,14-38.02,21.04c-6.95,3.86-13.74,8.01-20.82,11.6
		c-5.1,2.59-9.83,5.77-14.92,8.37c-5.07,2.59-9.98,5.5-14.99,8.23c-0.44,0.24-1.15,0.4-1.56,0.21c-4.26-1.95-8.49-3.97-12.72-5.98
		c-0.21-0.1-0.37-0.33-0.68-0.62c2.54-1.44,4.97-2.81,7.89-4.47c-3.45-1.43-6.4-2.96-9.54-3.82c-1.16-0.32-2.87,0.76-4.13,1.53
		c-1.37,0.84-2.6,0.8-4,0.35c-7.47-2.41-14.92-4.91-22.44-7.15c-3.19-0.95-6.55-1.33-10.29-2.05c1.8-1.06,3.36-2.03,4.96-2.92
		c10.55-5.86,21.11-11.69,31.65-17.54c10.32-5.72,20.63-11.45,30.95-17.18c10.44-5.79,20.88-11.57,31.33-17.35
		c12.51-6.93,25.02-13.85,37.52-20.79c10.32-5.73,20.64-11.47,30.95-17.22c6.28-3.5,12.56-6.97,18.8-10.54
		c1.44-0.83,2.44-0.57,3.57,0.47C527.53,298.16,533.29,303.4,539.23,308.83z M411.38,401.66c0.26,0.09,0.52,0.18,0.77,0.27
		c-1.02-3.22,1.59-2.97,2.98-4.14c-1.1-0.33-2.37-0.65-3-0.15c-0.79,0.62-1.12,1.89-1.49,2.93
		C410.56,400.82,411.12,401.29,411.38,401.66z"/>
	<path d="M404.14,503.03c1.72-0.79,3.49-1.49,5.15-2.4c6.5-3.59,12.96-7.24,19.74-11.05c0.1,2.43,0.18,4.65,0.27,6.88
		c0.23,0.13,0.46,0.26,0.69,0.39c3.18-2.53,6.45-4.95,9.5-7.61c2.65-2.32,4.95-4.99,6.16-8.43c0.17-0.48,0.75-0.9,1.24-1.17
		c5.31-2.97,10.68-5.82,15.92-8.9c1.73-1.02,3.14-0.28,4.58,0.18c5.51,1.75,11.12,2.24,16.86,1.77c0.35-0.03,0.72,0.46,1.11,0.52
		c0.65,0.09,1.37,0.17,1.99-0.01c10.15-2.94,18.72-8.5,26.39-15.67c2.07-1.94,4.85-3.12,6.99-5c2.22-1.96,4.25-4.2,6.02-6.58
		c3.2-4.28,5.59-9.03,7.41-14.07c0.24-0.65,1.13-1.12,1.79-1.56c1.73-1.14,3.51-2.22,5.27-3.32c0,0-0.06,0.06-0.06,0.06
		c2.67-1.36,5.36-2.67,7.99-4.1c4.5-2.45,8.95-4.98,13.94-7.76c-1.22,3.08-2.28,5.65-3.27,8.25c-1.03,2.7-2.02,5.42-2.97,8.15
		c-0.47,1.37-0.89,2.68-2.52,3.12c-4.25,1.17-4.52,4.95-5.28,8.31c-0.63,2.76-0.96,5.6-1.53,8.38c-0.11,0.52-0.62,1.09-1.1,1.38
		c-1.92,1.17-3.9,2.24-5.74,3.29c0.18,0.62,0.51,1.18,0.48,1.72c-0.27,4.19-0.55,8.39-0.99,12.57c-0.07,0.7-0.8,1.64-1.46,1.92
		c-2.22,0.92-3.52,2.25-3.03,4.81c0.81,4.19-0.98,6.44-4.81,8.42c-10.76,5.54-21.25,11.61-31.83,17.49
		c-10.42,5.8-20.81,11.64-31.24,17.43c-10.36,5.75-20.87,11.25-31.04,17.31c-3.75,2.23-7.41,2.61-11.42,2.3
		c-0.89-0.07-2.15-0.06-2.58-0.6c-1.94-2.45-3.6-0.71-5.31,0.15c-1.2,0.61-2.34,1.35-3.64,2.11c-0.83-0.76-1.68-1.53-2.22-2.03
		c-4.16,0.58-8.09,1.13-12.01,1.67c-2.08,0.29-3.5-0.83-4.77-2.36c-1.94,1.54-3.81,3.17-6.93,2.47c2.22-1.29,4.12-2.38,6.42-3.71
		c-2.42-0.58-4.4-1.1-6.42-1.49c-0.37-0.07-0.87,0.3-1.26,0.54c-0.66,0.39-1.24,1.14-1.92,1.22c-4.45,0.53-8.97,1.37-13.07-1.74
		c-0.72,0-1.67,1.68-2.34,0.33c-1.54-0.44-2.89-0.84-4.25-1.22c-0.34-0.09-0.85-0.28-1.03-0.13c-2.08,1.74-4.53,1.13-6.88,1.14
		c-2.02,0.01-4.03-0.39-5.64,1.54c-1.06,1.28-2.69,0.86-4.18,0.45c-1.24-0.34-2.52-0.53-4.06-0.85c0.45-0.38,0.76-0.74,1.14-0.95
		c8.29-4.6,16.59-9.18,24.87-13.79c0.29-0.16,0.45-0.54,0.67-0.82c0,0-0.07,0.05-0.07,0.05c0.53-0.15,1.1-0.22,1.58-0.47
		c1.76-0.92,3.49-1.9,5.23-2.86c8.95-4.96,17.91-9.92,26.85-14.9c0.29-0.16,0.45-0.54,0.67-0.82
		C404.2,502.96,404.14,503.03,404.14,503.03z M416.71,518.44c-0.09-0.14-0.42-0.65-0.75-1.16c-0.36,0.41-0.96,0.79-1.03,1.25
		c-0.19,1.23-0.92,1.35-1.93,1.39c-0.34,0.01-0.65,0.57-0.98,0.88c0.29,0.28,0.54,0.71,0.88,0.82
		C414.94,522.27,416.5,521.16,416.71,518.44z M409.24,515.71c0.13,0.14,0.53,0.57,0.93,1.01c0.3-0.45,0.55-0.95,0.91-1.35
		c0.44-0.48,0.96-0.89,1.47-1.3c0.35-0.28,0.73-0.52,1.1-0.78c-0.39-0.32-0.74-0.84-1.17-0.92
		C410.47,511.97,409.31,513.02,409.24,515.71z"/>
	<path d="M518.2,274.61c-76.75,42.6-153.39,85.14-230.24,127.8c-0.02-0.91-0.04-1.65-0.06-2.96c-0.71,0.42-1.62,0.73-1.62,1
		c0.06,1.98-1.13,2.23-2.44,2.11c-1.43,0.61,1.4,2.41-1.33,2.61c-0.65-1.78-1.33-3.66-2.02-5.54c0.2,0.04,0.4,0.08,0.61,0.12
		c0.43-0.66,0.78-1.39,1.3-1.96c0.45-0.49,1.07-0.83,1.64-1.2c0.48-0.32,1-0.6,1.91-1.14c-3.44-1.02-4.28-0.5-5.57,3.19
		c-0.41-1.01-0.7-1.74-1.12-2.77c-3.55,1.91-7.08,3.81-10.89,5.87c-0.5-2.18-1.04-4.33-1.47-6.51c-0.34-1.71-0.42-3.48-0.84-5.16
		c-0.29-1.15,0.15-1.68,1.02-2.16c13.65-7.54,27.32-15.06,40.96-22.63c7.75-4.3,15.46-8.67,23.2-12.99c0.44-0.25,0.94-0.4,1.66-0.29
		c-0.53,0.46-1.06,0.93-1.73,1.5c1.15,1.59,2.12,3.34,3.9,4.36c0.45-2.01-2.82-2.96-1.27-4.91c1.68,0.15,3.03,0.28,4.38,0.41
		c0.06,0.13,0.12,0.25,0.18,0.38c-0.68,0.31-1.36,0.62-2.05,0.94c-0.01,0.18-0.01,0.36-0.02,0.55c0.74,0.02,1.66,0.31,2.17-0.02
		c0.57-0.37,1.17-1.4,1.03-1.98c-0.14-0.57-1.12-1.09-1.83-1.31c-0.56-0.18-1.28,0.11-1.92,0.2c-0.05-0.19-0.1-0.39-0.16-0.58
		c0.61-0.24,1.22-0.48,2.01-0.8c-0.38-0.43-0.69-0.78-1.31-1.48c0.79,0.09,1.42-0.02,1.68,0.23c0.68,0.68,1.19,1.53,1.77,2.31
		c0.96,1.29,1.97,1.59,3.2,0.29c0.38-0.4,0.93-0.64,1.63-1.11c-0.9-1.4-1.82-2.82-2.73-4.24c0.15-0.14,0.29-0.28,0.44-0.42
		c2.29,1.29,2.83,4.46,5.08,5.79c0.17-0.12,0.34-0.24,0.52-0.36c-0.31-0.7-0.63-1.41-0.99-2.23c3.33-1.72,1.31-3.7,0.09-5.74
		c1.8,0.78,2.53,4.09,5.18,2c0.48-0.38,0.54-1.3,0.83-2.06c-1.52-0.24-1.5,2.54-3.1,0.84c0.09-1.37,3.16-1.3,1.43-3.56
		c0.2-0.04,0.39-0.08,0.59-0.12c0.67,0.83,1.3,1.69,2.02,2.47c0.24,0.26,0.71,0.32,1.07,0.47c-0.01-0.39,0.11-0.86-0.07-1.15
		c-0.48-0.82-1.09-1.57-1.65-2.34c1.48-1.62,2.55-0.57,3.73,0.22c0.49,0.33,1.2,0.34,1.81,0.5c-0.02-0.59-0.02-1.19-0.06-1.78
		c-0.01-0.19-0.17-0.36-0.18-0.55c-0.03-0.46-0.02-0.93-0.03-1.39c0.43,0.16,0.91,0.24,1.27,0.5c1.46,1.05,3.18,0.76,3.68-0.74
		c0.14-0.42-0.03-0.96-0.07-1.67c-1.17,0.54-1.22,2.83-2.95,1.16c1.39-1.06,2.39-2.53,4.52-1.42c1.15,0.6,2.63-0.5,2.72-1.97
		c0.07-1.23,0.64-1.59,1.66-1.51c1.12,0.08,1.51-0.57,2.22-1.33c1.17-1.25,2.91-1.99,4.46-2.85c12.56-7.01,25.12-14.01,37.7-20.98
		c11.06-6.13,22.15-12.2,33.21-18.33c10.28-5.69,20.57-11.36,30.78-17.17c1.71-0.97,3.17-1.08,4.85-0.34
		c2.35,1.04,4.76,1.98,7.06,3.13c1.5,0.74,2.68,0.64,4.13-0.23c3.35-2.02,6.8-3.88,10.27-5.68c0.69-0.36,1.85-0.44,2.5-0.1
		c3.82,1.96,7.55,4.09,11.31,6.18C517.99,274,518.03,274.25,518.2,274.61z M329.86,358.68c0.3-0.33,0.54-0.62,0.81-0.86
		c0.68-0.61,1.85-1.05,0.73-2.24c-0.97-1.04-2.03-1.03-3.07-0.15c-1.05,0.89-1.18,1.98-0.39,3.09c0.85,1.2,1.66,2.68,3.52,1.88
		c1.14-0.49,1.84-1.35,1.29-2.84C331.57,357.89,331.57,360.26,329.86,358.68z M325.71,362.81c0.05,0.28,0.09,0.56,0.14,0.83
		c0.79-0.2,1.76-0.19,2.33-0.66c0.45-0.37,0.77-1.66,0.51-1.95c-0.49-0.54-1.44-0.72-2.23-0.9c-0.46-0.1-0.98,0.09-1.47,0.16
		c-0.04-0.16-0.08-0.33-0.12-0.49c0.61-0.31,1.21-0.61,1.82-0.92c-0.02-0.2-0.04-0.39-0.06-0.59c-0.64,0.03-1.45-0.17-1.89,0.15
		c-0.55,0.39-1.19,1.28-1.09,1.82c0.46,2.52,2.67,0.61,4.36,1.51C327.01,362.22,326.36,362.52,325.71,362.81z"/>
	<path d="M252.33,389.92c-0.11-4.56-0.28-8.87-0.26-13.19c0-0.61,0.81-1.42,1.45-1.78c4.18-2.38,8.39-4.72,12.65-6.95
		c1.26-0.66,1.72-1.45,1.81-2.85c0.23-3.68,0.58-7.36,1.08-11.01c0.11-0.77,0.91-1.7,1.64-2.1c13.04-7.27,26.14-14.44,39.2-21.68
		c13.12-7.28,26.2-14.63,39.31-21.91c16.47-9.14,32.98-18.22,49.45-27.36c12.84-7.12,25.65-14.29,38.47-21.44
		c0.39-0.21,0.79-0.39,1.16-0.57c0.16,0.11,0.34,0.17,0.36,0.26c0.66,3.32,1.72,3.81,4.79,2.19c0.29-0.15,0.56-0.44,0.85-0.45
		c0.65-0.02,1.3,0.09,1.95,0.15c-0.07,0.71,0.11,1.67-0.28,2.09c-0.77,0.83-1.88,1.32-2.79,2.02c-0.34,0.26-0.55,0.71-0.81,1.08
		c0.49,0.06,1.15,0.35,1.43,0.14c1.37-1.04,2.84-2.06,3.85-3.41c0.47-0.63,0.39-2.37-0.14-2.89c-0.65-0.64-2.04-0.72-3.09-0.68
		c-0.77,0.04-1.48,0.83-2.28,1c-0.57,0.12-1.69-0.13-1.78-0.43c-0.17-0.61-0.04-1.66,0.39-2.01c1.37-1.11,2.89-2.08,4.46-2.89
		c0.44-0.23,1.5,0.08,1.88,0.5c1.17,1.29,2.1,2.79,3.22,4.13c0.28,0.34,0.93,0.37,1.41,0.54c-0.02-0.51,0.16-1.16-0.08-1.52
		c-0.99-1.46-2.11-2.84-3.29-4.38c2.97-0.43,5.71,0.89,8.6,1.75c2.82,0.85,5.84,1.05,8.78,1.53c0.03,0.23,0.05,0.46,0.08,0.68
		c-2.26,1.26-4.53,2.51-6.79,3.78c-2.21,1.24-4.42,2.48-7,3.93c5.02,1.7,9.62,3.26,14.22,4.81c0.02,0.18,0.05,0.37,0.07,0.55
		c-29.89,16.59-59.78,33.18-89.71,49.79c-0.1-0.44-0.19-0.84-0.41-1.83c-0.95,1.28-1.61,2.18-2.28,3.07
		c-0.15,0.2-0.34,0.42-0.56,0.52c-2.42,1.13-4.92,2.12-7.26,3.39c-1.69,0.92-3.09,2.38-4.77,3.32c-16.65,9.27-33.34,18.46-50,27.71
		c-15.14,8.41-30.26,16.87-45.39,25.31c-4.09,2.28-8.19,4.56-12.29,6.83C253.42,389.78,253.14,389.77,252.33,389.92z"/>
	<path d="M273.11,344.09c1.13-4.7,2.12-8.82,3.24-13.47c-7.88,4.36-15.52,8.57-23.15,12.79c-0.17-0.14-0.34-0.28-0.52-0.43
		c2.29-4.71,4.87-9.3,6.79-14.15c2.1-5.33,6.82-7.22,11.19-9.66c11.89-6.64,23.8-13.23,35.71-19.82
		c12.41-6.87,24.83-13.73,37.24-20.6c10.34-5.73,20.72-11.37,30.95-17.28c3.15-1.82,6.48-1.53,9.75-1.88
		c4.11-0.44,8.26-0.63,12.4-0.61c2.95,0.01,5.47-0.79,8-2.23c8.09-4.6,16.24-9.11,24.42-13.55c0.93-0.51,2.23-0.66,3.3-0.52
		c6.02,0.77,12.03,1.67,18.55,2.6C391.64,278.4,332.62,311,273.11,344.09z"/>
	<path d="M427.52,428.69c-3.7,2.06-7.34,4.08-11.02,6.12c-0.3-0.66-0.55-1.2-0.88-1.91c-0.34,0.23-0.65,0.32-0.71,0.49
		c-1.11,3.53-4.31,4.69-7.12,6.27c-2.56,1.44-5.15,2.82-7.84,4.11c4.01-5.72,8.11-11.35,10.97-17.71c-0.12-0.12-0.25-0.24-0.37-0.35
		c-1.22,0.63-2.44,1.27-3.89,2.03c-1.09-5.51-6.26-6.24-10.34-8.8c2.8-1.59,5.38-3.09,7.99-4.54c9.71-5.38,19.44-10.74,29.14-16.13
		c9.09-5.04,18.15-10.11,27.24-15.16c10.49-5.82,20.99-11.62,31.49-17.44c12.45-6.9,24.9-13.81,37.35-20.72
		c7.63-4.24,15.3-8.4,22.86-12.77c1.75-1.01,2.12-0.12,2.65,1.04c1.19,2.61,2.35,5.24,3.57,7.99c1.87-1,3.6-1.93,5.56-2.98
		c1.14,3.74,2.22,7.24,3.25,10.74c0.36,1.23,0.1,2.06-1.23,2.79c-12.5,6.84-24.94,13.78-37.4,20.69
		c-12.45,6.9-24.91,13.8-37.35,20.71c-3.03,1.68-5.97,3.54-9.09,5.05c-2.24,1.09-4.69,1.75-7.06,2.56
		c-6.82,2.32-13.72,4.4-20.44,6.97c-7.55,2.9-14.95,6.2-22.37,9.41C426.55,419.73,425.52,422.15,427.52,428.69z"/>
	<path d="M369.95,521.97c-1.82,0.87-3.69,1.65-5.46,2.62c-8.46,4.67-16.93,9.3-25.29,14.14c-3.09,1.79-7.69-0.97-6.94-4.5
		c1.36-6.42-2.97-9.39-7.53-11.94c-1.97-1.1-3.61-3.01-6.3-2.9c-1.26,0.05-1.74,0.38-2.06,1.42c-1.18,3.88-2.33,7.77-3.57,11.63
		c-0.89,2.76-3.89,3.5-6.22,1.59c-0.7-0.57-1.3-1.25-2.02-1.8c-0.84-0.63-1.5-1.97-2.91-0.87c-0.13,0.1-0.68-0.21-0.95-0.43
		c-3.09-2.68-6.17-5.38-9.5-8.3c3.64-2.02,7.06-3.87,10.43-5.8c1.12-0.64,2.13-1.48,3.19-2.23l-0.07,0.05
		c0.53-0.15,1.11-0.22,1.58-0.47c1.7-0.9,3.35-1.88,5.04-2.81c8.97-4.95,17.94-9.88,26.89-14.84c0.34-0.19,0.54-0.62,0.81-0.94
		l-0.06,0.05c0.47-0.12,1-0.15,1.41-0.38c9.41-5.19,18.83-10.38,28.21-15.62c1.63-0.91,3.14-2.04,4.7-3.06l-0.06,0.07
		c1.93-0.94,3.91-1.8,5.8-2.83c5.33-2.9,10.62-5.87,15.92-8.82c0.12,0.14,0.24,0.29,0.36,0.43c-1.4,1.16-2.74,2.39-4.21,3.45
		c-3.27,2.37-6.54,4.78-6.99,9.19c-0.18,1.73,0.31,3.52,0.43,5.29c0.06,0.84-0.03,1.69-0.06,3.11c1.29,1.64,3,3.83,4.73,6
		c0.4,0.5,0.8,1.14,1.33,1.35c0.71,0.27,1.66,0.44,2.31,0.17c0.92-0.38,1.43-0.58,2.32,0.24c1.52,1.4,3.31,2.5,4.98,3.72
		c0.2-0.09,0.4-0.19,0.6-0.28c0.04-1.69,0.37-3.44,0.05-5.07c-0.51-2.64,0.49-4.84,1.56-6.99c2.26-4.54,4.76-8.96,7.03-13.49
		c0.43-0.85,0.29-2,0.32-3.02c0.11-3.62,0.23-7.24,0.24-10.87c0-1.1,0.3-1.81,1.29-2.31c1.36-0.68,2.68-1.44,4.4-2.38
		c-0.09,3.74-0.08,7.07-0.28,10.38c-0.11,1.76,0.57,3.66-1.03,5.3c-0.47,0.48-0.11,2.04,0.24,2.97c1,2.63,2.19,5.18,3.34,7.87
		c0.69-0.33,1.19-0.57,2.1-1c1.04,2.47,2.46,4.83,3.04,7.38c1.46,6.39,2,4.28-3.57,7.54c-4.85,2.85-9.83,5.48-14.74,8.23
		c-0.29,0.16-0.45,0.54-0.68,0.81c0,0,0.06-0.07,0.06-0.07c-0.47,0.13-0.98,0.18-1.4,0.41c-9.36,5.14-18.71,10.27-28.04,15.46
		c-1.69,0.94-3.26,2.12-4.88,3.19L369.95,521.97z"/>
	<path d="M515.37,291.88c-12.67,7.01-24.91,13.77-37.14,20.55c-10.39,5.76-20.76,11.54-31.14,17.3
		c-12.45,6.91-24.91,13.8-37.36,20.72c-10.38,5.76-20.75,11.55-31.13,17.31c-12.45,6.91-24.91,13.8-37.37,20.71
		c-4.21,2.33-8.39,4.72-12.63,6.97c-0.9,0.48-2.04,0.7-3.08,0.72c-4.97,0.12-9.99-0.28-14.9,0.3c-6.88,0.81-12.39,4.27-15.47,10.74
		c-0.98,2.06-1.33,4.41-2.05,6.6c-0.24,0.73-0.57,1.68-1.16,2c-6.65,3.74-13.36,7.39-20.05,11.06c-0.05,0.03-0.13,0-0.3,0
		c-1.33-3.96-2.67-7.97-4.04-12.07c5.95-3.36,11.9-6.78,17.89-10.11c6.45-3.58,12.95-7.06,19.41-10.64
		c10.36-5.74,20.7-11.54,31.05-17.29c10.48-5.82,20.97-11.61,31.46-17.42c12.56-6.95,25.12-13.88,37.67-20.85
		c12.44-6.91,24.86-13.87,37.31-20.78c12.38-6.87,24.78-13.7,37.16-20.56c7.63-4.23,15.24-8.48,22.87-12.7
		c0.43-0.24,1.17-0.48,1.48-0.28C507.61,286.61,511.31,289.14,515.37,291.88z"/>
	<path d="M321.41,460.45c3.08,1.91,5.98,3.67,8.85,5.49c1.17,0.74,2.4,1.13,3.49,0.17c3.52-3.08,7.02-2.7,11.22-1.11
		c3.89,1.48,8.26,1.68,12.65,2.48c-15.68,8.71-31.38,17.43-47.1,26.16c-1.75-0.67-1.01-2.03-0.66-3.6
		c-0.99,0.76-1.64,1.26-2.48,1.91c0.42,0.53,0.89,1.04,1.23,1.62c0.16,0.27,0.1,0.69,0.13,1.04c-0.34,0.01-0.75,0.15-1.02,0.01
		c-2.92-1.47-3.93-0.92-4.31,2.28c-0.06,0.48-0.52,0.9-0.67,1.14c-1.16-0.44-2.1-0.8-3.34-1.28c0.15,0.71,0.36,1.18,0.3,1.6
		c-0.08,0.51-0.26,1.22-0.64,1.45c-3.4,2.01-6.9,3.85-10.25,5.93c-1.58,0.98-2.56,0.87-3.18-0.85c-0.75-2.1-1.41-4.23-2.06-6.37
		c-0.18-0.59-0.17-1.23-0.29-2.15c-1.52,0.79-2.8,1.45-4.34,2.25c-0.05-0.77-0.16-1.44-0.14-2.1c0.13-3.82,0.23-7.63,0.51-11.44
		c0.05-0.7,0.73-1.6,1.38-1.97c7.58-4.31,15.21-8.53,22.83-12.77C309.52,467.02,315.53,463.71,321.41,460.45z"/>
	<path d="M297.71,415.4c-0.74,8.7,1.81,16.48,5.98,24.06c1.6-0.81,3.09-1.56,4.56-2.29c2.5,3.45,4.92,6.81,7.49,10.37
		c-2.99,1.68-6.02,3.39-9.4,5.29c2.64,2.45,5.05,4.69,7.61,7.07c-14.01,7.78-27.89,15.49-42.12,23.39c-0.02-0.95-0.07-1.6-0.05-2.26
		c0.1-3.62,0.31-7.25,0.28-10.87c-0.01-1.49,0.65-2.21,1.81-2.82c2.94-1.56,5.88-3.13,8.76-4.79c0.58-0.33,1.24-1.08,1.28-1.68
		c0.2-2.83,0.19-5.68,0.27-8.9c-1.4,0.61-2.56,1.13-3.86,1.7c-0.19-2.28-0.23-4.4-0.56-6.48c-0.99-6.36-2.11-12.71-3.09-19.07
		c-0.09-0.57,0.28-1.56,0.73-1.82c6.46-3.69,12.97-7.29,19.47-10.9C297.02,415.31,297.25,415.39,297.71,415.4z"/>
	<path d="M304.84,514.6c-1.6,0.74-3.23,1.41-4.78,2.24c-3.23,1.72-6.41,3.52-9.8,5.4c-1.66-1.47-3.41-3.02-5.02-4.45
		c0.56-0.99,1.07-1.88,1.58-2.77c-0.18-0.13-0.36-0.26-0.55-0.39c-0.83,0.55-1.26,2.59-2.88,0.91c0.84-0.7,1.57-1.31,2.53-2.1
		c-0.72-0.69-1.38-1.32-2.07-1.99c0.63-0.98,1.23-0.89,1.95,0.14c0.82,1.17,1.76,2.27,2.64,3.4c0.18-0.1,0.36-0.2,0.54-0.3
		c-0.06-0.36-0.03-0.79-0.21-1.08c-0.4-0.66-1.04-1.2-1.33-1.9c-0.21-0.5-0.04-1.17-0.04-1.76c0.56,0.04,1.19-0.08,1.66,0.15
		c0.81,0.39,1.48,1.04,2.27,1.48c0.34,0.19,1.09,0.32,1.19,0.17c0.23-0.37,0.36-0.95,0.24-1.37c-0.31-1.11-0.76-2.18-0.95-3.41
		c1.69,0.69,2.7,3.23,4.86,1.42c0.52-0.44,0.64-1.36,1.1-2.44c-1.59,0.34-1.49,2.91-3.35,1.3c0.86-1.04,1.67-2.04,2.14-2.6
		c1.51,0.17,2.78,0.53,3.97,0.33c0.49-0.08,0.79-1.35,0.93-2.23c-1.15,0.24-1.45,2.71-3.25,0.6c1.82-0.81,3-2.64,5.28-1.63
		c0.4,0.18,1.15-0.42,1.62-1.09c-0.38-0.09-0.77-0.19-1.19-0.29c0.18-0.2,0.28-0.39,0.44-0.47c7.13-3.43,13.73-7.82,20.7-11.54
		c6.96-3.72,13.83-7.6,20.74-11.41c1.57-0.87,3.1-1.81,4.71-2.62c0.78-0.39,1.68-0.76,2.53-0.8c12.66-0.54,23.09-6.04,32.15-14.51
		c2.33-2.18,4.29-4.76,6.6-6.97c1.32-1.26,2.94-2.23,4.52-3.16c3.14-1.84,6.36-3.56,9.88-5.11c-1.09,2.18-2.11,4.39-3.29,6.52
		c-2.27,4.1-4.57,8.17-6.99,12.18c-0.63,1.04-1.6,2.04-2.65,2.64c-6.24,3.54-12.56,6.94-18.83,10.43c-0.45,0.25-0.75,0.74-1.13,1.12
		c0,0,0.06-0.07,0.06-0.07c-0.65,0.2-1.36,0.3-1.94,0.62c-9.19,5.06-18.38,10.13-27.54,15.25c-1.68,0.94-3.23,2.12-4.84,3.19
		c0,0,0.06-0.05,0.06-0.05c-0.65,0.2-1.36,0.3-1.94,0.62c-9.13,5.03-18.27,10.06-27.37,15.15c-1.74,0.97-3.35,2.18-5.01,3.29
		L304.84,514.6z"/>
	<path d="M544.61,381.6c2.49-1.26,5-2.47,7.46-3.8c3.66-1.98,7.27-4.05,10.91-6.05c0.43-0.23,0.93-0.33,1.67-0.58
		c0.05,4.61,0.12,8.98,0.14,13.35c0,0.83-0.34,1.51-1.31,0.86c-1.39-0.94-2.14,0.29-2.65,1c-0.56,0.77-1.85,1.6-0.84,2.94
		c0.31,0.41,0.49,0.91,0.76,1.34c0.61,0.98,1.12,2.18,2.84,0.78c-0.26,1.75-0.45,3.08-0.64,4.36c-3.12,0.87-3.56,0.55-5.93-4.24
		c0.63-0.68,1.28-1.39,2.25-2.45c-1-0.16-1.73-0.51-2.01-0.29c-1.96,1.56-2.68,0.01-3.56-1.28c-0.14-0.2-0.35-0.35-1.02-0.49
		c0.02,0.71-0.24,1.62,0.1,2.08c1.11,1.49,0.38,2.45-0.64,3.45c-2.82,0.57-5,2.21-6.94,4.23c-3.22,0.2-5.35,2.65-4.17,5.28
		c1.14,2.52,2.9,4.77,4.45,7.24c0.84-0.61,1.35-0.97,1.94-1.39c-1.23-1.88-2.46-3.61-3.5-5.45c-0.37-0.64-0.67-1.92-0.34-2.26
		c0.99-1.01,1.38-2.15,1.57-3.46c0.31,0.21,0.81,0.36,0.89,0.63c1.03,3.27,2.01,3.77,5.26,2.57c0.3-0.11,0.62-0.34,0.91-0.31
		c0.58,0.07,1.14,0.28,1.71,0.44c-0.21,0.56-0.27,1.33-0.67,1.63c-0.81,0.6-1.88,0.86-2.71,1.44c-0.4,0.28-0.68,0.99-0.65,1.49
		c0.01,0.25,1.01,0.78,1.24,0.64c1.67-1.01,3.44-1.98,4.82-3.33c1.05-1.03,0.85-2.74-0.29-3.68c-0.82-0.67-2.14-0.89-3.27-0.99
		c-0.7-0.06-1.44,0.58-2.19,0.7c-0.48,0.07-1.02-0.24-1.53-0.38c0.17-0.51,0.18-1.24,0.53-1.49c0.87-0.62,1.9-1.03,3.01-1.59
		c-0.03-0.62-0.07-1.32-0.11-2.01c2.56,0.06,3.84,1.72,5,3.75c1.55,2.7,2.28,2.92,5.72,2.31c-0.03,1.47,0.2,2.91-0.15,4.19
		c-1.2,4.34-2.63,8.61-3.93,12.91c-0.61,2.02-2.52,2.46-4.03,3.32c-4.22,2.41-8.5,4.69-12.74,7.06c-0.33,0.19-0.52,0.63-0.78,0.96
		c0,0,0.06-0.06,0.06-0.06c-1.92,0.9-3.87,1.75-5.76,2.72c-1.97,1.01-3.88,2.12-5.9,3.24c0.46-2.91,0.89-5.56,1.28-8.22
		c0.2-1.39,0.36-2.8,0.47-4.2c0.03-0.34-0.09-0.93-0.31-1.03c-2.59-1.14-2-4.03-3.16-6c0.7,0.77,1.48,1.49,2.08,2.33
		c1.01,1.43,2.49,1.52,3.98,1.47c1.56-0.06,1.89-0.92,1.01-2.44c-3.62,1.23-3.99-2.34-6.03-3.8c0.76-0.81,1.33-1.4,1.89-1.99
		c-0.45-1.48-1.13-1.78-2.39-0.8c-0.31,0.24-1.04-0.06-1.58-0.11c0.06-0.52,0.13-1.03,0.2-1.61c-0.75,0.21-1.81,0.52-3.18,0.91
		c-3.71-3.44-8.68-4.89-13.96-5.82c0.2-0.4,0.38-0.76,0.55-1.11l-0.07,0.04c0.47-0.13,0.99-0.17,1.41-0.4
		c4.65-2.53,9.32-5.05,13.93-7.65c1.67-0.94,3.21-2.11,4.81-3.18l-0.06,0.05c0.53-0.15,1.11-0.2,1.59-0.46
		c2.93-1.59,5.85-3.19,8.73-4.85c1.35-0.78,2.61-1.7,3.92-2.56L544.61,381.6z M541.49,406.58c-1.47-3.22-2.86-4.35-4.89-4.02
		c-4.14,0.66-5.69,4.45-3.17,7.75c0.35,0.46,0.71,0.92,1.08,1.37c2.03,2.49,4.14,2.72,6.63,0.62c1-0.85,2.19-1.7,1.33-3.96
		c-0.83,0.7-1.43,1.25-2.07,1.75c-0.68,0.52-1.34,1.18-2.12,1.4c-0.41,0.11-1.04-0.59-1.82-1.07
		C538.37,408.97,539.94,407.76,541.49,406.58z"/>
	<path d="M446.5,534.57c33.26-18.46,66.33-36.82,99.63-55.3c0.08,0.69,0.18,1.11,0.18,1.52c-0.01,2.52-0.39,5.11,0.01,7.56
		c0.74,4.59-1.58,6.63-5.32,8.58c-9.96,5.19-19.69,10.79-29.52,16.23c-12.45,6.9-24.91,13.8-37.36,20.71c-1.8,1-3.67,1.9-5.33,3.08
		c-2.65,1.89-5.25,1.17-7.85,0.11c-0.95-0.39-1.72-0.93-2.81-0.29c-0.48,0.28-1.28,0.15-1.91,0.05c-2.62-0.4-5.24-0.83-7.84-1.33
		C447.77,535.38,447.23,534.95,446.5,534.57z"/>
	<path d="M390.3,248.87c-37.36,20.74-74.73,41.48-112.09,62.22c-0.1-0.07-0.2-0.14-0.3-0.21c0.59-0.99,1.13-2.03,1.79-2.98
		c6.13-8.76,13.12-16.81,21.51-23.42c4.24-3.35,9.16-5.87,13.9-8.54c9.72-5.49,19.44-10.97,29.32-16.17
		c3.32-1.75,7.04-2.8,10.66-3.88c5-1.49,10.04-2.86,15.13-3.97c6.04-1.32,12.16-2.3,18.25-3.41c0.55-0.1,1.15,0.01,1.72,0.03
		C390.23,248.65,390.27,248.76,390.3,248.87z"/>
	<path d="M510.41,400.54c-5.94,0.39-11.91,0.53-17.8,1.25c-5.23,0.64-10.39,1.94-15.58,2.94c-0.29,0.06-0.59,0.07-0.97-0.15
		c28.36-15.74,56.72-31.48,85.36-47.38c0.69,4.28,1.4,8.26,1.91,12.26c0.07,0.57-0.59,1.53-1.17,1.86
		c-5.52,3.12-11.11,6.14-16.65,9.22c-0.38,0.21-0.61,0.69-0.91,1.05c0,0,0.05-0.07,0.05-0.07c-0.42,0.07-0.9,0.03-1.26,0.22
		c-3.62,1.98-7.23,3.97-10.82,6.02c-0.78,0.44-1.45,1.09-2.17,1.64c0,0,0.06-0.05,0.06-0.05c-0.53,0.15-1.11,0.22-1.58,0.47
		c-4.6,2.5-9.21,4.99-13.76,7.58c-1.67,0.94-3.2,2.12-4.8,3.19C510.34,400.58,510.41,400.54,510.41,400.54z"/>
	<path d="M500.63,522.44c15-8.32,29.99-16.64,45.03-24.99c-0.11,4.73-0.14,9.28-0.36,13.81c-0.1,2.02-2.23,2.12-3.49,2.96
		c-1.98,1.3-4.28,2.15-6.17,3.55c-1.77,1.31-3.08,3.23-4.79,4.64c-7.22,5.96-14.51,11.85-21.8,17.74c-0.69,0.55-1.47,1.12-2.3,1.34
		c-2.72,0.73-3.96-0.07-4.74-2.83c-1.2-4.22-1.2-4.22,2.5-6.29c1.23-0.69,3.01-1.09,3.53-2.13c0.49-0.98-0.29-2.63-0.59-3.97
		c-0.32-1.44-0.73-2.86-1.17-4.52c-1.95,0.34-3.74,0.66-5.54,0.98C500.69,522.62,500.66,522.53,500.63,522.44z"/>
	<path d="M421.73,449.86c2.22-1.08,4.45-2.17,6.71-3.27c2.33,3.13,5.57,6.04,6.88,9.65c1.33,3.68,4.3,5.35,6.39,8.02
		c1.38,1.77,2.86,1.63,4.19,0.39c4.35,2.51,8.6,4.97,13.01,7.51c-5.81,3.24-11.78,6.57-18.05,10.06c0.46-3.19,0.51-5.97-0.99-8.54
		c-0.13-0.22-0.24-0.45-0.38-0.67c-1.5-2.26-1.67-2.3-4.01-0.86c-3-2.15-6.3-4.3-7.4-7.98c-1.52-5.08-4.67-9.38-6.28-14.37
		L421.73,449.86z"/>
	<path d="M493.18,527.13c-3.51,2.11-3.28,5.31-2.62,8.59c0.62,3.11-0.48,5.54-3.04,7.15c-1.04,0.65-2.54,0.89-3.79,0.8
		c-1.98-0.15-3.97-0.6-5.86-1.21c-1.34-0.43-2.53-1.33-3.92-2.1c-2.56,1.97-2.65,1.99-7.54,1.1c9.1-5.06,17.76-9.87,26.42-14.69
		C492.94,526.89,493.06,527.01,493.18,527.13z"/>
	<path d="M421.79,449.8c-0.5-0.39-1.19-0.67-1.45-1.18c-1.11-2.17-2.06-4.42-3.11-6.62c-0.44-0.92-0.98-1.78-1.48-2.67
		c-0.21,0.06-0.41,0.11-0.62,0.17c-0.07,0.59-0.19,1.18-0.2,1.77c-0.1,3.36-0.25,6.72-0.21,10.08c0.02,1.44-0.5,2.26-1.75,2.83
		c-1.1,0.5-2.15,1.11-3.39,1.77c-0.08-0.51-0.21-0.91-0.2-1.31c0.08-3.94,0.13-7.89,0.31-11.83c0.03-0.65,0.43-1.55,0.95-1.85
		c3.42-2.01,6.93-3.89,10.52-5.88c2.09,3.72,4.12,7.32,6.21,11.03c-1.6,0.89-3.12,1.7-4.58,2.59c-0.43,0.26-0.7,0.77-1.04,1.16
		C421.73,449.86,421.79,449.8,421.79,449.8z"/>
	<path d="M340.07,347.53c0.92-0.04,2.59,2.49,2.2,3.33c-0.03,0.06-0.05,0.15-0.09,0.17c-0.33,0.11-0.87,0.36-0.95,0.26
		c-0.77-0.98-1.53-2-2.14-3.08c-0.15-0.26,0.27-0.83,0.42-1.26C339.7,347.14,339.89,347.33,340.07,347.53z"/>
	<path d="M346.09,348.62c-0.73-1.19-1.29-1.99-1.7-2.87c-0.05-0.12,0.64-0.59,0.99-0.89c0.62,0.77,1.29,1.5,1.8,2.33
		C347.27,347.32,346.68,347.87,346.09,348.62z"/>
	<path d="M411.38,401.66c-0.26-0.37-0.82-0.84-0.73-1.09c0.37-1.04,0.7-2.31,1.49-2.93c0.62-0.5,1.89-0.18,3,0.15
		c-1.39,1.17-4,0.92-2.98,4.14C411.9,401.85,411.64,401.75,411.38,401.66z"/>
	<path d="M416.71,518.44c-0.21,2.73-1.77,3.84-3.8,3.18c-0.35-0.11-0.59-0.54-0.88-0.82c0.32-0.31,0.64-0.87,0.98-0.88
		c1.01-0.04,1.74-0.16,1.93-1.39c0.07-0.46,0.67-0.84,1.03-1.25C416.29,517.79,416.62,518.3,416.71,518.44z"/>
	<path d="M409.24,515.71c0.07-2.68,1.23-3.73,3.23-3.34c0.43,0.09,0.78,0.6,1.17,0.92c-0.37,0.26-0.75,0.49-1.1,0.78
		c-0.51,0.41-1.03,0.82-1.47,1.3c-0.36,0.4-0.61,0.9-0.91,1.35C409.77,516.28,409.37,515.85,409.24,515.71z"/>
	<path d="M329.86,358.68c1.71,1.57,1.71-0.8,2.89-1.12c0.55,1.49-0.15,2.35-1.29,2.84c-1.85,0.8-2.67-0.69-3.52-1.88
		c-0.79-1.11-0.66-2.2,0.39-3.09c1.04-0.88,2.1-0.89,3.07,0.15c1.11,1.19-0.06,1.63-0.73,2.24
		C330.4,358.07,330.17,358.35,329.86,358.68z"/>
	<path d="M325.71,362.81c0.65-0.3,1.31-0.59,2.3-1.04c-1.69-0.89-3.9,1.01-4.36-1.51c-0.1-0.55,0.55-1.43,1.09-1.82
		c0.44-0.31,1.24-0.12,1.89-0.15c0.02,0.2,0.04,0.39,0.06,0.59c-0.61,0.31-1.21,0.61-1.82,0.92c0.04,0.16,0.08,0.33,0.12,0.49
		c0.49-0.06,1.02-0.26,1.47-0.16c0.79,0.18,1.74,0.36,2.23,0.9c0.27,0.29-0.06,1.58-0.51,1.95c-0.57,0.47-1.54,0.46-2.33,0.66
		C325.8,363.37,325.75,363.09,325.71,362.81z"/>
	<path d="M541.49,406.58c-1.55,1.18-3.13,2.38-5.03,3.83c0.77,0.48,1.41,1.19,1.82,1.07c0.78-0.22,1.44-0.88,2.12-1.4
		c0.64-0.49,1.24-1.04,2.07-1.75c0.86,2.26-0.33,3.11-1.33,3.96c-2.48,2.1-4.6,1.87-6.63-0.62c-0.37-0.45-0.73-0.91-1.08-1.37
		c-2.52-3.3-0.97-7.09,3.17-7.75C538.63,402.24,540.03,403.37,541.49,406.58z M535.26,408.94c1.25-1.08,2.15-1.85,3.05-2.62
		c-0.43-0.47-1.11-1.41-1.27-1.34c-0.88,0.44-1.76,1.03-2.36,1.78C534.45,407.05,534.96,407.92,535.26,408.94z"/>
	<path d="M552.08,392.53c0.04,0.7,0.08,1.4,0.11,2.01c-1.1,0.56-2.13,0.97-3.01,1.59c-0.35,0.25-0.36,0.98-0.53,1.49
		c0.51,0.14,1.05,0.45,1.53,0.38c0.75-0.11,1.49-0.76,2.19-0.7c1.13,0.1,2.44,0.32,3.27,0.99c1.14,0.94,1.34,2.65,0.29,3.68
		c-1.37,1.35-3.14,2.32-4.82,3.33c-0.23,0.14-1.23-0.39-1.24-0.64c-0.02-0.5,0.26-1.21,0.65-1.49c0.83-0.58,1.9-0.84,2.71-1.44
		c0.4-0.3,0.46-1.07,0.67-1.63c-0.57-0.15-1.13-0.37-1.71-0.44c-0.29-0.03-0.6,0.2-0.91,0.31c-3.25,1.19-4.23,0.7-5.26-2.57
		c-0.09-0.28-0.59-0.43-0.89-0.63c0,0,0.05,0.04,0.05,0.04c1.94-2.02,4.11-3.66,6.94-4.23
		C552.13,392.58,552.08,392.53,552.08,392.53z"/>
	<path d="M545.14,396.77c-0.19,1.3-0.58,2.44-1.57,3.46c-0.33,0.34-0.03,1.61,0.34,2.26c1.05,1.83,2.27,3.57,3.5,5.45
		c-0.6,0.43-1.1,0.79-1.94,1.39c-1.55-2.47-3.32-4.71-4.45-7.24c-1.18-2.63,0.94-5.08,4.17-5.28
		C545.19,396.82,545.14,396.77,545.14,396.77z"/>
	<path d="M510.34,400.58c1.59-1.07,3.13-2.24,4.8-3.19c4.56-2.58,9.16-5.08,13.76-7.58c0.47-0.26,1.05-0.32,1.58-0.47
		c-1.6,1.07-3.14,2.24-4.81,3.18c-4.61,2.61-9.27,5.13-13.93,7.65C511.33,400.41,510.81,400.45,510.34,400.58z"/>
	<path d="M530.42,389.4c0.72-0.55,1.39-1.19,2.17-1.64c3.58-2.04,7.2-4.04,10.82-6.02c0.35-0.19,0.83-0.15,1.26-0.22
		c-1.3,0.86-2.57,1.78-3.92,2.56c-2.89,1.66-5.81,3.26-8.73,4.85C531.54,389.19,530.96,389.25,530.42,389.4z"/>
	<path d="M535.26,408.94c-0.29-1.02-0.8-1.89-0.58-2.17c0.61-0.76,1.48-1.34,2.36-1.78c0.16-0.08,0.83,0.86,1.27,1.34
		C537.41,407.09,536.51,407.86,535.26,408.94z"/>
	<path d="M447.22,251.73c-2.6,1.42-5.17,2.9-7.7,4.44c-0.52,0.32-1.08,0.68-1.27,1.26c-0.2,0.61,0.06,1.26,0.32,1.85
		c1.2,2.72,2.4,5.44,3.61,8.16c3.51-0.62,7.44-1.53,9.28-4.57c0.9-1.49,1.24-3.41,2.65-4.44c0.53-0.38,1.25-0.75,1.22-1.4
		c-0.02-0.38-0.31-0.68-0.59-0.93c-1.91-1.7-4.36-2.79-6.89-3.09"/>
	<path d="M404.86,389.28c-1.54,4.9,0.05,10.64,3.9,14.04c1.29,1.14,3.11,2.06,4.69,1.39c1.93-0.82,2.28-3.37,2.35-5.47
		c0.06-1.88,0.11-3.76,0.17-5.64c0.02-0.7,0.02-1.46-0.43-2c-0.31-0.36-0.77-0.55-1.22-0.72c-3.57-1.37-7.15-2.75-10.72-4.12"/>
	<path d="M373.76,328.09c-14.09,6.1-27.66,13.39-40.52,21.78c-1.53,1-3.2,2.25-3.36,4.07c-0.16,1.76,1.27,3.34,2.92,3.96
		c1.65,0.62,3.48,0.48,5.23,0.32c7.19-0.67,14.35-1.66,21.49-2.71c6.17-0.91,12.36-1.86,18.34-3.65c6.37-1.91,12.46-4.77,18-8.46
		c3.71-2.47,7.25-5.4,9.48-9.25c2.03-3.5,2.87-7.54,3.67-11.5c-6.37,1.12-12.26-4.03-18.49-3.57c-3.27,0.24-5.24,2.61-7.71,4.39
		C380.06,325.45,376.87,326.75,373.76,328.09z"/>
	<path d="M492.6,542.86c1-0.08,2.02-0.2,2.92-0.63c0.9-0.43,1.63-1.16,2.48-1.69c3.19-1.98,7.32-0.89,11.03-1.42
		c0.89-0.13,1.81-0.38,2.48-0.99c0.64-0.59,0.96-1.44,1.24-2.26c1.99-5.7,3.37-11.62,4.11-17.61c-1.02-0.97-2.04-1.93-3.06-2.9
		c-0.24-0.23-0.52-0.47-0.86-0.46c-0.31,0.01-0.56,0.24-0.78,0.45c-3.73,3.55-8.14,6.38-12.91,8.29c-3,1.2-6.16,2.05-8.97,3.65
		c-2.81,1.6-5.3,4.15-5.83,7.34c-0.23,1.38-1.35,6.41-0.69,7.5C484.85,543.91,490.83,542.99,492.6,542.86z"/>
	<path d="M305.34,495.68c-1.02,0.59-1.89,1.4-2.88,2.03c-1.46,0.94-3.17,1.47-4.91,1.54c-0.21,0.01-0.42,0.01-0.61-0.08
		c-0.48-0.23-0.53-0.87-0.52-1.4c0.01-0.7,0.03-1.39,0.04-2.09c0.01-0.53,0.03-1.09,0.3-1.54c0.23-0.37,0.6-0.62,0.96-0.86
		c2.73-1.78,5.6-3.35,8.56-4.7c0.25-0.12,0.52-0.23,0.8-0.22c1.18,0.07,3.77,2.97,3.57,4.22
		C310.35,494.48,306.75,494.86,305.34,495.68z"/>
	<path d="M299.19,501.84c-1.17,0.46-2.29,1.06-3.4,1.66c-4.22,2.28-8.44,4.56-12.65,6.84c-0.68,0.37-1.44,0.84-1.59,1.6
		c-0.08,0.43,0.05,0.86,0.2,1.27c0.77,2.1,2.25,4.1,4.39,4.75c1.17,0.36,2.44,0.28,3.65,0.09c6.04-0.91,11.43-4.2,16.62-7.42
		c1.13-0.7,2.29-1.42,3.12-2.46c0.52-0.65,0.9-1.41,1.28-2.16c0.39-0.78,0.78-1.56,1.17-2.34c0.48-0.95,0.94-2.15,0.31-3.01
		c-1.06-1.45-4.58-2.05-6.22-1.53C303.79,499.86,301.46,500.99,299.19,501.84z"/>
	<path d="M563.61,398.19c-0.12,1.07-0.25,2.17-0.77,3.11c-1.02,1.85-3.56,2.69-5.48,1.79c-1.72-0.8-2.68-2.62-3.76-4.19
		c-1.82-2.63-4.32-4.85-5.56-7.8c-0.24-0.58-0.43-1.19-0.42-1.81c0.03-1.02,0.63-1.96,1.41-2.63c1.55-1.33,3.67-1.72,5.68-2.05
		c2.22-0.37,4.48-0.93,6.72-1.11c1.32-0.11,2.51,0.14,2.87,1.56c0.48,1.88-0.03,4.46-0.14,6.39
		C564.03,393.68,563.97,395.99,563.61,398.19z"/>
	<path d="M530.63,421.93c0.08,0.17,0.18,0.36,0.36,0.43c0.12,0.04,0.25,0.02,0.37,0c1.63-0.32,3.16-1.17,4.29-2.39
		c2.28-2.43,2.82-6.03,2.69-9.36c-0.02-0.52-0.05-1.05-0.23-1.54c-0.25-0.69-0.76-1.24-1.29-1.75c-1.89-1.84-4.12-3.34-6.53-4.42
		c-1.73-0.78-5.66-2.58-7.53-1.72c-2.17,1-2.2,3.36-0.87,4.85c1.82,2.05,2.99,4.32,4.25,6.76
		C527.69,415.8,529.19,418.85,530.63,421.93z"/>
	<path class="st2" d="M383.45,472.87c24.54-8.4,53.29-3.05,73.17,13.6c-0.04-9.81-4.82-19.44-12.46-25.58
		c-7.64-6.15-17.95-8.76-27.64-7.25c-7.85,1.23-15.06,4.96-22.59,7.49c-8.68,2.91-17.9,4.2-27.05,3.82
		c-7.44-0.31-17.16-4.28-19.5,5.84C343.09,489.36,376.87,475.15,383.45,472.87z"/>
	<path d="M278.27,392.29c0.13,4.14,1.25,8.25,3.25,11.88c0.32,0.57,0.76,1.2,1.41,1.23c0.46,0.02,0.86-0.27,1.23-0.54
		c1-0.75,2-1.5,3-2.26c0.53-0.4,1.06-0.8,1.42-1.36c1-1.55,0.28-3.59-0.46-5.28c-1-2.28-2.01-4.57-3.01-6.85
		c-0.83-0.07-1.46,0.68-2.06,1.26c-2.64,2.53-6.74,2.51-10.39,2.33"/>
	<path class="st2" d="M528.75,465.17c-39.14,2.1-78.4,4.19-117.51,1.52c-21.93-1.5-44.17-4.48-65.73-0.18
		c-10.21,2.04-20.45,5.71-30.76,4.22c-3.2-0.46-6.33-1.42-9.32-2.65c-24.17-9.98-37.03-36.15-45.46-60.9
		c-2.36-6.93-4.56-14.33-2.96-21.47c3.16-14.12,19.03-20.83,32.9-24.97c39.04-11.64,78.98-20.26,119.34-25.73
		c20.13-2.73,40.59-4.68,60.73-1.99c20.14,2.69,40.13,10.38,54.56,24.68c5.69,5.64,10.4,12.16,15.08,18.66
		c2.84,3.94,5.69,7.89,8.16,12.08c7.52,12.78,11.29,27.6,11.79,42.42c0.22,6.69-0.32,13.78-4.09,19.32
		c-3.22,4.73-8.39,7.74-13.61,10.09c-10.64,4.81-22.21,7.56-33.87,8.06"/>
	<path d="M339.56,648.31c3.41-28.94,6.14-60.57,8.05-93.34c1.23,38.34,4.31,72.92,8.78,98.65c2.38-35.48,5.49-69.69,9.22-101.45
		c1.63,33.56,3.25,67.13,4.88,100.69c2.5,4.19,4.9-13.92,6.32-29.09c1.97-20.94,3.93-41.89,5.9-62.83
		c2.42,36.11,4.85,72.22,7.27,108.33c3.57-35.48,6.78-72.08,9.62-109.48c2.25,32.83,5.17,63.51,8.67,91.23
		c2.21-25.49,4.41-50.99,6.62-76.48c0.78,33.02,1.57,66.05,2.35,99.07c4.5-30.39,7.95-66.42,9.95-104.18
		c2.57,29.1,4.67,59.96,6.29,92.11c5.36-32.98,9.26-74.67,11.02-117.92c2.04,43.93,4.08,87.86,6.13,131.79
		c0.66-42.59,3.24-85.67,7.39-123.19c1.16,43.41,1.89,87.63,2.17,132.33c0.9-24.72,4.85-42.21,8.16-59.25
		c3.32-17.04,6.62-42.78,5.39-65.12c1.44,40.81,2.88,81.61,4.32,122.42c7.07-23.87,12.04-72.96,12.07-119.3
		c-0.53,43.46-1.06,86.92-1.6,130.38c3.31-27.06,6.61-54.12,9.92-81.18c2.76-22.61,5.64-46.98,6.08-73.47
		c-4.76,6.04-9.48,2.66-14.08-1.12c-26.55-21.83-52.94-56.44-80.48-39.01c-5.6,3.54-11.21,9.23-16.81,12.02
		c-12.05,6.01-23.85-1.51-35.66-6.74c-6.51-2.88-15.79-6.34-21.83,22.93c-3.58,17.39-2.53,31.08-0.91,50.14
		C336.68,599.96,338.36,623.27,339.56,648.31z"/>
	<path class="st3" d="M253.84,400.51c-1.97,17.38-0.47,37.02,12.19,49.1c9.82,9.36,24.93,12.65,32.67,23.79
		c3.42,4.92,5.64,11.52,11.29,13.51c2.11,0.74,4.4,0.69,6.64,0.63c8.26-0.24,16.78-0.62,24.24-4.16s13.67-11.07,13.06-19.3
		c-8.55-4.5-20.2-2.59-27.02-9.43c-4.87-4.89-5.39-12.5-5.62-19.41c-0.32-9.61-0.64-19.21-0.95-28.82c-0.06-1.95-0.11-4,0.79-5.74
		c0.91-1.76,2.65-2.91,4.36-3.92c15.64-9.31,34.34-13.36,52.43-11.35c16.58,1.84,33.64,8.52,49.38,3c5.05-1.77,9.67-4.74,14.86-6.05
		c5.69-1.43,11.67-0.75,17.5-0.07c9.3,1.09,18.6,2.17,27.9,3.26c7.81,0.91,16.25,2.12,21.82,7.67c3.09,3.09,4.93,7.2,6.41,11.31
		c5.19,14.47,6.72,30.23,4.41,45.42c-7.63,6.72-17.93,10.33-28.09,9.85c6.77,3.55,11.86,10.16,13.56,17.62
		c12.29-1.95,23.83,11.37,35.75,7.8c4.86-1.45,8.5-5.5,11.27-9.74c7.13-10.9,10.16-23.89,13.07-36.58
		c2.62-11.42,5.25-22.95,5.3-34.66c0.07-14.32-3.71-28.35-7.46-42.17c-13.2-7.02-20.68-21.61-32.98-30.12
		c-12.63-8.74-28.78-10.08-44.1-11.15c-22.01-1.54-44.02-3.07-66.04-4.61c-20.7-1.44-41.48-2.89-62.18-1.53
		c-13.92,0.92-27.9,3.14-40.85,8.34c-18.16,7.29-36.12,20.28-50.23,33.8c-4.53,4.34-12.25,10.86-13.74,17.27
		C251.69,381.62,254.78,392.26,253.84,400.51z"/>
	<path class="st3" d="M425.96,458.84c0.15,1.11,0.31,2.27,0.96,3.18c0.91,1.3,2.55,1.82,4.07,2.26c5.82,1.68,11.65,3.37,17.47,5.05
		c1.25,7.04,3.83,15.51,10.83,16.95c3.8,0.78,7.62-0.93,11.16-2.53c9.9-4.47,20.36-8.41,31.22-8.35c7.29,0.04,15.84,1.46,20.79-3.9
		c-4.41-0.89-8.83-1.78-13.24-2.66c-7.6-1.53-15.34-3.11-22.07-6.96c-14.96-8.56-21.75-26.19-27.34-42.49
		c-2.49-7.27-5.69-15.36-12.8-18.3C410.11,385.83,423.56,440.64,425.96,458.84z"/>
	<path class="st3" d="M550.75,363.35c4.31,0.97,8.74-0.62,12.83-2.28c23.09-9.33,44.98-21.36,66.81-33.37
		c4.24-2.33,9.1-5.79,8.56-10.6c-0.42-3.76-4.31-6.36-8.08-6.63c-3.77-0.27-7.43,1.21-10.91,2.68c-18.98,8.02-37.66,16.74-56,26.13
		C558.59,342.04,530.85,358.86,550.75,363.35z"/>
	<path class="st3" d="M546.67,443.89c1.55,4.14,5.31,6.97,8.94,9.49c20.46,14.2,42.53,25.91,64.53,37.58
		c4.27,2.27,9.83,4.44,13.56,1.35c2.91-2.41,2.95-7.09,1.11-10.39c-1.84-3.3-5.08-5.55-8.22-7.66
		c-17.11-11.47-34.65-22.32-52.55-32.51C568.79,438.77,539.52,424.79,546.67,443.89z"/>
	<path class="st3" d="M211.05,310.5c1.31,4.22,4.9,7.26,8.38,9.99c19.61,15.36,40.96,28.32,62.26,41.24c4.13,2.51,9.56,5,13.46,2.13
		c3.05-2.24,3.36-6.91,1.71-10.31c-1.65-3.4-4.75-5.83-7.77-8.12c-16.42-12.44-33.3-24.28-50.59-35.49
		C233.43,306.67,205.01,291.02,211.05,310.5z"/>
	<path class="st3" d="M210.24,492.98c4.31,0.97,8.74-0.62,12.83-2.28c23.09-9.33,44.98-21.36,66.81-33.37
		c4.24-2.33,9.1-5.79,8.56-10.6c-0.42-3.76-4.31-6.36-8.08-6.63s-7.43,1.21-10.91,2.68c-18.98,8.02-37.66,16.74-56,26.13
		C218.08,471.67,190.34,488.49,210.24,492.98z"/>
	<path d="M317.13,350.33c4.01-10.01,17.25-11.66,28.03-11.74c13.14-0.09,26.27-0.19,39.41-0.28c4.91-0.04,10-0.03,14.47,2.01
		c3.44,1.57,6.24,4.23,9.33,6.4c12.23,8.57,29.78,8.68,42.13,0.29c3.46-2.35,6.6-5.33,10.54-6.72c3.48-1.22,7.26-1.1,10.95-0.95
		c12.05,0.47,24.1,0.93,36.16,1.4c10.32,0.4,20.98,0.88,30.26,5.41c11.67,5.7,19.75,17.46,22.66,30.13
		c2.9,12.66,1.02,26.09-3.51,38.26c-7.02,18.85-21.31,35.8-40.43,42.06c-19.12,6.26-42.81-0.45-52.78-17.92
		c-4.53-7.94-6.02-17.22-9.61-25.62c-3.59-8.4-10.5-16.55-19.62-17.04c-7.61-0.41-17.63,3.59-21.32-3.07
		c8.17,1.51,18.48,2.13,22.81-4.95c1.85-3.03,2.03-6.76,3.27-10.08c1.95-5.2,6.03-12.09,1.37-15.12c-1.44-0.93-3.26-0.97-4.97-0.97
		c-9.34-0.02-18.69-0.04-28.03-0.06c8.94,9.79,10.11,24.8,6.32,37.51c-3.79,12.71-11.77,23.68-19.61,34.38
		c-4.48,6.1-9.02,12.28-14.92,17.03c-12.05,9.69-28.82,12.28-43.96,9.12c-15.14-3.15-28.78-11.53-40.41-21.72
		c-4.85-4.25-9.57-9.08-11.56-15.22c-1.51-4.64-1.32-9.64-1.01-14.51c0.61-9.72,1.65-19.41,3.09-29.04c0.46-3.03,0.97-6.11,2.42-8.8
		c1.83-3.39,4.95-5.85,7.61-8.63c5.76-6.02,9.58-13.84,16.12-19s17.74-6.16,22.04,0.97"/>
	<path d="M567.11,354.66c9.77-3.36,19.08-7.94,28.35-12.5c9.68-4.76,19.36-9.52,29.04-14.29c5.13-2.52,10.63-5.41,13.05-10.6
		c-0.3,4.48-4.87,7.25-8.88,9.25c-20.56,10.23-41.13,20.46-61.69,30.69c-3.24,1.61-6.72,3.27-10.31,2.83
		c-3.19-0.39-6.4-3.19-5.94-6.49C555.88,357.02,561.33,356.65,567.11,354.66z"/>
	<path d="M555.91,444.41c-2.04,2.48,0.9,5.91,3.54,7.73c4.43,3.05,8.85,6.1,13.28,9.15c1.79,1.23,3.62,2.49,5.73,3
		c2.78,0.67,5.8-0.01,8.5,0.95c1.78,0.63,3.23,1.91,4.66,3.14c11.23,9.63,23.79,17.71,37.2,23.94c0.36-0.32,0.12-0.96,0.47-1.28
		c1.48-1.32,3-1.04,4.52-2.32c0.84,0.73,0.46,2.22-0.46,2.86c-0.92,0.63-2.11,0.65-3.22,0.62c-3.88-0.1-7.86-0.49-11.35-2.17
		c-4.85-2.34-8.27-6.92-12.95-9.56c-1.96-1.1-4.1-1.85-6.2-2.65c-7.26-2.77-14.21-6.33-20.7-10.59c-1.4-0.92-4.16-3.16-5.47-4.21
		c-4.56-3.62-11.61-5.59-17.23-7.12C553.49,452.8,554.81,448.39,555.91,444.41z"/>
	<path d="M278.54,354.91c-11.69-8.4-23.4-16.81-35.89-23.96c-6.05-3.46-12.32-6.65-17.67-11.11c-5.35-4.46-9.82-10.42-10.88-17.31
		c-3.28,2.4-1.03,7.61,1.7,10.63c16.36,18.06,41.89,25.66,58.25,43.71c2.31,2.55,4.69,5.45,8.06,6.12c3.37,0.67,9.32-3.75,7.75-6.81
		c-1.18,1.31-3.04,1.97-4.78,1.7"/>
	<path d="M227.5,482.39c2.22-1.27,4.74-2,7.29-2.1c2-0.08,4.05,0.22,5.99-0.28c3.42-0.88,5.74-3.98,8.73-5.85
		c2.33-1.46,5.04-2.15,7.67-2.91c12.12-3.5,23.68-8.9,34.14-15.95c3.09-2.08,6.47-5.26,5.53-8.87c-0.13,4.15-3.56,7.54-7.33,9.27
		c-3.78,1.72-7.98,2.22-11.97,3.38c-4.93,1.44-9.5,3.89-14.07,6.23c-12.81,6.55-26.01,12.36-39.5,17.37
		c-2.65,0.98-16.64,4.3-11.85,7.44C216.71,493.1,224.18,484.29,227.5,482.39z"/>
</g>
</svg>
