<?xml version="1.0" encoding="utf-8"?>
<!-- Generator: Adobe Illustrator 23.1.1, SVG Export Plug-In . SVG Version: 6.00 Build 0)  -->
<svg version="1.1" id="Шар_1" xmlns="http://www.w3.org/2000/svg" xmlns:xlink="http://www.w3.org/1999/xlink" x="0px" y="0px"
	 viewBox="0 0 466 901" style="enable-background:new 0 0 466 901;" xml:space="preserve">
<style type="text/css">
	.st0{opacity:0.24;}
</style>
<g class="st0">
	<path d="M560.98,64.51H327.02c-1.8,0-3.26-1.46-3.26-3.26v-34.5c0-1.8,1.46-3.26,3.26-3.26h233.95c1.8,0,3.26,1.46,3.26,3.26v34.5
		C564.23,63.05,562.78,64.51,560.98,64.51z"/>
	<path d="M560.98,877.5H327.02c-1.8,0-3.26-1.46-3.26-3.26v-34.5c0-1.8,1.46-3.26,3.26-3.26h233.95c1.8,0,3.26,1.46,3.26,3.26v34.5
		C564.23,876.04,562.78,877.5,560.98,877.5z"/>
	<path d="M829.99,567.48V333.52c0-1.8,1.46-3.26,3.26-3.26h34.5c1.8,0,3.26,1.46,3.26,3.26v233.95c0,1.8-1.46,3.26-3.26,3.26h-34.5
		C831.45,570.73,829.99,569.28,829.99,567.48z"/>
	<path d="M17,567.48V333.52c0-1.8,1.46-3.26,3.26-3.26h34.5c1.8,0,3.26,1.46,3.26,3.26v233.95c0,1.8-1.46,3.26-3.26,3.26h-34.5
		C18.46,570.73,17,569.28,17,567.48z"/>
	<path d="M799.65,260.28L634.22,94.85c-1.27-1.27-1.27-3.33,0-4.61l24.39-24.39c1.27-1.27,3.33-1.27,4.61,0l165.43,165.43
		c1.27,1.27,1.27,3.33,0,4.61l-24.39,24.39C802.99,261.55,800.92,261.55,799.65,260.28z"/>
	<path d="M224.78,835.15L59.35,669.72c-1.27-1.27-1.27-3.33,0-4.61l24.39-24.39c1.27-1.27,3.33-1.27,4.61,0l165.43,165.43
		c1.27,1.27,1.27,3.33,0,4.61l-24.39,24.39C228.11,836.42,226.05,836.42,224.78,835.15z"/>
	<path d="M634.22,806.15l165.43-165.43c1.27-1.27,3.33-1.27,4.61,0l24.39,24.39c1.27,1.27,1.27,3.33,0,4.61L663.22,835.15
		c-1.27,1.27-3.33,1.27-4.61,0l-24.39-24.39C632.95,809.49,632.95,807.42,634.22,806.15z"/>
	<path d="M59.35,231.28L224.78,65.85c1.27-1.27,3.33-1.27,4.61,0l24.39,24.39c1.27,1.27,1.27,3.33,0,4.61L88.35,260.28
		c-1.27,1.27-3.33,1.27-4.61,0l-24.39-24.39C58.08,234.61,58.08,232.55,59.35,231.28z"/>
	<rect x="420.64" y="44" width="46.71" height="812.99"/>
	<rect x="37.5" y="427.14" width="812.99" height="46.71"/>
	<rect x="37.51" y="427.14" transform="matrix(0.7072 -0.707 0.707 0.7072 -188.5076 445.849)" width="812.99" height="46.71"/>
	<rect x="420.64" y="44.01" transform="matrix(0.7071 -0.7071 0.7071 0.7071 -188.508 445.902)" width="46.71" height="812.99"/>
</g>
</svg>
