<?xml version="1.0" encoding="UTF-8"?>
<svg version="1.1" xmlns="http://www.w3.org/2000/svg" width="171" height="202">
<path d="M0 0 C56.43 0 112.86 0 171 0 C171 66.66 171 133.32 171 202 C114.57 202 58.14 202 0 202 C0 135.34 0 68.68 0 0 Z " fill="#FEFEFE" transform="translate(0,0)"/>
<path d="M0 0 C2.64489289 3.96733933 2.02978062 7.13479976 1.6875 11.6875 C1.63916016 12.46544922 1.59082031 13.24339844 1.54101562 14.04492188 C1.30567034 17.61680795 0.98181968 21.13729779 0.51171875 24.6875 C-0.30054116 30.86388458 -0.51667285 37.09715267 -0.875 43.3125 C-1.54901299 54.65011507 -2.59591747 65.88288243 -3.95996094 77.16137695 C-5.00750456 86.17388757 -5.47219061 95.15426569 -5.70922852 104.22216797 C-5.73557373 105.20072754 -5.76191895 106.17928711 -5.7890625 107.1875 C-5.80662598 108.04730469 -5.82418945 108.90710938 -5.84228516 109.79296875 C-6 112 -6 112 -7 115 C-7.18387207 117.87774386 -7.32517612 120.74449127 -7.4375 123.625 C-7.75077417 130.26896973 -8.17106341 136.88516202 -8.875 143.5 C-8.94130615 144.2110791 -9.0076123 144.9221582 -9.07592773 145.65478516 C-9.40003955 148.49050408 -9.70627146 150.58960746 -11.38671875 152.9375 C-14.21253804 154.79857227 -16.81280511 154.61162719 -20 154 C-24.09110536 152.53327129 -28.03112414 150.76630936 -32 149 C-35.50862543 147.60668304 -39.06004181 146.3338956 -42.6171875 145.0703125 C-47.13493749 143.45593647 -51.49922578 141.79330728 -55.8125 139.6875 C-58.49889805 138.49937724 -60.14572851 137.98834172 -63.125 137.75 C-67.62933311 139.7084057 -69.95732105 143.235623 -73 147 C-74.843173 149.21650006 -76.72521179 151.39445392 -78.625 153.5625 C-79.08028076 154.11139893 -79.53556152 154.66029785 -80.00463867 155.22583008 C-82.09496133 157.5972873 -83.33149361 158.93325205 -86.54296875 159.25390625 C-90.07795681 157.44988214 -91.67886849 154.66363378 -93.6875 151.375 C-94.56347068 150.00239261 -95.43978251 148.6300029 -96.31640625 147.2578125 C-96.76000488 146.55172852 -97.20360352 145.84564453 -97.66064453 145.11816406 C-100.56590066 140.52355923 -103.60402959 136.01732129 -106.65625 131.51953125 C-108.14691472 129.31768526 -109.50518537 127.1298396 -110.84375 124.82421875 C-115.95678406 116.53796398 -122.0409165 114.28934788 -130.99389648 111.62548828 C-133.0638321 110.98009762 -135.07386522 110.23833255 -137.09765625 109.4609375 C-140.50022788 108.16036948 -143.93011818 107.11459837 -147.4375 106.125 C-153.10864019 104.41969211 -157.99916674 102.15298015 -163 99 C-163 96.69 -163 94.38 -163 92 C-160.525 91.505 -160.525 91.505 -158 91 C-158 90.34 -158 89.68 -158 89 C-157.030625 88.46632813 -156.06125 87.93265625 -155.0625 87.3828125 C-147.19007585 83.01816918 -139.47332682 78.48476565 -131.86987305 73.66699219 C-127.57657735 70.95676702 -123.23549195 68.36760004 -118.8125 65.875 C-114.24778085 63.3021583 -109.76064078 60.64459709 -105.3125 57.875 C-100.45541987 54.85557427 -95.52349981 52.06489296 -90.484375 49.36328125 C-87.58015351 47.76961254 -84.78811171 46.04254309 -81.99609375 44.26171875 C-79.85228107 42.90662776 -77.68048298 41.60772866 -75.5 40.3125 C-70.96136785 37.60192802 -66.47796238 34.80907888 -62 32 C-56.86186668 28.77743798 -51.70634632 25.59474369 -46.4921875 22.49609375 C-43.45523797 20.67297201 -40.44784885 18.80419438 -37.4375 16.9375 C-33.07695748 14.24662657 -28.68753833 11.66730027 -24.1875 9.21875 C-21.69212501 7.82846965 -19.25416974 6.35744234 -16.8125 4.875 C-5.65444108 -1.79914034 -5.65444108 -1.79914034 0 0 Z " fill="#DFE4E5" transform="translate(168,29)"/>
<path d="M0 0 C0.625 2.8125 0.625 2.8125 1 6 C0.34 6.99 -0.32 7.98 -1 9 C-1.66 9 -2.32 9 -3 9 C-3.25394531 9.71800781 -3.50789063 10.43601562 -3.76953125 11.17578125 C-5.0936482 14.21494491 -6.6970715 16.54011278 -8.6875 19.1875 C-9.39648438 20.14398438 -10.10546875 21.10046875 -10.8359375 22.0859375 C-11.55007812 23.04757813 -12.26421875 24.00921875 -13 25 C-17.71713113 31.45613146 -17.71713113 31.45613146 -21.6875 38.375 C-23.0988802 41.19776041 -24.74906176 42.82167267 -27 45 C-28.23512079 47.13309192 -28.23512079 47.13309192 -29 49 C-29.66 49 -30.32 49 -31 49 C-31.268125 49.53625 -31.53625 50.0725 -31.8125 50.625 C-33.90625 54.8125 -33.90625 54.8125 -36 59 C-36.66 59 -37.32 59 -38 59 C-38.103125 59.598125 -38.20625 60.19625 -38.3125 60.8125 C-39.09911856 63.31537724 -40.13545831 64.21314755 -42 66 C-42.495 67.485 -42.495 67.485 -43 69 C-43.66 69 -44.32 69 -45 69 C-45.22558594 69.67933594 -45.45117188 70.35867187 -45.68359375 71.05859375 C-47.65388218 75.46104831 -50.56894358 79.07458269 -53.45507812 82.91601562 C-55.67346648 85.92924504 -57.26146158 88.33323905 -58 92 C-57.42894531 92.15855469 -56.85789062 92.31710938 -56.26953125 92.48046875 C-49.00973874 94.56953464 -42.01935413 97.21646302 -35 100 C-36.43000241 104.605938 -38.78916296 107.07491222 -42.25 110.375 C-46.41778119 114.40633394 -50.31633443 118.5198662 -54 123 C-56.20703125 122.9140625 -56.20703125 122.9140625 -59 122 C-60.78918365 119.80486712 -62.22406776 117.77138518 -63.6875 115.375 C-64.56077108 114.00493618 -65.43448183 112.63515251 -66.30859375 111.265625 C-66.75187012 110.55986328 -67.19514648 109.85410156 -67.65185547 109.12695312 C-69.7907718 105.75240783 -72.02330173 102.44196293 -74.25 99.125 C-75.07574315 97.88165804 -75.90127111 96.63817312 -76.7265625 95.39453125 C-78.11459217 93.31016757 -79.52427139 91.25119007 -80.9609375 89.19921875 C-81.51007813 88.41160156 -82.05921875 87.62398438 -82.625 86.8125 C-83.09164062 86.15894531 -83.55828125 85.50539063 -84.0390625 84.83203125 C-85 83 -85 83 -85 79 C-83.54443359 77.37475586 -83.54443359 77.37475586 -81.5234375 75.77734375 C-78.45506313 73.24515732 -75.57699222 70.6559643 -72.7890625 67.81640625 C-72.10199219 67.11708984 -71.41492188 66.41777344 -70.70703125 65.69726562 C-69.2939162 64.24835873 -67.88251394 62.79777978 -66.47265625 61.34570312 C-65.79332031 60.65541016 -65.11398438 59.96511719 -64.4140625 59.25390625 C-63.8051416 58.62814697 -63.1962207 58.0023877 -62.56884766 57.35766602 C-61 56 -61 56 -59 56 C-58.773125 55.46375 -58.54625 54.9275 -58.3125 54.375 C-54.32710977 47.16334149 -47.84106237 41.92652371 -41.375 37 C-39.35413707 35.29822069 -37.85764824 33.70690175 -36.1875 31.6875 C-34.10620696 29.18113461 -31.97143366 27.04001602 -29.47265625 24.953125 C-23.57331685 19.8639895 -18.22589565 14.20502942 -12.83447266 8.58764648 C-11.46654151 7.16542483 -10.08501854 5.7563153 -8.703125 4.34765625 C-7.89520508 3.51242432 -7.08728516 2.67719238 -6.25488281 1.81665039 C-4 0 -4 0 0 0 Z " fill="#C3C9CC" transform="translate(138,65)"/>
<path d="M0 0 C5.97224248 1.16105308 11.45846425 2.76600006 17.0625 5.125 C17.73732422 5.40214844 18.41214844 5.67929688 19.10742188 5.96484375 C20.74094507 6.63678946 22.37088153 7.31744444 24 8 C22.56999759 12.605938 20.21083704 15.07491222 16.75 18.375 C12.58221881 22.40633394 8.68366557 26.5198662 5 31 C4.01 30.67 3.02 30.34 2 30 C0.72075724 26.7764018 0.80137931 23.35448268 0.68359375 19.921875 C0.64169922 18.76171875 0.59980469 17.6015625 0.55664062 16.40625 C0.51732422 15.1996875 0.47800781 13.993125 0.4375 12.75 C0.39431641 11.52796875 0.35113281 10.3059375 0.30664062 9.046875 C0.20062645 6.0313608 0.09856064 3.01576552 0 0 Z " fill="#AAB8BB" transform="translate(79,157)"/>
</svg>
