<?xml version="1.0" encoding="UTF-8"?>
<svg version="1.1" xmlns="http://www.w3.org/2000/svg" width="321" height="243">
<path d="M0 0 C86.82875136 -1.90849753 86.82875136 -1.90849753 113.03564453 22.99951172 C121.13831426 31.72751064 122.62472709 39.75124295 122.72314453 51.31201172 C122.75214844 52.43220703 122.78115234 53.55240234 122.81103516 54.70654297 C122.86251998 61.41541178 122.54266114 65.67961096 118.41064453 71.06201172 C97.42543403 91.92521518 51.64095673 93.14215079 23.98095703 93.26513672 C22.92039597 93.27215103 21.8598349 93.27916534 20.76713562 93.28639221 C17.35659499 93.30381907 13.94622807 93.31024593 10.53564453 93.31201172 C9.37036224 93.31268646 8.20507996 93.31336121 7.00448608 93.3140564 C-78.41592281 93.23544438 -78.41592281 93.23544438 -101.58935547 70.06201172 C-105.50301278 64.331968 -105.06984631 58.42872444 -105.02685547 51.74951172 C-105.04683594 50.65960938 -105.06681641 49.56970703 -105.08740234 48.44677734 C-105.08056952 37.08379449 -101.49496261 30.01829583 -93.58935547 22.06201172 C-92.83912109 21.25957031 -92.83912109 21.25957031 -92.07373047 20.44091797 C-71.01231466 -0.03545851 -27.12440528 0.64959447 0 0 Z M-16.58935547 11.06201172 C-16.94575108 13.1661914 -16.94575108 13.1661914 -16.90185547 15.49951172 C-16.91861328 16.28197266 -16.93537109 17.06443359 -16.95263672 17.87060547 C-16.73749098 20.07768147 -16.73749098 20.07768147 -15.50732422 21.72216797 C-10.17816374 25.44498272 -3.43434077 25.52249066 2.84814453 25.81201172 C3.71834229 25.85293945 4.58854004 25.89386719 5.48510742 25.93603516 C20.81809706 26.67638711 20.81809706 26.67638711 34.41064453 21.06201172 C35.1619333 18.67329826 35.1619333 18.67329826 34.97314453 16.06201172 C34.97443359 15.19576172 34.97572266 14.32951172 34.97705078 13.43701172 C34.23030418 10.30582595 33.09137988 9.76057733 30.41064453 8.06201172 C23.5234195 5.78711235 16.21966798 5.70993032 9.03564453 5.74951172 C8.02993408 5.75225098 7.02422363 5.75499023 5.98803711 5.7578125 C-6.21132986 5.69747196 -6.21132986 5.69747196 -16.58935547 11.06201172 Z M-77.58935547 21.06201172 C-80.00879126 23.70175073 -80.00879126 23.70175073 -80.58935547 27.06201172 C-77.50904354 33.22263558 -69.67098432 35.77228575 -63.58935547 38.06201172 C-44.87056469 43.83739356 -24.81817275 46.20766239 -5.28076172 46.22998047 C-3.71055519 46.23497307 -3.71055519 46.23497307 -2.10862732 46.24006653 C0.0956275 46.2450969 2.29988984 46.24747607 4.50415039 46.24731445 C7.80840238 46.24948561 11.11231141 46.2676414 14.41650391 46.28662109 C31.96417668 46.33456353 49.13279262 45.33141099 66.34814453 41.74951172 C67.40372559 41.53222412 68.45930664 41.31493652 69.546875 41.09106445 C80.52612218 38.74054672 90.2646812 36.20797505 98.41064453 28.06201172 C98.07075815 25.37464339 97.83613233 23.55821096 96.04736328 21.47216797 C81.05690516 11.10802358 57.25591437 7.06201172 39.41064453 7.06201172 C39.59626953 7.70138672 39.78189453 8.34076172 39.97314453 8.99951172 C40.18970703 10.02044922 40.18970703 10.02044922 40.41064453 11.06201172 C40.08064453 11.39201172 39.75064453 11.72201172 39.41064453 12.06201172 C39.33916255 13.41445089 39.32664999 14.77035539 39.34814453 16.12451172 C39.36876953 17.42388672 39.38939453 18.72326172 39.41064453 20.06201172 C39.97654297 20.32755859 40.54244141 20.59310547 41.12548828 20.86669922 C41.85896484 21.21990234 42.59244141 21.57310547 43.34814453 21.93701172 C44.07904297 22.28505859 44.80994141 22.63310547 45.56298828 22.99169922 C47.41064453 24.06201172 47.41064453 24.06201172 48.41064453 26.06201172 C45.890902 26.71236543 43.36998519 27.35738665 40.84814453 27.99951172 C40.14367187 28.18191406 39.43919922 28.36431641 38.71337891 28.55224609 C38.0140625 28.72949219 37.31474609 28.90673828 36.59423828 29.08935547 C35.6437561 29.33286743 35.6437561 29.33286743 34.67407227 29.58129883 C26.33898386 31.3515274 18.0084257 31.30195695 9.53564453 31.31201172 C8.42798233 31.31451935 8.42798233 31.31451935 7.29794312 31.31707764 C-5.86385508 31.3188676 -18.05708766 30.43594434 -30.58935547 26.06201172 C-28.0825247 22.30176556 -25.72441612 21.67009086 -21.58935547 20.06201172 C-21.58935547 18.78326172 -21.58935547 17.50451172 -21.58935547 16.18701172 C-21.58935547 13.14534505 -21.58935547 10.10367839 -21.58935547 7.06201172 C-38.76805611 7.06201172 -63.09107681 10.98540725 -77.58935547 21.06201172 Z M-87.58935547 24.06201172 C-90.41812044 26.89077669 -91.5396972 28.39162505 -91.83935547 32.43701172 C-89.64031603 38.8142261 -85.37038648 41.62584798 -79.49560547 44.65966797 C-53.11307794 56.07069481 -23.03897884 57.60264446 5.296875 57.453125 C8.90940065 57.43701727 12.52080812 57.45310597 16.13330078 57.47216797 C64.57712523 57.82894332 64.57712523 57.82894332 107.07080078 37.85498047 C109.31277982 34.85478112 109.75289978 32.75836838 109.41064453 29.06201172 C107.1186505 26.10150298 107.1186505 26.10150298 104.41064453 24.06201172 C104.29849609 24.64208984 104.18634766 25.22216797 104.07080078 25.81982422 C102.93046895 30.33643264 101.66147824 33.44558987 97.84814453 36.24951172 C87.41454184 42.30502711 75.28747937 45.12957303 63.53564453 47.31201172 C62.31905151 47.53848389 62.31905151 47.53848389 61.07788086 47.76953125 C44.1014652 50.67061606 27.10279717 51.43985049 9.91064453 51.37451172 C8.40860474 51.3717775 8.40860474 51.3717775 6.8762207 51.36898804 C-62.90540535 51.1559684 -62.90540535 51.1559684 -82.58935547 34.06201172 C-84.33935547 31.06201172 -84.33935547 31.06201172 -85.58935547 28.06201172 C-86.17716797 26.88638672 -86.17716797 26.88638672 -86.77685547 25.68701172 C-87.04498047 25.15076172 -87.31310547 24.61451172 -87.58935547 24.06201172 Z M-97.58935547 37.06201172 C-99.62769355 41.13868787 -98.95045726 46.26836143 -99.02685547 50.74951172 C-99.07261719 51.82652344 -99.11837891 52.90353516 -99.16552734 54.01318359 C-99.23783129 59.14047653 -99.27047855 63.00765356 -95.95654297 67.10888672 C-72.83908714 89.43141461 -19.80505394 88.53441788 10.35693359 88.29614258 C65.5375847 88.16222163 65.5375847 88.16222163 114.26220703 66.60888672 C117.82072605 62.03893915 116.97506995 56.31188083 116.78564453 50.81201172 C116.77146484 49.71115234 116.75728516 48.61029297 116.74267578 47.47607422 C116.86437943 42.09812579 116.86437943 42.09812579 115.41064453 37.06201172 C114.75064453 37.06201172 114.09064453 37.06201172 113.41064453 37.06201172 C112.66814453 38.36138672 112.66814453 38.36138672 111.91064453 39.68701172 C104.70191246 50.8684392 86.87931571 54.01657094 74.66015625 56.67700195 C64.99714088 58.65496079 55.20955751 59.96747135 45.41064453 61.06201172 C44.58338867 61.1591748 43.75613281 61.25633789 42.90380859 61.35644531 C31.94903165 62.46465649 20.90925878 62.3049917 9.91064453 62.31201172 C8.27308701 62.31352234 8.27308701 62.31352234 6.60244751 62.31506348 C-10.32229644 62.30450773 -26.85157263 61.77116745 -43.58935547 59.06201172 C-44.50797363 58.91747559 -45.4265918 58.77293945 -46.37304688 58.62402344 C-83.76584039 52.52803273 -83.76584039 52.52803273 -93.00341797 41.35107422 C-93.91577712 39.95299868 -94.76108358 38.51148752 -95.58935547 37.06201172 C-96.24935547 37.06201172 -96.90935547 37.06201172 -97.58935547 37.06201172 Z " fill="#D2D2D2" transform="translate(153.58935546875,95.93798828125)"/>
<path d="M0 0 C6.72004052 4.20372579 13.34538972 8.53677807 19.9375 12.9375 C21.0965686 13.7099707 21.0965686 13.7099707 22.27905273 14.49804688 C25.77249353 16.8297095 29.25833824 19.17032841 32.71875 21.55078125 C33.7809375 22.27652344 34.843125 23.00226563 35.9375 23.75 C36.85402344 24.38421875 37.77054688 25.0184375 38.71484375 25.671875 C40.99177812 27.25124601 40.99177812 27.25124601 44 27 C45.79806947 24.95351303 47.40269813 22.9439411 49 20.75 C49.43828125 20.16347656 49.8765625 19.57695313 50.328125 18.97265625 C52.15028488 16.53030339 53.94533476 14.07845474 55.6875 11.578125 C56.120625 11.05734375 56.55375 10.5365625 57 10 C57.66 10 58.32 10 59 10 C59.53160457 12.41474617 60.05054766 14.83108107 60.5625 17.25 C60.71396484 17.93191406 60.86542969 18.61382812 61.02148438 19.31640625 C61.81149193 23.10109359 61.95840947 25.16636213 61 29 C59.35 26.03 57.7 23.06 56 20 C51.14889642 24.41009417 47.651893 29.58004353 44 35 C36.79282394 31.22127275 30.12522578 26.81269751 23.4375 22.1875 C22.42880859 21.49462891 21.42011719 20.80175781 20.38085938 20.08789062 C17.91809931 18.39547257 15.45790296 16.69946068 13 15 C13.25692627 15.56396484 13.51385254 16.12792969 13.77856445 16.70898438 C14.95926104 19.30476296 16.13590115 21.9023616 17.3125 24.5 C17.71662109 25.386875 18.12074219 26.27375 18.53710938 27.1875 C18.93349609 28.0640625 19.32988281 28.940625 19.73828125 29.84375 C20.09962158 30.63974609 20.46096191 31.43574219 20.83325195 32.25585938 C22.33626237 35.79087445 23.6512393 39.40330479 25 43 C12.625 43.99 12.625 43.99 0 45 C0.66 46.65 1.32 48.3 2 50 C-1.32687768 48.45315734 -4.24703978 46.54045021 -7.25 44.4375 C-8.14203125 43.81746094 -9.0340625 43.19742188 -9.953125 42.55859375 C-10.62859375 42.04425781 -11.3040625 41.52992187 -12 41 C-12 40.67 -12 40.34 -12 40 C2.85 39.505 2.85 39.505 18 39 C16.30230469 35.53113281 16.30230469 35.53113281 14.5703125 31.9921875 C13.47062064 29.73871675 12.37221306 27.48462433 11.27392578 25.23046875 C10.51289585 23.67024418 9.75054292 22.11066418 8.98681641 20.55175781 C7.8861178 18.30443835 6.79027664 16.05480547 5.6953125 13.8046875 C5.3556546 13.1138205 5.0159967 12.42295349 4.66604614 11.71115112 C2.80537069 7.874331 1.25198662 4.08982296 0 0 Z " fill="#D2D2D2" transform="translate(40,58)"/>
<path d="M0 0 C0.495 0.99 0.495 0.99 1 2 C-0.20096758 4.82798047 -1.46936339 7.5438805 -2.83984375 10.2890625 C-3.44125938 11.51669815 -3.44125938 11.51669815 -4.05482483 12.76913452 C-5.34163515 15.39147867 -6.63941491 18.00822149 -7.9375 20.625 C-8.80997074 22.39808047 -9.68172509 24.17151365 -10.55273438 25.9453125 C-12.69219825 30.30174228 -14.84639166 34.65043113 -17 39 C-2.15 39.495 -2.15 39.495 13 40 C10.28919443 42.71080557 7.88899318 44.98091007 4.875 47.25 C4.19179688 47.77078125 3.50859375 48.2915625 2.8046875 48.828125 C1 50 1 50 -1 50 C-0.34 48.35 0.32 46.7 1 45 C-7.25 44.34 -15.5 43.68 -24 43 C-20.8125 35.75 -20.8125 35.75 -19.84301758 33.54980469 C-17.14509436 27.39729198 -14.58559091 21.20541818 -12 15 C-21.9 21.6 -31.8 28.2 -42 35 C-45.19103477 31.80896523 -47.65214456 28.88699761 -50.25 25.25 C-50.95640625 24.26515625 -51.6628125 23.2803125 -52.390625 22.265625 C-52.92171875 21.51796875 -53.4528125 20.7703125 -54 20 C-54.44988281 20.60328125 -54.89976562 21.2065625 -55.36328125 21.828125 C-57.19466427 24.25831345 -59.09113714 26.63037713 -61 29 C-60.27637073 22.60794144 -59.19656638 16.31972924 -58 10 C-54.82851882 11.05716039 -54.29624618 11.54292951 -52.3359375 14.0546875 C-51.85382813 14.66957031 -51.37171875 15.28445312 -50.875 15.91796875 C-50.38 16.56378906 -49.885 17.20960937 -49.375 17.875 C-48.87226563 18.51308594 -48.36953125 19.15117188 -47.8515625 19.80859375 C-45.69654305 22.58347094 -44.12348108 24.62955675 -43 28 C-35.99574467 24.84121818 -29.92504129 20.58281607 -23.67138672 16.16699219 C-21.0811837 14.35846598 -18.44716404 12.61787943 -15.8125 10.875 C-10.47840277 7.3378756 -5.22353552 3.69807825 0 0 Z " fill="#D2D2D2" transform="translate(284,58)"/>
<path d="M0 0 C15.51 0 31.02 0 47 0 C47 0.33 47 0.66 47 1 C31.49 1 15.98 1 0 1 C0 0.67 0 0.34 0 0 Z " fill="#D2D2D2" transform="translate(139,135)"/>
<path d="M0 0 C8.25 0 16.5 0 25 0 C25 0.33 25 0.66 25 1 C16.75 1 8.5 1 0 1 C0 0.67 0 0.34 0 0 Z " fill="#D2D2D2" transform="translate(150,110)"/>
<path d="M0 0 C2.97 0 5.94 0 9 0 C9 0.33 9 0.66 9 1 C6.03 1 3.06 1 0 1 C0 0.67 0 0.34 0 0 Z " fill="#D2D2D2" transform="translate(189,134)"/>
<path d="M0 0 C2.97 0 5.94 0 9 0 C9 0.33 9 0.66 9 1 C6.03 1 3.06 1 0 1 C0 0.67 0 0.34 0 0 Z " fill="#D2D2D2" transform="translate(127,134)"/>
<path d="M0 0 C2.64 0 5.28 0 8 0 C8 0.33 8 0.66 8 1 C5.36 1 2.72 1 0 1 C0 0.67 0 0.34 0 0 Z " fill="#D2D2D2" transform="translate(195,107)"/>
<path d="M0 0 C2.64 0 5.28 0 8 0 C8 0.33 8 0.66 8 1 C5.36 1 2.72 1 0 1 C0 0.67 0 0.34 0 0 Z " fill="#D2D2D2" transform="translate(122,107)"/>
<path d="M0 0 C2.31 0 4.62 0 7 0 C7 0.33 7 0.66 7 1 C4.69 1 2.38 1 0 1 C0 0.67 0 0.34 0 0 Z " fill="#D2D2D2" transform="translate(200,133)"/>
<path d="M0 0 C2.31 0 4.62 0 7 0 C7 0.33 7 0.66 7 1 C4.69 1 2.38 1 0 1 C0 0.67 0 0.34 0 0 Z " fill="#D2D2D2" transform="translate(118,133)"/>
<path d="M0 0 C1.98 0 3.96 0 6 0 C6 0.33 6 0.66 6 1 C4.02 1 2.04 1 0 1 C0 0.67 0 0.34 0 0 Z " fill="#D2D2D2" transform="translate(207,132)"/>
<path d="M0 0 C1.98 0 3.96 0 6 0 C6 0.33 6 0.66 6 1 C4.02 1 2.04 1 0 1 C0 0.67 0 0.34 0 0 Z " fill="#D2D2D2" transform="translate(112,132)"/>
<path d="M0 0 C1.98 0 3.96 0 6 0 C6 0.33 6 0.66 6 1 C4.02 1 2.04 1 0 1 C0 0.67 0 0.34 0 0 Z " fill="#D2D2D2" transform="translate(211,109)"/>
<path d="M0 0 C1.98 0 3.96 0 6 0 C6 0.33 6 0.66 6 1 C4.02 1 2.04 1 0 1 C0 0.67 0 0.34 0 0 Z " fill="#D2D2D2" transform="translate(175,109)"/>
<path d="M0 0 C1.98 0 3.96 0 6 0 C6 0.33 6 0.66 6 1 C4.02 1 2.04 1 0 1 C0 0.67 0 0.34 0 0 Z " fill="#D2D2D2" transform="translate(144,109)"/>
<path d="M0 0 C1.98 0 3.96 0 6 0 C6 0.33 6 0.66 6 1 C4.02 1 2.04 1 0 1 C0 0.67 0 0.34 0 0 Z " fill="#D2D2D2" transform="translate(108,109)"/>
<path d="M0 0 C1.98 0 3.96 0 6 0 C6 0.33 6 0.66 6 1 C4.02 1 2.04 1 0 1 C0 0.67 0 0.34 0 0 Z " fill="#D2D2D2" transform="translate(205,108)"/>
<path d="M0 0 C1.98 0 3.96 0 6 0 C6 0.33 6 0.66 6 1 C4.02 1 2.04 1 0 1 C0 0.67 0 0.34 0 0 Z " fill="#D2D2D2" transform="translate(114,108)"/>
<path d="M0 0 C1.65 0 3.3 0 5 0 C5 0.33 5 0.66 5 1 C3.35 1 1.7 1 0 1 C0 0.67 0 0.34 0 0 Z " fill="#D2D2D2" transform="translate(214,131)"/>
<path d="M0 0 C1.65 0 3.3 0 5 0 C5 0.33 5 0.66 5 1 C3.35 1 1.7 1 0 1 C0 0.67 0 0.34 0 0 Z " fill="#D2D2D2" transform="translate(106,131)"/>
<path d="M0 0 C0.33 0.66 0.66 1.32 1 2 C0.34 2.66 -0.32 3.32 -1 4 C-0.67 2.68 -0.34 1.36 0 0 Z " fill="#D2D2D2" transform="translate(84,118)"/>
<path d="M0 0 C4 1 4 1 4 1 Z " fill="#D2D2D2" transform="translate(219,130)"/>
<path d="M0 0 C4 1 4 1 4 1 Z " fill="#D2D2D2" transform="translate(102,130)"/>
<path d="M0 0 C4 1 4 1 4 1 Z " fill="#D2D2D2" transform="translate(223,129)"/>
<path d="M0 0 C4 1 4 1 4 1 Z " fill="#D2D2D2" transform="translate(98,129)"/>
<path d="M0 0 C0.66 0.33 1.32 0.66 2 1 C1.01 1 0.02 1 -1 1 C-0.67 0.67 -0.34 0.34 0 0 Z " fill="#D2D2D2" transform="translate(237,124)"/>
<path d="M0 0 C0.99 0.33 1.98 0.66 3 1 C2.01 1 1.02 1 0 1 C0 0.67 0 0.34 0 0 Z " fill="#D2D2D2" transform="translate(237,116)"/>
<path d="M0 0 C0.66 0.33 1.32 0.66 2 1 C1.01 1 0.02 1 -1 1 C-0.67 0.67 -0.34 0.34 0 0 Z " fill="#D2D2D2" transform="translate(86,116)"/>
<path d="M0 0 C4 1 4 1 4 1 Z " fill="#D2D2D2" transform="translate(222,111)"/>
<path d="M0 0 C4 1 4 1 4 1 Z " fill="#D2D2D2" transform="translate(99,111)"/>
<path d="M0 0 C4 1 4 1 4 1 Z " fill="#D2D2D2" transform="translate(217,110)"/>
<path d="M0 0 C4 1 4 1 4 1 Z " fill="#D2D2D2" transform="translate(104,110)"/>
<path d="M0 0 C3 1 3 1 3 1 Z " fill="#D2D2D2" transform="translate(227,128)"/>
<path d="M0 0 C3 1 3 1 3 1 Z " fill="#D2D2D2" transform="translate(95,128)"/>
<path d="M0 0 C3 1 3 1 3 1 Z " fill="#D2D2D2" transform="translate(233,126)"/>
<path d="" fill="#D2D2D2" transform="translate(0,0)"/>
<path d="M0 0 C3 1 3 1 3 1 Z " fill="#D2D2D2" transform="translate(232,114)"/>
<path d="M0 0 C3 1 3 1 3 1 Z " fill="#D2D2D2" transform="translate(90,114)"/>
<path d="M0 0 C3 1 3 1 3 1 Z " fill="#D2D2D2" transform="translate(229,113)"/>
<path d="M0 0 C3 1 3 1 3 1 Z " fill="#D2D2D2" transform="translate(93,113)"/>
<path d="M0 0 C3 1 3 1 3 1 Z " fill="#D2D2D2" transform="translate(226,112)"/>
<path d="M0 0 C3 1 3 1 3 1 Z " fill="#D2D2D2" transform="translate(96,112)"/>
<path d="M0 0 C2 1 2 1 2 1 Z " fill="#D2D2D2" transform="translate(231,127)"/>
<path d="M0 0 C2 1 2 1 2 1 Z " fill="#D2D2D2" transform="translate(92,127)"/>
<path d="M0 0 C2 1 2 1 2 1 Z " fill="#D2D2D2" transform="translate(90,126)"/>
<path d="M0 0 C2 1 2 1 2 1 Z " fill="#D2D2D2" transform="translate(88,125)"/>
<path d="M0 0 C2 1 2 1 2 1 Z " fill="#D2D2D2" transform="translate(86,124)"/>
<path d="M0 0 C2 1 2 1 2 1 Z " fill="#D2D2D2" transform="translate(235,115)"/>
<path d="M0 0 C2 1 2 1 2 1 Z " fill="#D2D2D2" transform="translate(88,115)"/>
<path d="" fill="#D2D2D2" transform="translate(0,0)"/>
<path d="" fill="#D2D2D2" transform="translate(0,0)"/>
<path d="" fill="#D2D2D2" transform="translate(0,0)"/>
<path d="" fill="#D2D2D2" transform="translate(0,0)"/>
<path d="" fill="#D2D2D2" transform="translate(0,0)"/>
<path d="" fill="#D2D2D2" transform="translate(0,0)"/>
<path d="" fill="#D2D2D2" transform="translate(0,0)"/>
<path d="" fill="#D2D2D2" transform="translate(0,0)"/>
<path d="" fill="#D2D2D2" transform="translate(0,0)"/>
<path d="" fill="#D2D2D2" transform="translate(0,0)"/>
<path d="" fill="#D2D2D2" transform="translate(0,0)"/>
<path d="" fill="#D2D2D2" transform="translate(0,0)"/>
</svg>
