<svg version="1.2" xmlns="http://www.w3.org/2000/svg" viewBox="0 0 344 360" width="344" height="360"><style>.a{fill:#adadad}.b{fill:#a5a5a5}.c{fill:#a1a1a1}.d{fill:#9d9d9d}.e{fill:#d0d0d0}.f{fill:#d2d2d2}.g{fill:#d4d4d4}.h{fill:#929292}.i{fill:#999}.j{fill:#cfcfcf}.k{fill:#d3d3d3}.l{fill:#cdcdcd}.m{fill:#8b8b8b}.n{fill:#828282}.o{fill:#c8c8c8}.p{fill:#808080}.q{fill:#b9b9b9}.r{fill:#fff}.s{fill:#c2c2c2}.t{fill:#c1c1c1}.u{fill:#bbb}.v{fill:#cbcbcb}.w{fill:#aaa}.x{fill:#727272}.y{fill:#c0c0c0}.z{fill:#bdbdbd}.A{fill:#787878}.B{fill:#737373}.C{fill:#b1b1b1}.D{fill:#acacac}.E{fill:#bcbcbc}.F{fill:#6f6f6f}.G{fill:#5f5f5f}.H{fill:#c3c3c3}.I{fill:#6c6c6c}.J{fill:#666}.K{fill:#afafaf}.L{fill:#bebebe}.M{fill:#646464}.N{fill:#cacaca}.O{fill:#747474}.P{fill:#b3b3b3}.Q{fill:#c6c6c6}.R{fill:#a3a3a3}.S{fill:#a9a9a9}.T{fill:#555}.U{fill:#626262}.V{fill:#a7a7a7}.W{fill:#a0a0a0}.X{fill:#969696}.Y{fill:#6d6d6d}.Z{fill:#9c9c9c}.a0{fill:#8c8c8c}.a1{fill:#d1d1d1}.a2{fill:#9f9f9f}.a3{fill:#8e8e8e}.a4{fill:#c9c9c9}.a5{fill:#b0b0b0}.a6{fill:#a2a2a2}.a7{fill:#c5c5c5}.a8{fill:#5e5e5e}.a9{fill:#3b3b3b}.aa{fill:#959595}.ab{fill:#4d4d4d}.ac{fill:#7d7d7d}.ad{fill:#bababa}.ae{fill:#ababab}.af{fill:#8d8d8d}.ag{fill:#4f4f4f}.ah{fill:#878787}.ai{fill:#565656}.aj{fill:#aeaeae}.ak{fill:#545454}.al{fill:#8a8a8a}.am{fill:#7b7b7b}.an{fill:#868686}.ao{fill:#474747}.ap{fill:#505050}.aq{fill:#b8b8b8}.ar{fill:#b2b2b2}.as{fill:#a6a6a6}.at{fill:#b4b4b4}.au{fill:#464646}.av{fill:#b7b7b7}.aw{fill:#e4e4e4}.ax{fill:#b6b6b6}.ay{fill:#ccc}.az{fill:#383838}.aA{fill:#313131}.aB{fill:#373737}.aC{fill:#7c7c7c}.aD{fill:#3d3d3d}.aE{fill:#898989}.aF{fill:#4e4e4e}.aG{fill:#9b9b9b}.aH{fill:#4a4a4a}.aI{fill:#9e9e9e}.aJ{fill:#7a7a7a}.aK{fill:#3e3e3e}.aL{fill:#494949}.aM{fill:#989898}.aN{fill:#434343}.aO{fill:#c4c4c4}.aP{fill:#a8a8a8}.aQ{fill:#c7c7c7}.aR{fill:#bfbfbf}.aS{fill:#2b2b2b}.aT{fill:#818181}.aU{fill:#757575}.aV{fill:#919191}.aW{fill:#7f7f7f}.aX{fill:#262626}.aY{fill:#454545}.aZ{fill:#6e6e6e}.b0{fill:#888}.b1{fill:#404040}.b2{fill:#949494}.b3{fill:#8f8f8f}.b4{fill:#3c3c3c}.b5{fill:#838383}.b6{fill:#858585}.b7{fill:#939393}.b8{fill:#767676}.b9{fill:#1a1a1a}.ba{fill:#303030}.bb{fill:#363636}.bc{fill:#777}.bd{fill:#717171}.be{fill:#2a2a2a}.bf{fill:#282828}.bg{fill:#686868}.bh{fill:#a4a4a4}.bi{fill:#1d1d1d}.bj{fill:#2f2f2f}.bk{fill:#212121}.bl{fill:#2e2e2e}.bm{fill:#9a9a9a}.bn{fill:#101010}.bo{fill:#1f1f1f}.bp{fill:#979797}.bq{fill:#272727}.br{fill:#f3f3f3}.bs{fill:#606060}.bt{fill:#1c1c1c}.bu{fill:#2c2c2c}.bv{fill:#171717}.bw{fill:#515151}.bx{fill:#292929}.by{fill:#151515}.bz{fill:#131313}.bA{fill:#1e1e1e}.bB{fill:#6b6b6b}.bC{fill:#fdfdfd}.bD{fill:#595959}.bE{fill:#222}.bF{fill:#0a0a0a}.bG{fill:#5a5a5a}.bH{fill:#585858}.bI{fill:#0b0b0b}.bJ{fill:#fcfcfc}.bK{fill:#676767}.bL{fill:#707070}.bM{fill:#050505}.bN{fill:#535353}.bO{fill:#6a6a6a}.bP{fill:#1b1b1b}.bQ{fill:#525252}.bR{fill:#0c0c0c}.bS{fill:#575757}.bT{fill:#161616}.bU{fill:#656565}.bV{fill:#fbfbfb}.bW{fill:#4b4b4b}.bX{fill:#909090}.bY{fill:#484848}.bZ{fill:#616161}.c0{fill:#070707}.c1{fill:#0f0f0f}.c2{fill:#5b5b5b}.c3{fill:#020202}.c4{fill:#5d5d5d}.c5{fill:#424242}.c6{fill:#3a3a3a}.c7{fill:#2d2d2d}.c8{fill:#b5b5b5}.c9{fill:#323232}.ca{fill:#333}.cb{fill:#636363}.cc{fill:#444}.cd{fill:#cecece}.ce{fill:#353535}.cf{fill:#4c4c4c}.cg{fill:#797979}.ch{fill:#696969}.ci{fill:#343434}.cj{fill:#7e7e7e}.ck{fill:#3f3f3f}</style><path class="a" d="m212 41c2.2 1.2 3.4 2.1 5 4 1.3-1 2.7-1.8 3.6-3.1 1.8-2.7 2.2-8-2.6-6.9-3.2 0.6-4.8 3.4-6 6z"/><path class="b" d="m167 50c2 1.2 3.4 2.4 5 4 3.8-5.8 5.7-7.8 13-7l-1 3c1.9-1.6 1.9-3.8 3-6-5.3-11.9-17.8-3.1-20 6z"/><path class="c" d="m211.1 41.4c-4.2 1.3-4.3 8.8 0.9 7.6 5.5-1.2 4.7-9.3-0.9-7.6z"/><path class="d" d="m186 41c0 1.8 0 1.5 1 3-1.7 1.7-1.7 4-3 6 1-1.5 1-1.2 1-3-3 2.6-1.6 6.9 0.7 9.9 3.6 4.8 9.7 5.6 15.3 5 2.9-0.3 7.2-2.9 4.2-6.2-3.5-3.8-9.9 0-13.3-4.8-2.4-3.5-2.6-7-5.9-9.9z"/><path class="e" d="m181 46l1 1z"/><path class="f" d="m167 47l1 1z"/><path class="g" d="m182 47l1 1z"/><path class="h" d="m174 48c-0.5 2.1-1.1 4-2 6-1.5-2.2-2.5-3-5-4v16c-9.7 0-16.5 0.9-20 11 1.2 2.3 1.2 4.4 1 7 3.3-2.4 5.6-5.9 5-10 10.4-1.8 24.6-3.2 34 2 2-3.5 3.4-3.8 7-2-3.8-7.9-11.2-8-19-8 0-5.6 1.2-12.8-1-18z"/><path class="i" d="m218.2 54.7c-3 1.5-3 5.1 0 6.6 3.2 1.4 10.4 1.4 13.6 0 3-1.5 3-5.1 0-6.6-3.2-1.4-10.4-1.4-13.6 0z"/><path class="j" d="m215 56l1 1z"/><path class="k" d="m189 60l1 1z"/><path class="l" d="m185 66l1 1z"/><path class="m" d="m210.2 67c-2.9 0.7-2.6 4-1.4 6 1.7 3.1 6.9 9 11 8 2.9-0.7 2.8-3.9 1.6-6-1.8-3-7.1-9-11.2-8z"/><path class="n" d="m186 85c-10.3-2.9-20.6-4.1-31-1 0-3.6 2.1-9.1-2-10-0.1 4.1-2.3 7.1-5 10l1-7c-2.2 1.9-1.5 4.3-3 6.7-2 3.1-6.7 3.6-10 4.3 0.7 1.3 0.1 1 2 1-1.5 1-1.2 1-3 1 1.6 2.2 0.2 2.4 3 3-1.5 1-1.2 1-3 1 1.4 0.9 2.4 1.4 4 2 4.3-4.1 10.4-3.5 16-4.8 15.7-3.7 29.7-1.1 45 3.5 2.7 0.8 6 0.6 8.5 1.7 2.4 1 4.3 3.3 6.5 4.6 1.9-1.5 3.6-1.2 6-1l-1-2 4 2c-0.7-3.3-2.9-3.4-6-4l1-2c-4.4-1.8-8.6-3.9-13-5.6-2.7-1-6.3-1.5-8.7-3.3-3.1-2.5-1.7-6.8-3.5-10-1.4-2.5-4.5-4-6.1-0.9-1.4 3-1.1 7.5-1.7 10.8z"/><path class="e" d="m207 71l1 1z"/><path class="o" d="m148 72l1 1z"/><path class="p" d="m156 73c7.6 3.2 19.7 1 28 1-5.3-2.2-12.3-0.9-18-1-3.4-0.1-6.7-0.8-10 0z"/><path class="q" d="m156 74l1 1z"/><path class="r" d="m155 83h32c-0.1-11.5-10.1-9-19-9-3.3 0-8.8-1-11.4 1.6-1.9 1.9-1.6 5-1.6 7.4z"/><path class="s" d="m147 75l1 1z"/><path class="t" d="m194 75l1 1z"/><path class="u" d="m222 79l1 1z"/><path class="v" d="m217 81l1 1z"/><path class="e" d="m220 81l1 1z"/><path class="s" d="m162 82c1.2 0.7 1.5 0.7 3 1-1.2-0.7-1.5-0.7-3-1z"/><path class="w" d="m176 82c1.2 0.7 1.5 0.7 3 1-1.2-0.7-1.5-0.7-3-1z"/><path class="t" d="m155 83l1 1z"/><path class="x" d="m180 83c2 1.1 3.8 1.5 6 2-1.7-2-3.4-1.9-6-2z"/><path class="y" d="m145 85l1 1z"/><path class="z" d="m196 85l1 1z"/><path class="w" d="m142 86l1 1z"/><path class="z" d="m133 89l1 1z"/><path class="A" d="m138 96c-1.2-0.7-1.5-0.7-3-1 1.5-1 1.2-1 3-1-1.6-2.2-0.2-2.4-3-3 1.5-1 1.2-1 3-1-5.7-2-20.2 4.8-22.9 10.2-2.9 5.6 5.3 4.3 7.9 3.1 1.7-0.8 3.3-1.7 5-2.5 3.3-1.7 6.6-3.4 10-4.8z"/><path class="B" d="m160 89c5.5 2.3 13.1 1 19 1-5.5-2.3-13.1-1-19-1z"/><path class="v" d="m208 89l1 1z"/><path class="C" d="m158.7 90.3c-0.5 0.5 0.6 0.4 0.6 0.4 0.5-0.5-0.6-0.4-0.6-0.4z"/><path class="D" d="m181 90c1.2 0.7 1.5 0.7 3 1-1.2-0.7-1.5-0.7-3-1z"/><path class="E" d="m153 91l1 1z"/><path class="u" d="m188 91l1 1z"/><path class="F" d="m139 94c2.9 0.8 5.2-0.1 8-1-2.9-0.8-5.2 0.1-8 1z"/><path class="j" d="m192 92l1 1z"/><path class="G" d="m208 92l1 1z"/><path class="f" d="m145 93l1 1z"/><path class="H" d="m196 93l1 1z"/><path class="g" d="m202 95l1 1z"/><path class="I" d="m206 96c1.9 1.6 3.6 2.3 6 3-2-2.3-2.9-2.9-6-3z"/><path class="J" d="m218.7 95.3c-0.5 0.5 0.6 0.4 0.6 0.4 0.5-0.5-0.6-0.4-0.6-0.4z"/><path class="w" d="m220 95l1 1z"/><path class="K" d="m119 96l1 1z"/><path class="L" d="m136 96l1 1z"/><path class="w" d="m205 96l1 1z"/><path class="M" d="m220.7 96.3c-0.5 0.5 0.6 0.4 0.6 0.4 0.5-0.5-0.6-0.4-0.6-0.4z"/><path class="N" d="m222 96l1 1z"/><path class="O" d="m220 98l1 2-6-1c3.6 6.4 14.7 13.6 22 14-0.2-1.7-0.5-1.5 1-2-3-2.9-8.9-14.7-14-11-1.5-1-2.3-1.4-4-2z"/><path class="w" d="m225 98l1 1z"/><path class="P" d="m228 100l1 1z"/><path class="l" d="m124 102l1 1z"/><path class="Q" d="m217 102l1 1z"/><path class="R" d="m122 103l1 1z"/><path class="c" d="m219 103l1 1z"/><path class="S" d="m232 103l1 1z"/><path class="w" d="m116 105l1 1z"/><path class="T" d="m117.7 105.3c-0.5 0.5 0.6 0.4 0.6 0.4 0.5-0.5-0.6-0.4-0.6-0.4z"/><path class="N" d="m119 105l1 1z"/><path class="c" d="m222 105l1 1z"/><path class="U" d="m234 105c0.6 2.9 1.1 4 4 5-1 1.5-1 1.3-1 3h-4c5.2 7.2 11.6 13.1 16 21 2.1 0.2 1.9 0.2 3 2 1.1-1.9 1.2-2.7 1-5l3-1c-5.4-9.6-12.9-18.7-22-25z"/><path class="o" d="m237 107l1 1z"/><path class="V" d="m226 108l1 1zm12 0l1 1z"/><path class="w" d="m239 109l1 1z"/><path class="W" d="m102.7 110.3c-0.5 0.5 0.6 0.4 0.6 0.4 0.5-0.5-0.6-0.4-0.6-0.4z"/><path class="X" d="m240 110l1 1z"/><path class="Y" d="m95 123c2-1.2 2.3-1.7 3-4 1 1.5 0.8 1.4 2 2 1.8-2.3 3-3.6 6-4 0.3-3.7-2.3-7.8-6.3-4.4-2.6 2.2-3.4 7.3-4.7 10.4z"/><path class="Z" d="m105 111l1 1z"/><path class="a0" d="m99 112l1 1z"/><path class="a1" d="m106 112l1 1z"/><path class="a2" d="m231 112l1 1z"/><path class="b" d="m242 112l1 1z"/><path class="a3" d="m98 113l1 1z"/><path class="a4" d="m232 113l1 1z"/><path class="a5" d="m243 113l1 1z"/><path class="W" d="m97 114l1 1z"/><path class="a1" d="m233 114l1 1z"/><path class="R" d="m244 114l1 1z"/><path class="C" d="m96 115l1 1z"/><path class="a6" d="m106 115l1 1z"/><path class="a7" d="m234 115l1 1z"/><path class="a4" d="m95 116l1 1z"/><path class="a8" d="m96 116c-5.1 5.6-12.4 12.9-11 21 1.6 0.2 1.6 0.1 3 1 6.2-6.4 13.4-13.8 17-22-2.6 1.4-3.7 2.4-5 5l-1-2-4 4c1.5-2.7 2.5-4.3 1-7z"/><path class="a9" d="m238 118l1 1z"/><path class="N" d="m102 120l1 1z"/><path class="L" d="m239 120l1 1z"/><path class="q" d="m91 121l1 1z"/><path class="b" d="m101 121l1 1z"/><path class="R" d="m240 121l1 1z"/><path class="k" d="m250 121l1 1z"/><path class="i" d="m252 124l1 1z"/><path class="N" d="m97 126l1 1z"/><path class="aa" d="m164.7 126.3c-0.5 0.5 0.6 0.4 0.6 0.4 0.5-0.5-0.6-0.4-0.6-0.4z"/><path class="G" d="m153 131c1.2 0.7 1.5 0.7 3 1-1.5 1-1.2 1-3 1 2 0.8 2.6 0.7 4-1 6.3 1.5 12.8 0.1 19 1.5 5.5 1.2 11.4 4.7 17 5 3.2 0.1 4.2-1.8 5-4.5l-7-1c1-1.2 1.3-1.6 2-3-12.9-3-28-6.6-40 1z"/><path class="ab" d="m169 126c1.5 0.7 2.3 0.8 4 1-1.5-0.7-2.3-0.8-4-1z"/><path class="ac" d="m174.7 126.3c-0.5 0.5 0.6 0.4 0.6 0.4 0.5-0.5-0.6-0.4-0.6-0.4z"/><path class="ad" d="m176.7 126.3c-0.5 0.5 0.6 0.4 0.6 0.4 0.5-0.5-0.6-0.4-0.6-0.4z"/><path class="ae" d="m244 126l1 1z"/><path class="N" d="m158 127l1 1z"/><path class="af" d="m159 127l1 1z"/><path class="ag" d="m160 127c1.8 0.8 3 0.9 5 1-1.8-0.8-3-0.9-5-1z"/><path class="z" d="m183 127l1 1z"/><path class="h" d="m254 127l1 1z"/><path class="ah" d="m155 128l1 1z"/><path class="ai" d="m136 141c-2.7 0.6-2.8 1.3-3 4 1.7-0.2 1.5-0.5 2 1 2.6-0.9 5.5-1.4 7.8-3 2.2-1.7 3.7-4.2 6.3-5.3 4.3-1.8 9.4-2 13.9-3.7-2-1.1-3.8-1.5-6-2-1.5 1.3-2 1.5-4 2 1.5-1 1.2-1 3-1-1.2-0.7-1.5-0.7-3-1l3-2c-5.9-2-18.9 5-20 11z"/><path class="h" d="m85 130l1 1z"/><path class="W" d="m94 130l1 1z"/><path class="aj" d="m149 130l1 1z"/><path class="ak" d="m254 130l-1 1v5l-2-3c-0.9 5.4 4.2 11.6 7 16l2-1c1.2 2.9 2.6 4.9 5 7-0.5-8.2-3.2-20.9-11-25z"/><path class="a5" d="m256 130l1 1z"/><path class="al" d="m147 131l1 1z"/><path class="ag" d="m191 132c2.3 1.2 4.4 1.7 7 2-2.4-1.8-4-2.2-7-2z"/><path class="n" d="m194 131l1 1z"/><path class="am" d="m145 132l1 1z"/><path class="n" d="m196 132l1 1z"/><path class="an" d="m143 133l1 1z"/><path class="ao" d="m163 133c4.5 1.9 10.2 1 15 1-4.5-1.9-10.2-1-15-1z"/><path class="m" d="m198 133l1 1z"/><path class="ak" d="m83 134c-2.4 5.7-5 11.2-7 17 1.4 1.4 2 2.2 3 4l-2-1c0 1.8 0 1.5 1 3 3.8-3.8 3.9-9.2 8-13l-1-3c1.2 1.2 1.6 1.5 3 2l3-8c-1.8 1-1.6 0.9-2 3-1.9-1.4-1.7-1.4-4-1-0.7-1.6-0.8-1.8-2-3z"/><path class="ad" d="m141 134l1 1z"/><path class="m" d="m162 134l1 1z"/><path class="L" d="m163 134l1 1z"/><path class="r" d="m140 146c9.4-3 17.6-8.2 28-7.6 24.2 1.2 46.6 21.5 46.7 46.6 0 10.2-4.5 18.6-7.7 28 16.7-13.9 14.7-44.1 2.5-60-12-15.5-32.6-22.6-51.5-17.3-6.6 1.9-13.6 5-18 10.3z"/><path class="ad" d="m178 134l1 1z"/><path class="ap" d="m198 134c-1.1 2.4-2 3.4-4 5 4.7 4.5 10.2 7.6 14 13 3.1 0.4 6.7 8.2 9 11l2-3 1 3c0.6-1.8 0.5-2.1 0-4h2c-4.7-10-13.1-21.5-24-25z"/><path class="aq" d="m200 134l1 1z"/><path class="j" d="m82 135l1 1z"/><path class="z" d="m91 135l1 1z"/><path class="c" d="m158 135l1 1z"/><path class="ar" d="m183 135l1 1z"/><path class="as" d="m250 135l1 1z"/><path class="E" d="m138 136l1 1z"/><path class="L" d="m155 136l1 1z"/><path class="at" d="m186 136l1 1z"/><path class="q" d="m203 136l1 1z"/><path class="at" d="m81 137l1 1z"/><path class="au" d="m146 140l6-2c-2.8-1-4.3-0.4-6 2z"/><path class="d" d="m152 137l1 1z"/><path class="a0" d="m189 137l1 1z"/><path class="e" d="m260 137l1 1z"/><path class="av" d="m150 138l1 1z"/><path class="aw" d="m164 138.4c-9.1 1.2-18.5 3.4-26 9.1-20.4 15.5-18.4 50.3-1.9 67.5 11.6 12 27.7 16.2 43.9 13.8 4.7-0.7 9.8-2.4 14-4.7 41.1-22.5 15.4-91.3-30-85.7z"/><path class="ax" d="m191 138l1 1z"/><path class="ay" d="m80 139l1 1z"/><path class="u" d="m148 139l1 1z"/><path class="at" d="m193 139l1 1z"/><path class="u" d="m133 140l1 1z"/><path class="az" d="m134.7 140.3c-0.5 0.5 0.6 0.4 0.6 0.4 0.5-0.5-0.6-0.4-0.6-0.4z"/><path class="aA" d="m145 140l1 1z"/><path class="al" d="m146 140l1 1z"/><path class="af" d="m195 140l1 1z"/><path class="ad" d="m208 140l1 1z"/><path class="au" d="m85 141c0 1.8 0 1.5 1 3-4.7 2.9-5.1 8.2-7 13-1.2-1.2-1.5-1.6-2-3l2 1-1-4h-2c-1.3 4.7-2.5 9.1-2 14 1.7-0.2 1.5-0.5 2 1 6.1-2.9 6.3-9.1 8.3-15 1.3-3.7 3-6.6 0.7-10z"/><path class="C" d="m132 141l1 1z"/><path class="a" d="m209 141l1 1z"/><path class="d" d="m131 142l1 1z"/><path class="aB" d="m132 142c-1.8 2-2.9 3.6-4 6 2.3-1.8 4.1-3 4-6z"/><path class="ar" d="m143 142l1 1z"/><path class="S" d="m198 142l1 1z"/><path class="a6" d="m210 142l1 1z"/><path class="aC" d="m262 142l1 1z"/><path class="aj" d="m130 143l1 1z"/><path class="D" d="m211 143l1 1z"/><path class="aD" d="m262.3 143.7c0 0-0.1 1.1 0.4 0.6 0 0 0.1-1.1-0.4-0.6z"/><path class="aE" d="m78 144l1 1z"/><path class="a7" d="m129 144l1 1z"/><path class="aF" d="m127 147l-2 6c1 2.1 1 3.6 1 6 5.5-3.3 9.5-8.7 13-14l-1-1c-1.4 0.5-1.8 0.8-3 2-1.9-3.5-5.1 0.6-8 1z"/><path class="E" d="m212 144l1 1z"/><path class="aG" d="m263 144l1 1z"/><path class="g" d="m86 145l1 1z"/><path class="aE" d="m139 145l1 1z"/><path class="af" d="m202 145l1 1z"/><path class="t" d="m255 145l1 1z"/><path class="f" d="m77 146l1 1z"/><path class="Z" d="m138 146l1 1z"/><path class="ah" d="m149 146l1 1z"/><path class="aH" d="m153 153c1 2.2 0.7 2 3 2-1.5 4.1-3.1 7.9-8 8 0.6 1.7 1.1 4.3 3.1 5 2 0.7 3.7-0.8 1.9-2 2.3 0 2-0.2 3 2 9.4-4.6 8.6-20.1-3-21.5-6.4-0.8-6.7 6.8 0 6.5z"/><path class="Z" d="m154 146l1 1z"/><path class="d" d="m203 146l1 1z"/><path class="aI" d="m85 147l1 1z"/><path class="K" d="m137 147l1 1z"/><path class="aJ" d="m156 147l1 1z"/><path class="w" d="m204 147l1 1z"/><path class="ah" d="m256 147l1 1z"/><path class="aK" d="m257 147c1.6 10.7 6.7 21 7 32 0.7-1.2 0.7-1.5 1-3l1 4c4-7.1 2.9-14.2 2-22-7.4 2-7.6-6.7-11-11z"/><path class="X" d="m136 148l1 1z"/><path class="K" d="m158 148l1 1zm47 0l1 1z"/><path class="aC" d="m215 148l1 1z"/><path class="aL" d="m259 148c0.8 6 2 9.9 8 12 0.4-4.2-0.9-7.9-2-12-0.7 2.4-0.3 4.5 0 7-2-2.4-3.7-4.9-6-7z"/><path class="C" d="m76 149l1 1z"/><path class="a" d="m125 149l1 1z"/><path class="a0" d="m135 149l1 1z"/><path class="as" d="m159 149l1 1z"/><path class="aM" d="m206 149l1 1z"/><path class="Q" d="m216 149l1 1z"/><path class="z" d="m265 149l1 1z"/><path class="ay" d="m84 150l1 1z"/><path class="aN" d="m125 150c-3.4 5.8-8.9 13.4-5 20l3-3-1-4c4.8 1.7 5.8-1.8 7-6-1.4 0.5-1.8 0.8-3 2 0.3-2.5 0.8-4.2-1-6 0.4-1.7 0.5-1.5 0-3z"/><path class="w" d="m160 150l1 1z"/><path class="am" d="m207 150l1 1z"/><path class="aO" d="m257 150l1 1z"/><path class="r" d="m146 151c-1.5 1-2.3 1.4-4 2 2.5 2.1 5.1 7.5 8.1 8.2 2.9 0.8 5.2-2.3 3.8-4.9-1.3-2.5-5.5-4-7.9-5.3z"/><path class="aP" d="m147 151l1 1z"/><path class="az" d="m209 151c0.7 1.6 0.8 1.8 2 3-0.7-1.6-0.8-1.8-2-3z"/><path class="at" d="m75 152l1 1zm48 0l1 1z"/><path class="aQ" d="m218 152l1 1z"/><path class="aR" d="m266 152l1 1z"/><path class="aQ" d="m83 153l1 1z"/><path class="S" d="m132 153l1 1z"/><path class="X" d="m149 153l1 1z"/><path class="aS" d="m151.7 153.3c-0.5 0.5 0.6 0.4 0.6 0.4 0.5-0.5-0.6-0.4-0.6-0.4z"/><path class="o" d="m258 153l1 1z"/><path class="O" d="m266 153l1 1z"/><path class="aT" d="m122 154l1 1z"/><path class="aC" d="m131 154l1 1z"/><path class="B" d="m141 154l1 1z"/><path class="au" d="m139 161c2.1 0.9 2.1 0.9 3 3 1.7-1 3.1-1.5 5-2-0.7-2.4-1.1-4.5-1-7-4.8-0.6-6.5 1.3-7 6z"/><path class="a2" d="m144 154l1 1z"/><path class="aG" d="m162 154l1 1z"/><path class="aU" d="m183.7 154.3c-0.5 0.5 0.6 0.4 0.6 0.4 0.5-0.5-0.6-0.4-0.6-0.4z"/><path class="ak" d="m185 154c1.5 0.7 2.3 0.8 4 1-1.5-0.7-2.3-0.8-4-1z"/><path class="X" d="m189 154l1 1z"/><path class="aV" d="m210 154l1 1z"/><path class="aW" d="m219 154l1 1z"/><path class="aX" d="m155.3 155.7c0 0-0.1 1.1 0.4 0.6 0 0 0.1-1.1-0.4-0.6z"/><path class="aY" d="m173 163l7 2c0-2.1 0-2 2-3 6.1-3 7.1 2.7 12.3 4.5 1.9 0.6 1.9-0.8 3.7 0.5 0.8-9.2-7.5-14-16-11.5-4 1.2-6.7 4.3-9 7.5z"/><path class="h" d="m192 155l1 1z"/><path class="an" d="m74 156l1 1z"/><path class="aR" d="m82 156l1 1z"/><path class="aZ" d="m121 156l1 1z"/><path class="ad" d="m130 156l1 1z"/><path class="A" d="m139 156l1 1z"/><path class="b0" d="m146 156l1 1z"/><path class="ah" d="m179 156l1 1z"/><path class="S" d="m259 156l1 1z"/><path class="a0" d="m267 156l1 1z"/><path class="aJ" d="m129 157l1 1z"/><path class="a9" d="m145 157l2 5c-2.1 0.3-2.7 0.4-4 2-1.1-1.7-1.3-2.1-3-3 1.4 5.4 7.8 11.2 13.9 8.5 3.3-1.5 1.6-4-0.9-4.5 0.6 1.2 0.5 1 2 2-4.1 0.9-5-0.5-7-4 1.8 0.2 3.2 0.2 5 0-3.1-1.7-5.2-4-8-6z"/><path class="aU" d="m212 157l1 1z"/><path class="O" d="m120 158l1 1z"/><path class="ac" d="m128 159l1 1z"/><path class="ax" d="m213 159l1 1z"/><path class="b1" d="m220 159l1 4-2-3c-0.7 1.2-0.7 1.5-1 3-1.2-1-1.6-1.3-3-2 1.3 5.4 5.2 9.7 6 15 0.7-1.5 0.8-2.3 1-4 1 1.5 1 1.2 1 3l3-4c-0.9-1.9-1.1-2.9-1-5-1.9-2.4-2.4-5.2-5-7z"/><path class="b2" d="m73 160l1 1z"/><path class="a7" d="m81 160l1 1z"/><path class="b3" d="m119 160l1 1z"/><path class="Z" d="m162.3 160.7c0 0-0.1 1.1 0.4 0.6 0 0 0.1-1.1-0.4-0.6z"/><path class="b4" d="m180 165c-8.6-2.7-12.1 2-18 8-2.3 2.3-7 6-4 9-0.4 1.9-0.4 2.1 0 4h2c4.9-5.6 10.6-10 16-15.1 4.1-3.8 7.2-8 13-8.9-3.6-1.8-8.1-1.3-9 3z"/><path class="b5" d="m197 160l1 1z"/><path class="b6" d="m222 160l1 1z"/><path class="H" d="m260 160l1 1z"/><path class="aa" d="m268 160l1 1z"/><path class="ah" d="m127 161l1 1z"/><path class="b7" d="m139 161l1 1z"/><path class="b8" d="m148 161l1 1z"/><path class="d" d="m214 161l1 1z"/><path class="b9" d="m73.3 162.7c0 0-0.1 1.1 0.4 0.6 0 0 0.1-1.1-0.4-0.6z"/><path class="e" d="m118 162l1 1z"/><path class="D" d="m184 162l1 1z"/><path class="r" d="m185 162.8c-4 1.2-7.2 5.4-10 8.2-6.7 6.9-14.2 13.5-20.5 20.8-2.3 2.8-5.3 10.5 1.5 9.6 4-0.5 7.3-4.7 10-7.4 7.4-7.3 16.5-14.5 22.6-23 2.4-3.4 2.4-10-3.6-8.2z"/><path class="C" d="m198 162l1 1z"/><path class="ba" d="m268 162v4c0.7-1.8 0.7-2.2 0-4z"/><path class="bb" d="m122 163l1 4c-1.9 0.9-2 1.1-3 3-1.1-1.7-1.3-2.1-3-3-1.1 8.9-1.1 16.1 0 25 6.9-6.1 7.2-19.3 9-28-1.6-0.1-2.5-0.4-4-1z"/><path class="x" d="m140 163l1 1z"/><path class="bc" d="m161 163l1 1z"/><path class="aW" d="m198 163l1 1z"/><path class="am" d="m215 163l1 1z"/><path class="bd" d="m223 163l1 1z"/><path class="aB" d="m73 164c-1.6 6.7-2 13.4 0 20 0.7-1.2 0.7-1.5 1-3 1.1 3.4 1.1 6.8 4 9 0-8.9 1.8-17.3 2-26l-4 2c-0.8-1.6-1.2-1.6-3-2z"/><path class="b7" d="m80 164l1 1z"/><path class="aq" d="m126 164l1 1z"/><path class="l" d="m161 164l1 1z"/><path class="be" d="m223.3 164.7c0 0-0.1 1.1 0.4 0.6 0 0 0.1-1.1-0.4-0.6z"/><path class="n" d="m261 164l1 1z"/><path class="b2" d="m72 165l1 1z"/><path class="C" d="m141 165l1 1z"/><path class="S" d="m160 165l1 1z"/><path class="bf" d="m191 165v4c0.7-1.8 0.7-2.2 0-4z"/><path class="aD" d="m192 165c-0.9 3.8-3 6.7-5 10 1.7 0.9 3.1 1.5 5 2v-4l1 4c2.9-2.4 4-4.2 4-8 1.6-1.3 1.7-1.9 2-4-1.2 0.6-1 0.5-2 2v-2c-1.3 0.7-1 0.1-1 2z"/><path class="v" d="m261 165l1 1z"/><path class="aP" d="m269 165l1 1z"/><path class="bg" d="m117 166l1 1z"/><path class="b6" d="m125 166l1 1z"/><path class="aE" d="m142 166l1 1z"/><path class="aj" d="m159 166l1 1z"/><path class="D" d="m216 166l1 1z"/><path class="bd" d="m269 166l1 1z"/><path class="bh" d="m143 167l1 1z"/><path class="bi" d="m224 167v3c0.7-1.6 0.7-1.4 0-3z"/><path class="A" d="m145 168l1 1z"/><path class="aU" d="m156 168l1 1z"/><path class="a" d="m190 168l1 1z"/><path class="bj" d="m269 168l-2 12-1-4c-3.1 5.2-3.1 14.8 0 20 1-1.5 1-1.2 1-3 0.8 2.4 0.5 3.5-1 6l-1-1c0 1.8 0 1.5 1 3l4-4c-0.8-3.4-1-6.5-1-10l2 1c-0.4-6.5 0.6-14-2-20z"/><path class="t" d="m116 169l1 1z"/><path class="i" d="m147 169l1 1z"/><path class="aG" d="m154 169l1 1z"/><path class="bk" d="m197.3 169.7c0 0-0.1 1.1 0.4 0.6 0 0 0.1-1.1-0.4-0.6z"/><path class="af" d="m198 169l1 1z"/><path class="al" d="m217 169l1 1z"/><path class="a7" d="m225 169l1 1z"/><path class="p" d="m79 170l1 1z"/><path class="M" d="m116 170l1 1z"/><path class="a6" d="m124 170l1 1z"/><path class="bl" d="m189 170c-6.7 6.7-18.4 14.7-21 24 1.9 1 3.8 2.3 6 1.7 2.8-0.9 5-3.7 7-5.7 5-5 11.4-9.5 12-17-0.7 1.5-0.8 2.3-1 4l-5-2c1.4-2 2.2-2.7 2-5z"/><path class="bb" d="m218 170l2 12 6 1c0.6-4.1 0.1-7.9 0-12-1.1 1.5-1.4 2.2-2 4-1-1.5-1-1.2-1-3-0.7 1.5-0.8 2.3-1 4-1-2.7-1.6-4.3-4-6z"/><path class="bd" d="m262 170l1 1z"/><path class="f" d="m79.3 171.7c0 0-0.1 1.1 0.4 0.6 0 0 0.1-1.1-0.4-0.6z"/><path class="aI" d="m262 171l1 1z"/><path class="bm" d="m71.3 172.7c0 0-0.1 1.1 0.4 0.6 0 0 0.1-1.1-0.4-0.6z"/><path class="bn" d="m78 172v20c2.1-5 2.1-15 0-20z"/><path class="ar" d="m197 172l1 1z"/><path class="bo" d="m263 172c0 8.2 0.7 16.9-0.8 25-1.4 7.6-5.2 16.5-2.2 24h2c2.7-7 6.8-13.2 6-21-2.1-0.2-1.9-0.2-3-2 2.6-0.4 2.6-2.4 3-5-1 1.1-1.3 1.6-2 3-3.3-7.8 0.1-16.5-3-24z"/><path class="bp" d="m270.3 172.7c0 0-0.1 1.1 0.4 0.6 0 0 0.1-1.1-0.4-0.6z"/><path class="A" d="m196 173l1 1z"/><path class="J" d="m218 173l1 1z"/><path class="F" d="m71.3 174.7c0 0-0.1 1.1 0.4 0.6 0 0 0.1-1.1-0.4-0.6z"/><path class="e" d="m115 174l1 1z"/><path class="aG" d="m123.3 174.7c0 0-0.1 1.1 0.4 0.6 0 0 0.1-1.1-0.4-0.6z"/><path class="bh" d="m218 174l1 1z"/><path class="D" d="m226.3 174.7c0 0-0.1 1.1 0.4 0.6 0 0 0.1-1.1-0.4-0.6z"/><path class="B" d="m270.3 174.7c0 0-0.1 1.1 0.4 0.6 0 0 0.1-1.1-0.4-0.6z"/><path class="b8" d="m115 175v3c0.7-1.6 0.7-1.4 0-3z"/><path class="bq" d="m166 180c2.1-1.5 3.5-2.9 5-5-2.7 1.3-3.7 2.3-5 5z"/><path class="k" d="m218 175l1 1z"/><path class="E" d="m123.3 176.7c0 0-0.1 1.1 0.4 0.6 0 0 0.1-1.1-0.4-0.6z"/><path class="br" d="m185 187q6.5-4.5 11-11c-4.9 2.3-8.7 6.1-11 11z"/><path class="bs" d="m226.3 176.7c0 0-0.1 1.1 0.4 0.6 0 0 0.1-1.1-0.4-0.6z"/><path class="e" d="m169 177l1 1z"/><path class="bt" d="m219 178v11c1.4-3.4 1.4-7.6 0-11z"/><path class="bf" d="m122 179c0 5.4-1.8 8.3-4 13-0.6-1.8-0.8-3.1-1-5-2.6 6.3 2.7 11.8 3 18l4 2-1-4h2c0.1-1.9 0.1-2.4 1-4-2-6.4-1.5-14.1-4-20z"/><path class="bu" d="m71 180v8c4.6 0 0.4 9.9 6 12l-1-4c1.6 0.5 1.5 0.4 2 2 1.7-5.5-2.7-11.3-3-17-0.7 1.2-0.7 1.5-1 3-1-1.6-1.7-2.7-3-4z"/><path class="bv" d="m115 180v4c0.7-1.8 0.7-2.2 0-4z"/><path class="bw" d="m155 180l1 1z"/><path class="bx" d="m226 180c0 1.8 0 1.5-1 3-1.5-1-2.3-1.4-4-2-1 3.2-2 6.7-2.2 10-0.3 2.3 0.5 4.1-0.8 6v2l2 1-3 1c0.8 2.6 1.4 3.2 4 4 0.6-8.4 8.7-16 5-25z"/><path class="bu" d="m143 200l4 3c2.5-2.4 3.4-5.3 5.4-8 2.4-3.2 5.3-5.8 7.6-9l-3-1 1-3c-5.5-1.4-12.6 5.4-13.8 11-0.6 2.8 0.6 4.6-1.2 7z"/><path class="by" d="m270 181v3c0.7-1.6 0.7-1.4 0-3z"/><path class="bo" d="m160 186c1.5-1.1 1.9-1.5 3-3-2.1 0.9-2.1 0.9-3 3z"/><path class="k" d="m161 185l1 1z"/><path class="B" d="m115 186v3c0.7-1.6 0.7-1.4 0-3z"/><path class="e" d="m184 186l1 1z"/><path class="bz" d="m72 187c0 16.5 4.2 35 16 47l3-1c-2.1-6.1-3.5-11.9-6-18l-5 1c-0.3-3.7-0.3-7.3-1-11-1.4 0.5-1.8 0.8-3 2-1.3-6.2-0.9-14.6-4-20z"/><path class="bm" d="m226.3 187.7c0 0-0.1 1.1 0.4 0.6 0 0 0.1-1.1-0.4-0.6z"/><path class="bA" d="m269 187v9q1.9-4.5 0-9z"/><path class="b5" d="m71.3 188.7c0 0-0.1 1.1 0.4 0.6 0 0 0.1-1.1-0.4-0.6z"/><path class="X" d="m123 188l1 1z"/><path class="b6" d="m270.3 188.7c0 0-0.1 1.1 0.4 0.6 0 0 0.1-1.1-0.4-0.6z"/><path class="o" d="m115 189l1 1z"/><path class="bB" d="m123 189l1 1z"/><path class="bC" d="m124 189v3c0.7-1.6 0.7-1.4 0-3z"/><path class="X" d="m218 189l1 1z"/><path class="e" d="m226 189l1 1z"/><path class="a" d="m71.3 190.7c0 0-0.1 1.1 0.4 0.6 0 0 0.1-1.1-0.4-0.6z"/><path class="v" d="m79.3 190.7c0 0-0.1 1.1 0.4 0.6 0 0 0.1-1.1-0.4-0.6z"/><path class="bD" d="m145 190l1 1z"/><path class="ay" d="m262.3 190.7c0 0-0.1 1.1 0.4 0.6 0 0 0.1-1.1-0.4-0.6z"/><path class="P" d="m270.3 190.7c0 0-0.1 1.1 0.4 0.6 0 0 0.1-1.1-0.4-0.6z"/><path class="b" d="m144 191l1 1z"/><path class="bE" d="m78 192l1 6c-1.2-1-1.6-1.3-3-2l1 4h-3l2 7c1.4-0.5 1.8-0.8 3-2 0.3 3.7 0.1 7.4 1 11h4l1-1c-2.3-7-2.9-17.1-7-23z"/><path class="F" d="m79.3 192.7c0 0-0.1 1.1 0.4 0.6 0 0 0.1-1.1-0.4-0.6z"/><path class="bk" d="m167 192c-3 5.7-11.9 13.1-16 5l-3 6c-1.5-1-2.3-1.4-4-2 0.6 1.8 1.1 3.3 2.4 4.8 9.1 10.1 20-1.2 26.6-7.8-1.8-2.4-3.6-4.2-6-6z"/><path class="b9" d="m218 192c-1 4.4-2 9.9-4.2 14-1.6 3-4.9 4.9-6.2 8-1.5 3.4 1.4 4.5 3.4 2 1.2 1 1.6 1.3 3 2 2.8-4.1 4.9-8.6 7-13-2.2-1.2-2.8-1.8-4-4 1.8 0 1.5 0 3-1l-2-3c1.5-1.8 1.1-2.9 0-5z"/><path class="F" d="m262.3 192.7c0 0-0.1 1.1 0.4 0.6 0 0 0.1-1.1-0.4-0.6z"/><path class="ab" d="m116 193l1 1z"/><path class="b" d="m124 193l1 1z"/><path class="a1" d="m153 193l1 1z"/><path class="bF" d="m166 193c-1.2 1.2-1.5 1.6-2 3 2-0.8 2.7-1 2-3z"/><path class="S" d="m116 194l1 1z"/><path class="bG" d="m124 194l1 1z"/><path class="O" d="m143 194l1 1z"/><path class="a3" d="m187 194l1 1z"/><path class="bq" d="m181 205c2-0.9 2.1-0.9 3 1 0.7-1.2 0.7-1.5 1-3 1.6 0.3 5.1 0.4 2-1l9-3c0.2 3 0.3 6 0 9 1.7 0.9 3.1 1.5 5 2 0.8-3.4 1.9-6.7 0-10-5.3-9.3-21.3-6.5-20 5z"/><path class="bH" d="m193 194l1 1z"/><path class="aM" d="m194 194l1 1z"/><path class="x" d="m217 194l1 1z"/><path class="bI" d="m224 194v3c0.7-1.6 0.7-1.4 0-3z"/><path class="aI" d="m225 194l1 1z"/><path class="bJ" d="m142 195v5c0.8-2 0.8-3 0-5z"/><path class="bz" d="m143 195c0.3 2.1 0.4 2.7 2 4v-4z"/><path class="X" d="m151 195l1 1z"/><path class="bK" d="m185 195l1 1z"/><path class="bL" d="m196 195l1 1z"/><path class="bM" d="m262 195v3c0.7-1.6 0.7-1.4 0-3z"/><path class="aR" d="m125 196l1 1z"/><path class="W" d="m183 196l1 1z"/><path class="S" d="m198 196l1 1z"/><path class="bN" d="m72 197l1 1z"/><path class="bD" d="m117 197l1 1z"/><path class="bO" d="m125 197l1 1z"/><path class="m" d="m182 197l1 1z"/><path class="bp" d="m199 197l1 1z"/><path class="aa" d="m216 197l1 1z"/><path class="bP" d="m223 197c-1.2 2.9-2.3 4.8-2 8 2-2.6 3.1-4.8 2-8z"/><path class="bQ" d="m224 197l1 1z"/><path class="bR" d="m268 197v5c0.8-2 0.8-3 0-5z"/><path class="bS" d="m269 197l1 1z"/><path class="bm" d="m72 198l1 1z"/><path class="C" d="m80 198l1 1z"/><path class="ay" d="m117 198l1 1z"/><path class="bz" d="m118 198c0.5 2.5 0.9 3.5 3 5-0.8-2.1-1.5-3.3-3-5z"/><path class="R" d="m181 198l1 1z"/><path class="b" d="m200 198l1 1z"/><path class="v" d="m224 198l1 1z"/><path class="ar" d="m261 198l1 1z"/><path class="bh" d="m269 198l1 1z"/><path class="ay" d="m72 199l1 1z"/><path class="am" d="m80 199l1 1z"/><path class="bi" d="m124 199l1 4h-2l1 4c-1.2-1.2-1.6-1.5-3-2l3 8h6c-0.1-2.1 0.1-3.1 1-5-2.2-3.1-3.7-6.9-7-9z"/><path class="bT" d="m187 201c2 0.9 5 1.3 6.3 3.3 2.6 3.9-2.3 6.2-5.3 6.7l-1-8c-1.8 1-1.6 0.9-2 3-1-1.5-1-1.2-1-3-1.3 0.8-1.2 0.7-2 2-1-1.5-1-1.2-1-3-4.3 6.4 1.7 15.1 9 15.7 7.8 0.6 12-5.9 13-12.7-1.3 1.8-1.6 2.9-2 5l-5-2c0.6-3.1 0.6-5.8 0-9-3 0.8-5.9 1.6-9 2z"/><path class="B" d="m261 199l1 1z"/><path class="aL" d="m126 200l1 1z"/><path class="ap" d="m143 200l1 1z"/><path class="a1" d="m170 200l1 1z"/><path class="aZ" d="m215 200l1 1z"/><path class="a7" d="m118 201l1 1z"/><path class="aM" d="m143 201l1 1z"/><path class="b3" d="m157 201l1 1z"/><path class="bC" d="m169 201v2c1.6-0.5 1.5-0.4 2-2z"/><path class="j" d="m223 201l1 1z"/><path class="bU" d="m127 202l1 1z"/><path class="j" d="m168 202l1 1z"/><path class="aE" d="m179 202l1 1z"/><path class="r" d="m189.3 203.1c-3.7 2.2-0.4 8 3.4 5.8 3.7-2.2 0.4-8-3.4-5.8z"/><path class="b3" d="m202 202l1 1z"/><path class="a0" d="m214 202l1 1z"/><path class="n" d="m73 203l1 1z"/><path class="ae" d="m81 203l1 1z"/><path class="I" d="m119 203l1 1z"/><path class="bL" d="m144 203l1 1z"/><path class="bV" d="m178 203v7c1.1-2.5 1.1-4.5 0-7z"/><path class="bW" d="m179 203l1 1z"/><path class="aF" d="m202 203l1 1z"/><path class="bR" d="m214 203l-3 7c2.4-2.1 3.8-3.8 3-7z"/><path class="Y" d="m222 203l1 1z"/><path class="as" d="m260 203l1 1z"/><path class="al" d="m268 203l1 1z"/><path class="bB" d="m128 204l1 1z"/><path class="bX" d="m213 204l1 1z"/><path class="au" d="m260 204l1 1z"/><path class="ag" d="m120 205l1 1z"/><path class="bY" d="m221 205l1 1z"/><path class="bZ" d="m129 206l1 1z"/><path class="a" d="m146 206l1 1z"/><path class="J" d="m212 206l1 1z"/><path class="G" d="m74 207l1 1z"/><path class="i" d="m82 207l1 1z"/><path class="aj" d="m130 207l1 1z"/><path class="aq" d="m147 207l1 1z"/><path class="G" d="m162 207l1 1z"/><path class="c0" d="m219 207l-1 4c1.1-1.6 1.4-2.1 1-4z"/><path class="aK" d="m220 207l1 1z"/><path class="bX" d="m259 207l1 1z"/><path class="B" d="m267 207l1 1z"/><path class="bU" d="m149 208l1 1z"/><path class="aG" d="m161 208l1 1z"/><path class="aL" d="m179 208l1 1z"/><path class="ap" d="m202 208l1 1z"/><path class="ak" d="m122 209l1 1z"/><path  d="m123.3 209.7c0 0-0.1 1.1 0.4 0.6 0 0 0.1-1.1-0.4-0.6z"/><path class="c1" d="m129 209l1 4c-5.9 1.3-0.5 6.6 2 9 4.8 4.7 9.9 7.5 16 4l-1 3 4 2 1-5c-9.2-4-14.4-12.9-23-17z"/><path class="ai" d="m131 209l1 1z"/><path class="X" d="m151 209l1 1z"/><path class="am" d="m158 209l1 1z"/><path class="K" d="m159 209l1 1z"/><path class="A" d="m179 209l1 1z"/><path class="au" d="m188 209l1 1z"/><path class="aa" d="m202 209l1 1z"/><path class="Y" d="m210 209l1 1z"/><path class="G" d="m219 209l1 1z"/><path class="bI" d="m259 209c-1.9 5.9-4.3 11.5-7.3 17-2.3 4.3-4.8 7.2-2.7 12l-3-1c2.4 3 5.6 2.5 8.2-0.3 3.9-4.1 6.8-10.2 7.8-15.7-4.1-3.6-1.5-7.4-3-12z"/><path class="a6" d="m83 210l1 1z"/><path class="aP" d="m132 210l1 1z"/><path class="r" d="m152 210c1.8 0.8 3 0.9 5 1-1.8-0.8-3-0.9-5-1z"/><path  d="m188 210c1.8 0.8 3 0.9 5 1-1.8-0.8-3-0.9-5-1z"/><path class="a" d="m258 210l1 1z"/><path class="bb" d="m266 210l1 1z"/><path class="b" d="m75 211l1 1z"/><path class="bp" d="m123 211l1 1z"/><path class="bw" d="m180 211l1 1z"/><path class="c2" d="m201 211l1 1z"/><path class="Z" d="m218 211l1 1z"/><path class="S" d="m266 211l1 1z"/><path class="b4" d="m208 212l1 1z"/><path class="W" d="m84 213l1 1z"/><path class="c3" d="m125 213c0.5 1.6 0.4 1.5 2 2v-2z"/><path class="a2" d="m181 213l1 1z"/><path class="a6" d="m200 213l1 1z"/><path class="ai" d="m207 213l1 1z"/><path class="m" d="m257 213l1 1z"/><path class="aG" d="m76 214l1 1z"/><path class="X" d="m125 214l1 1z"/><path class="c4" d="m135 214l1 1z"/><path class="an" d="m182 214l1 1z"/><path class="Z" d="m199 214l1 1z"/><path class="B" d="m206 214l1 1z"/><path class="a6" d="m216 214l1 1z"/><path class="c" d="m265 214l1 1z"/><path class="aD" d="m126 215l1 1z"/><path class="ak" d="m136 215l1 1z"/><path class="aI" d="m183 215l1 1z"/><path class="a" d="m198 215l1 1z"/><path class="ah" d="m205 215l1 1z"/><path class="c5" d="m215 215l1 1z"/><path class="T" d="m85 216l1 1zm52 0l1 1z"/><path class="G" d="m185 216l1 1z"/><path class="a8" d="m196 216l1 1z"/><path class="Y" d="m204 216l1 1z"/><path class="c0" d="m205 216c-11.3 9.8-23.9 15-39 13.9-4.8-0.3-9.3-2.2-14-2.9l-1 4c-1.5-1-2.3-1.4-4-2 1-1.5 1-1.2 1-3-3.3 1.2-5.5 1.5-9 1 13.9 14 40.6 12.9 57 4.8 6.3-3.2 15.7-8 16-15.8-2.9 1.7-4.1 1.5-7 0z"/><path class="ap" d="m256 216l1 1z"/><path  d="m263 216l-1 5c1.3-1.9 1.7-2.8 1-5z"/><path class="bj" d="m264 216l1 1z"/><path class="o" d="m77 217l1 1z"/><path class="aY" d="m138 217l1 1z"/><path class="a0" d="m187 217l1 1z"/><path class="aL" d="m193 217l1 1z"/><path class="m" d="m194 217l1 1z"/><path class="bZ" d="m203 217l1 1z"/><path class="s" d="m264 217l1 1z"/><path class="W" d="m86 218l1 1z"/><path class="g" d="m128 218l1 1z"/><path class="r" d="m189 218c1.5 0.7 2.3 0.8 4 1-1.5-0.7-2.3-0.8-4-1z"/><path class="c6" d="m202 218l1 1z"/><path class="Z" d="m255 218l1 1z"/><path class="aZ" d="m78 219l1 1z"/><path class="w" d="m129 219l1 1z"/><path class="a7" d="m141 219l1 1z"/><path class="q" d="m200 219l1 1z"/><path class="C" d="m212 219l1 1z"/><path class="I" d="m263 219l1 1z"/><path class="L" d="m87 220l1 1z"/><path class="aT" d="m130 220l1 1z"/><path class="h" d="m142 220l1 1z"/><path class="aW" d="m199 220l1 1z"/><path class="al" d="m211 220l1 1z"/><path class="aO" d="m254 220l1 1z"/><path class="bc" d="m131 221l1 1z"/><path class="bQ" d="m143 221l1 1z"/><path class="aH" d="m198 221l1 1z"/><path class="p" d="m210 221l1 1z"/><path class="aB" d="m262 221l1 1z"/><path class="j" d="m79 222l1 1zm9 0l1 1z"/><path class="aZ" d="m132 222l1 1z"/><path class="bX" d="m145 222l1 1z"/><path class="i" d="m196 222l1 1z"/><path class="aE" d="m209 222l1 1z"/><path class="bX" d="m133 223l1 1z"/><path class="b1" d="m146 223l1 1z"/><path class="av" d="m147 223l1 1z"/><path class="aB" d="m195 223l1 1z"/><path class="b" d="m208 223l1 1z"/><path class="av" d="m80 224l1 1z"/><path class="a4" d="m89 224l1 1z"/><path class="g" d="m134 224l1 1z"/><path class="bN" d="m148 224l1 1z"/><path class="bQ" d="m193 224l1 1z"/><path class="a1" d="m207 224l1 1z"/><path class="N" d="m252 224l1 1z"/><path class="ax" d="m261 224l1 1z"/><path class="M" d="m150 225l1 1z"/><path class="G" d="m191 225l1 1z"/><path class="w" d="m81 226l1 1z"/><path class="V" d="m90 226l1 1z"/><path class="c7" d="m137 226l1 1z"/><path class="b1" d="m152 226l1 1z"/><path class="aM" d="m153 226l1 1z"/><path class="ar" d="m188 226l1 1z"/><path class="aA" d="m189 226l1 1z"/><path class="bt" d="m193 226c-1.5 1-1.2 1-3 1 1.7 1.3 3.9 1.6 3-1z"/><path class="c6" d="m204 226l1 1z"/><path class="P" d="m251 226l1 1z"/><path class="E" d="m260 226l1 1z"/><path  d="m90 227c-0.2 2.5 0 3.7 1 6-1.8 0-1.5 0-3 1-1-1.8-0.9-1.6-3-2 3.8 8.1 9.7 14.7 16 21 32.3 32.3 85.6 38.4 124 13 9.9-6.6 22.2-15.8 27-27-2.7 0.1-4-0.1-6-2 1.5 1 1.2 1 3 1-1.1-1.5-1.5-1.9-3-3-27.9 37.7-79.8 51-121 26.5-8.4-4.9-16.3-11.1-22.7-18.5-4.4-5.1-7.7-11.1-12.3-16z"/><path class="aa" d="m138 227l1 1z"/><path class="c2" d="m155 227l1 1z"/><path class="aq" d="m156 227l1 1z"/><path class="av" d="m185 227l1 1z"/><path class="ai" d="m186 227l1 1z"/><path class="y" d="m203 227l1 1z"/><path class="c8" d="m82 228l1 1z"/><path class="A" d="m91 228l1 1z"/><path class="c5" d="m158 228l1 1z"/><path class="aT" d="m159 228l1 1z"/><path class="b5" d="m182 228l1 1z"/><path class="b4" d="m183 228l1 1z"/><path class="bc" d="m250 228l1 1z"/><path class="ad" d="m259 228l1 1z"/><path class="V" d="m141 229l1 1z"/><path class="c9" d="m162 229l1 1z"/><path class="b6" d="m163.7 229.3c-0.5 0.5 0.6 0.4 0.6 0.4 0.5-0.5-0.6-0.4-0.6-0.4z"/><path class="aO" d="m165 229c1.2 0.7 1.5 0.7 3 1-1.2-0.7-1.5-0.7-3-1z"/><path class="N" d="m174.7 229.3c-0.5 0.5 0.6 0.4 0.6 0.4 0.5-0.5-0.6-0.4-0.6-0.4z"/><path class="b5" d="m176.7 229.3c-0.5 0.5 0.6 0.4 0.6 0.4 0.5-0.5-0.6-0.4-0.6-0.4z"/><path class="bH" d="m178 229l1 1z"/><path class="ah" d="m200 229l1 1z"/><path class="e" d="m83 230l1 1z"/><path class="aB" d="m143 230l1 1z"/><path class="T" d="m198 230l1 1z"/><path class="c9" d="m84 231l1 1z"/><path class="b" d="m93 231l1 1z"/><path class="aH" d="m145 231l1 1z"/><path class="aA" d="m196 231l1 1z"/><path class="D" d="m248 231l1 1z"/><path class="ca" d="m147 232l1 1z"/><path class="c9" d="m194 232l1 1z"/><path class="cb" d="m85 233l1 1z"/><path class="cc" d="m94 233l1 1z"/><path class="cb" d="m149 233l1 1z"/><path class="G" d="m192 233l1 1z"/><path class="aF" d="m247 233l1 1z"/><path class="m" d="m256 233l1 1z"/><path class="R" d="m95 234l1 1z"/><path class="k" d="m151 234l1 1z"/><path class="ar" d="m190 234l1 1z"/><path class="a6" d="m246 234l1 1z"/><path class="cd" d="m86 235l1 1z"/><path class="aj" d="m154 235l1 1z"/><path class="a9" d="m155 235l1 1z"/><path class="ce" d="m186 235l1 1z"/><path class="C" d="m187 235l1 1z"/><path class="v" d="m255 235l1 1z"/><path class="bQ" d="m87 236l1 1z"/><path class="aE" d="m158 236l1 1z"/><path class="c5" d="m182 236l1 1z"/><path class="X" d="m183 236l1 1z"/><path class="bW" d="m254 236l1 1z"/><path class="bZ" d="m97 237l1 1z"/><path class="ad" d="m163 237l1 1z"/><path class="ap" d="m164.7 237.3c-0.5 0.5 0.6 0.4 0.6 0.4 0.5-0.5-0.6-0.4-0.6-0.4z"/><path class="bP" d="m166.7 237.3c-0.5 0.5 0.6 0.4 0.6 0.4 0.5-0.5-0.6-0.4-0.6-0.4z"/><path class="bj" d="m174.7 237.3c-0.5 0.5 0.6 0.4 0.6 0.4 0.5-0.5-0.6-0.4-0.6-0.4z"/><path class="aC" d="m176.7 237.3c-0.5 0.5 0.6 0.4 0.6 0.4 0.5-0.5-0.6-0.4-0.6-0.4z"/><path class="ad" d="m178 237l1 1z"/><path class="bZ" d="m244 237l1 1z"/><path class="a7" d="m88 238l1 1z"/><path class="at" d="m98 238l1 1z"/><path class="s" d="m243 238l1 1z"/><path class="j" d="m253 238l1 1z"/><path class="aY" d="m89 239l1 1z"/><path class="bW" d="m252 239l1 1z"/><path class="a2" d="m91 242l1 1z"/><path class="cf" d="m101 242l1 1z"/><path class="aH" d="m240 242l1 1z"/><path class="cg" d="m250 242l1 1z"/><path class="aN" d="m92 243l1 1z"/><path class="ch" d="m102 243l1 1z"/><path class="A" d="m239 243l1 1z"/><path class="bl" d="m249 243l1 1z"/><path class="aV" d="m103 244l1 1z"/><path class="R" d="m238 244l1 1z"/><path class="W" d="m104 245l1 1z"/><path class="K" d="m237 245l1 1z"/><path class="q" d="m105 246l1 1z"/><path class="u" d="m236 246l1 1zm-141 1l1 1z"/><path class="ad" d="m106 247l1 1z"/><path class="ae" d="m235 247l1 1z"/><path class="at" d="m246 247l1 1z"/><path class="am" d="m96 248l1 1z"/><path class="V" d="m107 248l1 1z"/><path class="c" d="m234 248l1 1z"/><path class="aW" d="m245 248l1 1z"/><path class="cf" d="m97 249l1 1z"/><path class="bp" d="m108 249l1 1z"/><path class="aE" d="m233 249l1 1z"/><path class="c2" d="m244 249l1 1z"/><path class="aF" d="m98 250l1 1z"/><path class="cg" d="m109 250l1 1z"/><path class="A" d="m232 250l1 1z"/><path class="cc" d="m243 250l1 1z"/><path class="b1" d="m99 251l1 1z"/><path class="b4" d="m110 251l1 1z"/><path class="bW" d="m231 251l1 1z"/><path class="aA" d="m242 251l1 1z"/><path class="c9" d="m100 252l1 1z"/><path class="bj" d="m241 252l1 1z"/><path class="aB" d="m101 253l1 1z"/><path class="c5" d="m240 253l1 1z"/><path class="bH" d="m102 254l1 1z"/><path class="Z" d="m114 254l1 1z"/><path class="at" d="m227 254l1 1z"/><path class="cf" d="m239 254l1 1z"/><path class="ag" d="m103 255l1 1z"/><path class="bH" d="m115 255l1 1z"/><path class="ak" d="m226 255l1 1z"/><path class="aF" d="m238 255l1 1z"/><path class="b6" d="m104 256l1 1z"/><path class="cg" d="m237 256l1 1z"/><path class="E" d="m105 257l1 1z"/><path class="b0" d="m118 257l1 1z"/><path class="Z" d="m223 257l1 1z"/><path class="aq" d="m236 257l1 1z"/><path class="aG" d="m121 259l1 1z"/><path class="al" d="m220 259l1 1z"/><path class="aD" d="m232 260l1 1z"/><path class="d" d="m110 261l1 1z"/><path class="bH" d="m124 261l1 1z"/><path class="U" d="m217 261l1 1z"/><path class="b6" d="m231 261l1 1z"/><path class="b" d="m126 262l1 1z"/><path class="bh" d="m215 262l1 1z"/><path class="ci" d="m113 263l1 1z"/><path class="ax" d="m128 263l1 1z"/><path class="y" d="m213 263l1 1z"/><path class="ci" d="m228 263l1 1z"/><path class="a7" d="m114 264l1 1z"/><path class="N" d="m130 264l1 1z"/><path class="o" d="m211 264l1 1z"/><path class="P" d="m227 264l1 1z"/><path class="b" d="m132 265l1 1z"/><path class="Z" d="m209 265l1 1z"/><path class="bj" d="m225 265l1 1z"/><path class="aQ" d="m117 266l1 1z"/><path class="O" d="m134 266l1 1z"/><path class="A" d="m207 266l1 1z"/><path class="s" d="m224 266l1 1z"/><path class="aF" d="m119 267l1 1z"/><path class="bu" d="m205 267l1 1z"/><path class="b1" d="m222 267l1 1z"/><path class="F" d="m139 268l1 1z"/><path class="p" d="m202 268l1 1z"/><path class="a7" d="m122 269l1 1z"/><path class="cj" d="m142 269l1 1z"/><path class="af" d="m199 269l1 1z"/><path class="u" d="m219 269l1 1z"/><path class="a6" d="m124 270l1 1z"/><path class="bw" d="m145 270l1 1z"/><path class="bD" d="m196 270l1 1z"/><path class="C" d="m217 270l1 1z"/><path class="af" d="m126 271l1 1z"/><path class="p" d="m149 271l1 1z"/><path class="b5" d="m192 271l1 1z"/><path class="aM" d="m215 271l1 1z"/><path class="aG" d="m128 272l1 1z"/><path class="b4" d="m153 272l1 1z"/><path class="bp" d="m154 272l1 1z"/><path class="c" d="m187 272l1 1z"/><path class="bY" d="m188 272l1 1z"/><path class="aP" d="m213 272l1 1z"/><path class="a0" d="m160.7 273.3c-0.5 0.5 0.6 0.4 0.6 0.4 0.5-0.5-0.6-0.4-0.6-0.4z"/><path class="ad" d="m162 273l1 1z"/><path class="c" d="m179.7 273.3c-0.5 0.5 0.6 0.4 0.6 0.4 0.5-0.5-0.6-0.4-0.6-0.4z"/><path class="F" d="m181 273l1 1z"/><path class="ba" d="m182 273l1 1z"/><path class="j" d="m211 273l1 1z"/><path class="a9" d="m133 274l1 1z"/><path class="aB" d="m208 274l1 1z"/><path class="P" d="m135 275l1 1z"/><path class="ae" d="m206 275l1 1z"/><path class="al" d="m138 276l1 1z"/><path class="aC" d="m203 276l1 1z"/><path class="a6" d="m141 277l1 1z"/><path class="n" d="m200 277l1 1z"/><path class="H" d="m144 278l1 1z"/><path class="aL" d="m145 278l1 1z"/><path class="ck" d="m196 278l1 1z"/><path class="aO" d="m197 278l1 1zm-49 1l1 1z"/><path class="T" d="m149 279l1 1z"/><path class="bH" d="m192 279l1 1z"/><path class="E" d="m193 279l1 1z"/><path class="Q" d="m153 280l1 1z"/><path class="M" d="m154 280l1 1z"/><path class="U" d="m187 280l1 1z"/><path class="av" d="m188 280l1 1z"/><path class="bX" d="m160 281c1.2 0.7 1.5 0.7 3 1-1.2-0.7-1.5-0.7-3-1z"/><path class="bE" d="m163.7 281.3c-0.5 0.5 0.6 0.4 0.6 0.4 0.5-0.5-0.6-0.4-0.6-0.4z"/><path class="aZ" d="m178 281c1.2 0.7 1.5 0.7 3 1-1.2-0.7-1.5-0.7-3-1zm3 0l1 1z"/></svg>