<?xml version="1.0" encoding="utf-8"?>
<!-- Generator: Adobe Illustrator 23.1.1, SVG Export Plug-In . SVG Version: 6.00 Build 0)  -->
<svg version="1.1" id="Шар_1" xmlns="http://www.w3.org/2000/svg" xmlns:xlink="http://www.w3.org/1999/xlink" x="0px" y="0px"
	 viewBox="0 0 111 120" style="enable-background:new 0 0 111 120;" xml:space="preserve">
<style type="text/css">
	.st0{fill:#D2D2D2;}
</style>
<g>
	<path class="st0" d="M46.03,77.39c0-7.8,0.02-15.61-0.04-23.41c0-0.62-0.53-1.23-0.82-1.85c-0.4,0.66-1.13,1.31-1.16,1.98
		c-0.15,3.81-0.11,7.63-0.18,11.45c-0.03,1.49,0.07,3.03-0.3,4.44c-0.27,1-1.05,2.15-1.93,2.65c-3.13,1.78-5.34,0.41-5.37-3.22
		c-0.04-6.64,0.09-13.29-0.05-19.92c-0.09-4.51,1.89-7.8,5.72-9.72c9.05-4.52,18.27-4.42,27.3,0.05c3.69,1.83,5.59,5.09,5.58,9.32
		c-0.01,6.14-0.03,12.29,0,18.43c0.01,2.35-0.58,4.26-2.98,5.2c-3.14,1.23-4.63,0.28-4.66-3.14c-0.06-5.48-0.03-10.96-0.08-16.44
		c0-0.38-0.38-0.76-0.58-1.14c-0.35,0.32-0.96,0.6-1.02,0.96c-0.24,1.63-0.43,3.28-0.44,4.92c-0.03,12.62-0.02,25.24-0.02,37.86
		c0,1.16,0.06,2.33-0.02,3.49c-0.26,3.66-2.9,5.65-6.49,4.79c-0.59-0.14-1.31-1.01-1.42-1.63c-0.23-1.29-0.1-2.64-0.1-3.97
		c-0.01-7.31,0-14.61-0.04-21.92c0-0.58-0.4-1.16-0.61-1.74c-0.62,0.44-1.63,0.78-1.78,1.35c-0.38,1.41-0.48,2.92-0.5,4.39
		c-0.05,6.14,0.05,12.29-0.05,18.43c-0.06,3.51-1.45,4.89-4.7,5.19c-2.67,0.25-3.26-0.18-3.28-2.89
		C46,93.33,46.03,85.36,46.03,77.39z"/>
	<path class="st0" d="M55.61,35.17c-2.72-0.2-5.12-1.07-6.75-3.52c-1.22-1.84-0.91-4.63-3.57-5.66c-0.3-0.12-0.25-1.55-0.1-2.33
		c0.9-4.64,5.6-8.1,10.67-7.95c4.87,0.15,9.53,4.14,10.1,8.71c0.07,0.61-0.07,1.74-0.33,1.81c-2.49,0.64-2.29,2.98-3.13,4.65
		C61.09,33.72,58.61,34.82,55.61,35.17z"/>
</g>
</svg>
