<?xml version="1.0" encoding="utf-8"?>
<!-- Generator: Adobe Illustrator 23.1.1, SVG Export Plug-In . SVG Version: 6.00 Build 0)  -->
<svg version="1.1" id="Шар_1" xmlns="http://www.w3.org/2000/svg" xmlns:xlink="http://www.w3.org/1999/xlink" x="0px" y="0px"
	 viewBox="0 0 111 120" style="enable-background:new 0 0 111 120;" xml:space="preserve">
<style type="text/css">
	.st0{fill:#D2D2D2;}
</style>
<g>
	<path class="st0" d="M62.54,74.29c-13.97,0-27.94,0.02-41.91-0.01c-3.92-0.01-4.69-1.18-2.45-4.21c1.43-1.94,3.39-3.67,5.47-4.92
		c4.33-2.61,9.24-3.7,14.25-4.05c3.48-0.25,6.98-0.26,10.47-0.27c15.63-0.02,31.27-0.01,46.9-0.01c1.33,0,2.66-0.02,3.99,0.03
		c7.84,0.25,10.72,3.95,9.22,11.72c-0.23,1.21-0.91,1.68-2.04,1.7c-1.33,0.02-2.66,0.03-3.99,0.03
		C89.15,74.3,75.85,74.3,62.54,74.29z"/>
	<path class="st0" d="M62.35,85.04c-10.3,0-20.6,0.01-30.9,0c-1.16,0-2.34,0.05-3.48-0.1c-3.4-0.46-5.77-2.75-6.41-6.04
		c-0.4-2.04,0.07-2.76,2.22-2.81c3.82-0.09,7.64-0.08,11.46,0.01c1.79,0.04,2.26,1.03,1.35,2.64c-0.4,0.71-0.98,1.33-1.52,1.96
		c-1.09,1.25,0.05,1.33,0.79,1.36c2.66,0.07,5.32,0.08,7.97,0.04c1.14-0.02,2.28-0.22,3.42-0.33c-0.55-0.92-1.11-1.82-1.64-2.75
		c-1.21-2.15-0.8-2.88,1.79-2.94c3.15-0.07,6.31-0.08,9.47,0.01c1.96,0.05,2.26,0.69,1.3,2.51c-0.38,0.73-0.89,1.4-1.39,2.05
		c-0.89,1.14-0.12,1.4,0.79,1.42c2.82,0.05,5.65,0.07,8.47,0.03c0.97-0.01,1.95-0.22,2.92-0.33c-0.52-0.75-1.08-1.47-1.55-2.25
		c-0.34-0.56-0.55-1.2-0.81-1.81c-0.44-1.06,0.04-1.59,1.06-1.59c3.82-0.03,7.64-0.03,11.46,0.01c1.22,0.01,1.22,0.82,0.9,1.7
		c-0.17,0.47-0.36,0.93-0.6,1.36c-1.63,2.88-1.64,2.89,1.4,2.93c1.99,0.02,3.99,0.02,5.98,0c3.56-0.04,3.56-0.05,1.88-3.17
		c-1.24-2.31-0.97-2.81,1.8-2.85c3.65-0.06,7.31,0.01,10.96-0.01c1.8-0.01,2.31,0.91,2,2.55c-0.67,3.54-3.12,5.92-6.72,6.35
		c-1.15,0.14-2.32,0.07-3.48,0.08C82.95,85.04,72.65,85.04,62.35,85.04z"/>
	<path class="st0" d="M70.41,59.01c-5.8,0-11.59,0.05-17.39-0.02c-2.19-0.03-2.91-0.89-2.01-2.71c0.92-1.86,2.17-3.73,3.74-5.06
		c2.72-2.31,6.15-3.19,9.71-3.23c6.62-0.07,13.25-0.16,19.87-0.07c4.38,0.06,5.9,1.67,6.17,6c0.05,0.82-0.02,1.65,0,2.48
		c0.04,1.85-0.8,2.65-2.7,2.63C82,58.97,76.2,59.01,70.41,59.01z"/>
	<path class="st0" d="M4.53,34.95c0.98,0.27,1.62,0.45,2.25,0.63c14.47,4.22,28.94,8.44,43.41,12.66c0.79,0.23,1.6,0.48,2.33,0.85
		c0.28,0.14,0.62,0.74,0.52,0.97c-0.88,2.09-3.81,3.54-6,2.91C32.89,48.84,18.75,44.7,4.62,40.5c-2.73-0.81-3.1-1.87-1.67-4.26
		C3.31,35.65,4.08,35.31,4.53,34.95z"/>
</g>
</svg>
