<?xml version="1.0" encoding="utf-8"?>
<!-- Generator: Adobe Illustrator 23.1.1, SVG Export Plug-In . SVG Version: 6.00 Build 0)  -->
<svg version="1.1" id="Шар_1" xmlns="http://www.w3.org/2000/svg" xmlns:xlink="http://www.w3.org/1999/xlink" x="0px" y="0px"
	 viewBox="0 0 382 648" style="enable-background:new 0 0 382 648;" xml:space="preserve">
<style type="text/css">
	.st0{fill:#1E1E1C;stroke:#D6AC44;stroke-width:11;stroke-miterlimit:10;}
	.st1{fill:#D6AC44;}
	.st2{fill:#FFEFC9;}
</style>
<g>
	<polygon class="st0" points="358.42,448.62 358.42,34.21 23.58,34.21 23.58,448.62 191,613.79 358.42,448.62 	"/>
	<path class="st1" d="M177.52,233.3c-1.26,0.33-2.53,0.83-3.43,1.78c-0.86,0.91-1.3,2.16-1.42,3.4c-0.46,4.83,3.41,8.89,7.15,11.98
		c6.67,5.5,12.33,6.33,19.87,1.96c4.41-2.56,11.86-6.51,12.43-12.27c0.8-8.05-6.98-10.01-12.9-8.53
		C192.04,233.41,184.63,231.45,177.52,233.3z"/>
	<path class="st1" d="M271.94,156.14c-0.51,1.58-3.2,0.67-3.54-0.96c-0.34-1.63,0.56-3.23,0.86-4.86
		c1.79-9.71-16.34-14.72-14.03-24.31c1.94,1,3.19,3.2,3.05,5.38c4.12-1.3,8.36,1.92,10.68,5.56c2.33,3.64,3.69,7.96,6.75,11.02
		c1.35,1.35,3.01,2.42,4.14,3.96c1.13,1.54,1.61,3.84,0.39,5.32c2.63-1.7,6.35-0.35,8.29,2.1s2.57,5.67,3.13,8.74
		c0.76,4.15,1.51,8.3,2.27,12.44c-2.6-6.33-7.45-11.7-13.49-14.91c-2.51-1.34-5.45-2.55-6.55-5.17
		c-0.31-0.73-33.01,25.07-37.04,27.87C233.1,181.04,264.37,161.9,271.94,156.14z"/>
	<path class="st1" d="M109.59,309.54c0.55-1.57,3.21-0.59,3.52,1.04c0.3,1.64-0.63,3.22-0.97,4.84
		c-2.02,9.66,15.99,15.1,13.44,24.64c-1.91-1.05-3.11-3.28-2.92-5.45c-4.15,1.2-8.31-2.12-10.55-5.82c-2.24-3.7-3.5-8.05-6.49-11.18
		c-1.32-1.39-2.95-2.49-4.05-4.06c-1.1-1.57-1.52-3.87-0.26-5.32c-2.67,1.63-6.35,0.2-8.24-2.3c-1.89-2.5-2.43-5.73-2.92-8.82
		c-0.66-4.16-1.32-8.33-1.97-12.49c2.44,6.39,7.17,11.87,13.13,15.23c2.48,1.4,5.38,2.68,6.43,5.32
		c0.29,0.73,54.36-42.67,58.45-45.38C169.76,267.18,117.29,303.96,109.59,309.54z"/>
	<path class="st1" d="M276.85,302.93c-1.66-0.14-1.37-2.97,0.14-3.66c1.51-0.7,3.27-0.18,4.93-0.26
		c9.86-0.44,10.66-19.23,20.53-19.14c-0.54,2.11-2.41,3.83-4.56,4.18c2.19,3.73,0.01,8.58-3.02,11.66
		c-3.03,3.09-6.93,5.39-9.22,9.06c-1.01,1.62-1.68,3.48-2.93,4.93c-1.25,1.45-3.38,2.43-5.09,1.58c2.25,2.18,1.77,6.11-0.18,8.55
		s-4.94,3.78-7.82,5.02c-3.87,1.67-7.74,3.34-11.61,5.01c5.58-3.95,9.72-9.89,11.5-16.5c0.74-2.75,1.26-5.88,3.56-7.55
		c0.64-0.46-45.57-39.33-49.21-42.62C230.13,257.89,269.54,296.85,276.85,302.93z"/>
	<path class="st1" d="M106.57,160.86c1.65,0.18,1.3,3-0.22,3.66s-3.28,0.11-4.94,0.14c-9.87,0.2-11.12,18.97-20.98,18.64
		c0.59-2.1,2.5-3.77,4.66-4.07c-2.1-3.78,0.19-8.57,3.29-11.59s7.05-5.22,9.43-8.84c1.05-1.6,1.76-3.44,3.05-4.86
		c1.28-1.42,3.43-2.35,5.13-1.45c-2.19-2.23-1.62-6.15,0.38-8.55c2.01-2.4,5.03-3.66,7.93-4.83c3.91-1.58,7.82-3.16,11.73-4.73
		c-5.67,3.82-9.95,9.66-11.89,16.22c-0.8,2.73-1.4,5.85-3.74,7.46c-0.65,0.45,31.66,27.07,35.22,30.45
		C139.24,193.67,113.74,167.11,106.57,160.86z"/>
	<path class="st1" d="M300.4,234.37c-1.42,0.86-2.85-1.6-2.04-3.05s2.54-2.07,3.85-3.1c7.74-6.13-2.63-21.83,5.42-27.54
		c0.8,2.03,0.29,4.51-1.24,6.06c3.96,1.74,5.04,6.94,4.39,11.22s-2.46,8.43-2.16,12.74c0.13,1.91,0.68,3.8,0.52,5.71
		c-0.16,1.91-1.31,3.95-3.2,4.26c3.1,0.45,5.01,3.91,4.87,7.04c-0.14,3.13-1.79,5.96-3.39,8.65c-2.16,3.62-4.32,7.24-6.47,10.87
		c2.21-6.47,2.08-13.71-0.35-20.1c-1.01-2.66-2.43-5.5-1.54-8.2c0.25-0.75-46.11-3.53-50.99-4.06
		C250.01,226.89,290.91,233.74,300.4,234.37z"/>
	<path class="st1" d="M82.05,233.09c1.44-0.82,2.81,1.67,1.96,3.1c-0.85,1.43-2.59,2.01-3.92,3.01c-7.88,5.95,2.11,21.89-6.08,27.4
		c-0.75-2.05-0.19-4.51,1.39-6.02c-3.92-1.83-4.87-7.06-4.12-11.32c0.75-4.26,2.66-8.37,2.46-12.69c-0.08-1.91-0.58-3.82-0.38-5.72
		c0.21-1.9,1.41-3.92,3.3-4.18c-3.09-0.52-4.92-4.03-4.7-7.15c0.22-3.12,1.93-5.91,3.6-8.56c2.24-3.57,4.49-7.14,6.73-10.71
		c-2.36,6.42-2.4,13.66-0.13,20.11c0.95,2.68,2.3,5.56,1.34,8.24c-0.26,0.74,58.46,4.23,63.32,4.88
		C144.69,241.38,91.52,233.95,82.05,233.09z"/>
	<path class="st1" d="M198.27,341.66c-0.99-1.34,1.33-2.99,2.85-2.31c1.52,0.67,2.29,2.34,3.44,3.54
		c6.83,7.13,21.49-4.65,27.93,2.84c-1.94,0.99-4.46,0.71-6.15-0.68c-1.36,4.1-6.44,5.66-10.76,5.42c-4.32-0.24-8.62-1.66-12.89-0.97
		c-1.89,0.31-3.72,1.03-5.64,1.04c-1.91,0.02-4.05-0.94-4.54-2.79c-0.16,3.13-3.43,5.36-6.55,5.5s-6.1-1.23-8.92-2.57
		c-3.81-1.81-7.61-3.62-11.42-5.43c6.65,1.59,13.85,0.79,19.98-2.22c2.55-1.25,5.25-2.93,8.02-2.29c0.77,0.18-1.52-33.74-1.45-38.64
		C200.28,303.3,198.02,332.16,198.27,341.66z"/>
	<path class="st1" d="M185.47,120.16c0.95,1.36-1.4,2.95-2.9,2.24c-1.5-0.71-2.24-2.39-3.36-3.62c-6.66-7.29-21.6,4.14-27.85-3.5
		c1.97-0.94,4.48-0.6,6.13,0.82c1.46-4.07,6.58-5.5,10.89-5.16c4.31,0.35,8.58,1.87,12.86,1.27c1.9-0.26,3.75-0.94,5.66-0.91
		s4.03,1.04,4.47,2.9c0.23-3.12,3.55-5.27,6.68-5.34c3.13-0.07,6.07,1.37,8.86,2.78c3.76,1.9,7.53,3.8,11.29,5.7
		c-6.61-1.75-13.82-1.12-20.03,1.74c-2.58,1.19-5.32,2.8-8.07,2.1c-0.77-0.19,0.09,39.62-0.1,44.52
		C181.92,164.31,185.5,129.66,185.47,120.16z"/>
	<path class="st1" d="M227.9,216.05c0.72,0.51,1.46,1.05,1.94,1.79c0.58,0.91,0.7,2.02,0.8,3.09c0.26,2.85,0.28,6.15-1.85,8.06
		c-1.5,1.35-3.65,1.6-5.66,1.8c-4.35,0.42-8.97,0.8-12.86-1.19c-1.31-0.67-2.47-1.58-3.62-2.49c-1.41-1.1-2.84-2.24-3.76-3.77
		c-0.92-1.53-1.24-3.56-0.31-5.09c0.55-0.91,1.46-1.54,2.36-2.09C213.06,211.2,220.07,210.48,227.9,216.05z"/>
	<path class="st1" d="M159.85,213.99c-1.23,0.17-2.49,0.38-3.6,0.94c-1.04,0.52-1.91,1.33-2.75,2.13c-2.19,2.06-4.56,4.78-3.78,7.69
		c0.41,1.54,1.68,2.74,3.12,3.43c1.44,0.69,3.04,0.93,4.63,1.12c2.53,0.3,5.08,0.47,7.62,0.52c2.63,0.05,5.35-0.05,7.74-1.15
		c2.5-1.16,4.46-3.41,5.26-6.04C181.58,211.21,166.62,213.08,159.85,213.99z"/>
	<path class="st1" d="M230.73,185.68c1.36-0.82,1.37-0.83,2.45,0.48c0.49,0.6,0.94,1.23,1.45,1.9c-1.05,0.63-2.03,1.21-3.04,1.81
		c0.44,0.73,0.86,1.41,1.28,2.09c0.23,0.37,0.28,0.58-0.21,0.87c-3.52,2.02-7.02,4.09-10.52,6.15c-3.36,1.98-6.72,3.97-10.08,5.94
		c-3.92,2.3-7.85,4.58-11.77,6.88c-2.15,1.26-4.25,2.61-6.44,3.79c-1.58,0.85-3.04,1.88-4.62,2.73c-1.57,0.85-3.09,1.8-4.64,2.69
		c-0.14,0.08-0.36,0.13-0.49,0.08c-1.35-0.58-2.69-1.18-4.03-1.78c-0.07-0.03-0.12-0.1-0.22-0.19c0.78-0.47,1.54-0.92,2.44-1.46
		c-1.09-0.42-2.03-0.88-3.02-1.13c-0.37-0.09-0.89,0.26-1.28,0.51c-0.42,0.27-0.81,0.27-1.25,0.14c-2.36-0.7-4.72-1.43-7.09-2.07
		c-1.01-0.27-2.07-0.37-3.24-0.57c0.56-0.35,1.04-0.66,1.54-0.95c3.26-1.91,6.53-3.82,9.8-5.74c3.19-1.87,6.38-3.75,9.58-5.62
		c3.23-1.89,6.46-3.78,9.7-5.67c3.87-2.27,7.75-4.53,11.62-6.8c3.2-1.87,6.39-3.75,9.58-5.63c1.94-1.14,3.89-2.28,5.82-3.45
		c0.45-0.27,0.76-0.2,1.12,0.12C226.98,182.42,228.83,184.02,230.73,185.68z M191.32,215.75c0.08,0.03,0.16,0.05,0.24,0.08
		c-0.34-1,0.48-0.94,0.9-1.32c-0.35-0.1-0.75-0.19-0.94-0.03c-0.24,0.2-0.34,0.6-0.44,0.93
		C191.06,215.49,191.24,215.63,191.32,215.75z"/>
	<path class="st1" d="M189.8,247.59c0.53-0.26,1.08-0.49,1.6-0.79c2.01-1.17,4.01-2.37,6.11-3.61c0.05,0.76,0.09,1.46,0.14,2.16
		c0.07,0.04,0.15,0.08,0.22,0.12c0.98-0.82,1.99-1.6,2.92-2.46c0.82-0.75,1.51-1.6,1.87-2.69c0.05-0.15,0.23-0.29,0.38-0.38
		c1.64-0.97,3.31-1.91,4.93-2.91c0.54-0.33,0.98-0.11,1.44,0.02c1.74,0.51,3.51,0.62,5.3,0.43c0.11-0.01,0.23,0.14,0.35,0.15
		c0.21,0.02,0.43,0.04,0.62-0.02c3.16-1,5.81-2.8,8.16-5.11c0.64-0.62,1.5-1.01,2.16-1.62c0.68-0.63,1.3-1.35,1.84-2.11
		c0.97-1.37,1.69-2.87,2.22-4.47c0.07-0.21,0.35-0.36,0.55-0.5c0.54-0.37,1.08-0.72,1.63-1.08c0,0-0.02,0.02-0.02,0.02
		c0.83-0.45,1.66-0.88,2.48-1.34c1.39-0.8,2.77-1.63,4.32-2.54c-0.36,0.97-0.67,1.79-0.97,2.61c-0.3,0.86-0.59,1.71-0.87,2.58
		c-0.14,0.43-0.26,0.85-0.77,1c-1.32,0.4-1.38,1.59-1.6,2.65c-0.18,0.87-0.26,1.76-0.42,2.64c-0.03,0.16-0.19,0.35-0.33,0.44
		c-0.59,0.38-1.21,0.73-1.77,1.07c0.06,0.19,0.17,0.37,0.16,0.54c-0.05,1.32-0.11,2.64-0.22,3.95c-0.02,0.22-0.24,0.52-0.44,0.61
		c-0.69,0.31-1.09,0.73-0.91,1.53c0.29,1.31-0.26,2.03-1.45,2.68c-3.33,1.82-6.58,3.8-9.85,5.72c-3.23,1.89-6.44,3.81-9.67,5.7
		c-3.21,1.88-6.46,3.68-9.61,5.66c-1.16,0.73-2.3,0.87-3.57,0.8c-0.28-0.02-0.67,0-0.81-0.17c-0.63-0.75-1.13-0.19-1.66,0.09
		c-0.37,0.2-0.72,0.44-1.13,0.69c-0.27-0.23-0.54-0.47-0.71-0.62c-1.3,0.21-2.53,0.41-3.76,0.61c-0.65,0.11-1.11-0.24-1.51-0.71
		c-0.6,0.5-1.17,1.02-2.16,0.83c0.69-0.42,1.27-0.78,1.99-1.21c-0.76-0.16-1.39-0.31-2.02-0.42c-0.12-0.02-0.27,0.1-0.39,0.18
		c-0.2,0.13-0.38,0.37-0.59,0.4c-1.39,0.2-2.8,0.5-4.11-0.45c-0.23,0.01-0.51,0.54-0.73,0.12c-0.49-0.13-0.91-0.24-1.34-0.35
		c-0.11-0.03-0.27-0.08-0.32-0.03c-0.64,0.56-1.41,0.39-2.15,0.41c-0.63,0.02-1.27-0.09-1.76,0.53c-0.32,0.41-0.84,0.29-1.31,0.17
		c-0.39-0.1-0.8-0.15-1.28-0.23c0.14-0.12,0.23-0.24,0.35-0.31c2.57-1.5,5.13-3,7.7-4.51c0.09-0.05,0.14-0.17,0.2-0.26l-0.02,0.02
		c0.16-0.05,0.34-0.08,0.49-0.16c0.54-0.3,1.08-0.62,1.62-0.94c2.77-1.62,5.54-3.25,8.31-4.87c0.09-0.05,0.14-0.17,0.2-0.26
		C189.82,247.57,189.8,247.59,189.8,247.59z M193.86,252.33c-0.03-0.04-0.14-0.2-0.25-0.36c-0.11,0.13-0.29,0.26-0.31,0.4
		c-0.05,0.39-0.28,0.43-0.59,0.45c-0.11,0.01-0.2,0.18-0.3,0.28c0.09,0.09,0.17,0.22,0.28,0.25
		C193.33,253.55,193.81,253.19,193.86,252.33z M191.49,251.53c0.04,0.04,0.17,0.18,0.3,0.31c0.09-0.14,0.17-0.3,0.28-0.43
		c0.13-0.15,0.29-0.29,0.45-0.42c0.11-0.09,0.22-0.17,0.34-0.25c-0.12-0.1-0.24-0.26-0.37-0.28
		C191.85,250.35,191.5,250.69,191.49,251.53z"/>
	<path class="st1" d="M223.88,175.1c-23.76,13.93-47.48,27.84-71.27,41.79c-0.01-0.29-0.02-0.52-0.04-0.93
		c-0.22,0.14-0.5,0.24-0.5,0.33c0.03,0.62-0.34,0.71-0.75,0.68c-0.44,0.2,0.46,0.75-0.4,0.83c-0.22-0.55-0.45-1.14-0.67-1.72
		c0.06,0.01,0.13,0.02,0.19,0.03c0.13-0.21,0.23-0.44,0.39-0.63c0.14-0.16,0.33-0.27,0.51-0.39c0.15-0.1,0.31-0.19,0.59-0.37
		c-1.09-0.3-1.34-0.12-1.72,1.04c-0.14-0.31-0.23-0.54-0.37-0.86c-1.1,0.63-2.19,1.25-3.37,1.92c-0.17-0.68-0.36-1.35-0.51-2.03
		c-0.12-0.53-0.16-1.09-0.3-1.61c-0.1-0.36,0.03-0.53,0.3-0.68c4.23-2.47,8.46-4.93,12.68-7.4c2.4-1.41,4.79-2.83,7.18-4.25
		c0.14-0.08,0.29-0.13,0.52-0.1c-0.16,0.15-0.33,0.3-0.53,0.48c0.37,0.49,0.69,1.03,1.26,1.34c0.13-0.63-0.91-0.91-0.44-1.53
		c0.53,0.04,0.95,0.07,1.38,0.09c0.02,0.04,0.04,0.08,0.06,0.12c-0.21,0.1-0.42,0.21-0.63,0.31c0,0.06,0,0.11,0,0.17
		c0.23,0,0.52,0.09,0.68-0.02c0.18-0.12,0.36-0.45,0.31-0.63c-0.05-0.18-0.36-0.33-0.58-0.4c-0.18-0.05-0.4,0.04-0.6,0.08
		c-0.02-0.06-0.04-0.12-0.05-0.18c0.19-0.08,0.38-0.16,0.62-0.27c-0.12-0.13-0.22-0.24-0.42-0.46c0.25,0.02,0.45-0.02,0.53,0.06
		c0.22,0.21,0.38,0.47,0.57,0.71c0.31,0.4,0.63,0.48,1,0.07c0.12-0.13,0.29-0.21,0.5-0.36c-0.29-0.43-0.59-0.87-0.89-1.31
		c0.04-0.05,0.09-0.09,0.13-0.14c0.73,0.39,0.92,1.38,1.64,1.78c0.05-0.04,0.11-0.08,0.16-0.12c-0.1-0.22-0.21-0.44-0.33-0.69
		c1.03-0.56,0.38-1.17-0.01-1.8c0.57,0.23,0.83,1.26,1.64,0.59c0.15-0.12,0.16-0.41,0.24-0.65c-0.48-0.06-0.45,0.81-0.97,0.29
		c0.02-0.43,0.98-0.43,0.42-1.13c0.06-0.01,0.12-0.03,0.18-0.04c0.22,0.26,0.42,0.52,0.65,0.76c0.08,0.08,0.23,0.1,0.34,0.14
		c-0.01-0.12,0.03-0.27-0.03-0.36c-0.16-0.25-0.35-0.48-0.53-0.72c0.45-0.52,0.79-0.2,1.17,0.04c0.16,0.1,0.38,0.1,0.57,0.14
		c-0.01-0.19-0.02-0.37-0.03-0.56c-0.01-0.06-0.06-0.11-0.06-0.17c-0.01-0.14-0.01-0.29-0.02-0.44c0.14,0.05,0.29,0.07,0.4,0.15
		c0.47,0.32,1,0.22,1.15-0.26c0.04-0.13-0.02-0.3-0.03-0.52c-0.36,0.18-0.36,0.9-0.92,0.38c0.43-0.34,0.73-0.81,1.41-0.48
		c0.36,0.18,0.82-0.18,0.84-0.64c0.01-0.39,0.19-0.5,0.51-0.49c0.35,0.02,0.47-0.19,0.69-0.43c0.36-0.4,0.9-0.65,1.38-0.93
		c3.89-2.29,7.78-4.58,11.67-6.86c3.42-2,6.86-3.99,10.28-5.99c3.18-1.86,6.37-3.72,9.53-5.61c0.53-0.32,0.99-0.36,1.52-0.14
		c0.75,0.31,1.51,0.59,2.24,0.93c0.48,0.22,0.85,0.18,1.29-0.1c1.04-0.66,2.1-1.27,3.18-1.86c0.21-0.12,0.58-0.15,0.78-0.05
		c1.21,0.59,2.4,1.23,3.59,1.85C223.81,174.91,223.82,174.99,223.88,175.1z M165.43,202.87c0.09-0.11,0.16-0.2,0.25-0.28
		c0.21-0.2,0.57-0.34,0.21-0.71c-0.31-0.32-0.64-0.31-0.96-0.02c-0.32,0.29-0.35,0.63-0.1,0.97c0.28,0.37,0.54,0.83,1.12,0.56
		c0.35-0.16,0.57-0.44,0.38-0.9C165.96,202.61,165.98,203.35,165.43,202.87z M164.16,204.2c0.02,0.09,0.03,0.17,0.05,0.26
		c0.25-0.07,0.55-0.07,0.73-0.22c0.14-0.12,0.23-0.52,0.14-0.61c-0.16-0.17-0.46-0.22-0.7-0.27c-0.14-0.03-0.31,0.04-0.46,0.06
		c-0.01-0.05-0.03-0.1-0.04-0.15c0.19-0.1,0.38-0.2,0.56-0.3c-0.01-0.06-0.02-0.12-0.02-0.18c-0.2,0.01-0.46-0.04-0.59,0.06
		c-0.17,0.13-0.36,0.41-0.33,0.58c0.16,0.79,0.84,0.17,1.38,0.44C164.56,204,164.36,204.1,164.16,204.2z"/>
	<path class="st1" d="M141.35,213.24c-0.07-1.43-0.15-2.78-0.18-4.14c0-0.19,0.24-0.45,0.44-0.57c1.29-0.78,2.6-1.54,3.91-2.27
		c0.39-0.22,0.53-0.47,0.55-0.91c0.05-1.16,0.13-2.31,0.26-3.46c0.03-0.24,0.27-0.54,0.5-0.67c4.04-2.38,8.09-4.72,12.13-7.09
		c4.06-2.38,8.11-4.78,12.17-7.16c5.1-2.99,10.21-5.96,15.31-8.95c3.97-2.33,7.94-4.67,11.91-7.01c0.12-0.07,0.25-0.13,0.36-0.19
		c0.05,0.03,0.11,0.05,0.12,0.08c0.23,1.04,0.57,1.18,1.52,0.65c0.09-0.05,0.17-0.14,0.26-0.15c0.2-0.01,0.41,0.02,0.61,0.03
		c-0.02,0.22,0.05,0.52-0.07,0.66c-0.23,0.26-0.58,0.43-0.86,0.66c-0.11,0.09-0.17,0.23-0.25,0.34c0.15,0.02,0.36,0.1,0.45,0.03
		c0.42-0.34,0.87-0.67,1.18-1.1c0.14-0.2,0.11-0.75-0.06-0.91c-0.21-0.2-0.65-0.21-0.98-0.19c-0.24,0.02-0.46,0.27-0.71,0.33
		c-0.18,0.04-0.53-0.03-0.56-0.12c-0.06-0.19-0.02-0.52,0.11-0.63c0.42-0.36,0.89-0.67,1.38-0.94c0.14-0.07,0.47,0.01,0.59,0.14
		c0.38,0.4,0.68,0.86,1.04,1.27c0.09,0.1,0.3,0.11,0.45,0.16c-0.01-0.16,0.04-0.36-0.04-0.48c-0.32-0.45-0.68-0.87-1.07-1.35
		c0.93-0.16,1.8,0.24,2.71,0.49c0.89,0.25,1.84,0.28,2.76,0.41c0.01,0.07,0.02,0.14,0.03,0.21c-0.7,0.41-1.4,0.82-2.1,1.23
		c-0.69,0.4-1.37,0.81-2.17,1.28c1.59,0.5,3.04,0.95,4.5,1.4c0.01,0.06,0.02,0.11,0.03,0.17c-9.25,5.43-18.51,10.85-27.77,16.28
		c-0.03-0.14-0.06-0.26-0.14-0.57c-0.29,0.41-0.49,0.7-0.69,0.98c-0.05,0.06-0.1,0.13-0.17,0.17c-0.75,0.37-1.53,0.7-2.25,1.12
		c-0.52,0.3-0.95,0.77-1.47,1.08c-5.15,3.03-10.32,6.04-15.48,9.06c-4.69,2.75-9.37,5.52-14.05,8.28c-1.27,0.75-2.53,1.49-3.8,2.23
		C141.69,213.19,141.6,213.19,141.35,213.24z"/>
	<path class="st1" d="M147.53,198.71c0.32-1.48,0.6-2.78,0.91-4.25c-2.44,1.42-4.8,2.8-7.17,4.18c-0.05-0.04-0.11-0.09-0.16-0.13
		c0.68-1.49,1.46-2.95,2.02-4.49c0.62-1.69,2.08-2.31,3.44-3.11c3.68-2.17,7.37-4.33,11.05-6.48c3.84-2.25,7.69-4.49,11.53-6.74
		c3.2-1.87,6.41-3.72,9.58-5.65c0.97-0.59,2.02-0.53,3.05-0.66c1.29-0.17,2.59-0.26,3.88-0.28c0.92-0.02,1.71-0.29,2.49-0.76
		c2.5-1.5,5.03-2.98,7.56-4.43c0.29-0.17,0.69-0.22,1.03-0.19c1.89,0.2,3.78,0.44,5.84,0.68
		C184.22,177.23,165.94,187.89,147.53,198.71z"/>
	<path class="st1" d="M196.58,224.1c-1.15,0.67-2.27,1.33-3.41,2c-0.1-0.21-0.18-0.37-0.29-0.59c-0.11,0.07-0.2,0.11-0.22,0.16
		c-0.32,1.12-1.32,1.5-2.19,2.02c-0.79,0.47-1.59,0.92-2.43,1.35c1.22-1.82,2.46-3.62,3.31-5.64c-0.04-0.04-0.08-0.07-0.12-0.11
		c-0.38,0.21-0.76,0.42-1.21,0.66c-0.38-1.72-2.01-1.91-3.31-2.68c0.87-0.52,1.67-1.01,2.47-1.48c3.01-1.76,6.02-3.51,9.02-5.27
		c2.81-1.65,5.62-3.31,8.43-4.96c3.25-1.9,6.5-3.8,9.75-5.7c3.85-2.26,7.71-4.52,11.56-6.77c2.36-1.38,4.74-2.75,7.07-4.18
		c0.54-0.33,0.67-0.05,0.84,0.31c0.39,0.81,0.77,1.63,1.18,2.48c0.58-0.33,1.12-0.63,1.72-0.98c0.38,1.17,0.75,2.25,1.1,3.35
		c0.12,0.38,0.05,0.65-0.37,0.88c-3.87,2.24-7.72,4.51-11.58,6.77c-3.85,2.26-7.71,4.51-11.56,6.77c-0.94,0.55-1.85,1.15-2.81,1.65
		c-0.69,0.36-1.46,0.58-2.2,0.85c-2.12,0.78-4.27,1.48-6.36,2.34c-2.35,0.97-4.64,2.05-6.95,3.12
		C196.21,221.3,195.91,222.07,196.58,224.1z"/>
	<path class="st1" d="M179.22,253.79c-0.56,0.29-1.15,0.54-1.69,0.86c-2.62,1.53-5.24,3.04-7.83,4.62
		c-0.96,0.58-2.42-0.25-2.21-1.36c0.38-2.02-1-2.92-2.45-3.69c-0.62-0.33-1.16-0.92-2-0.86c-0.39,0.03-0.54,0.13-0.63,0.46
		c-0.34,1.23-0.67,2.46-1.03,3.68c-0.26,0.87-1.2,1.13-1.94,0.54c-0.22-0.17-0.42-0.38-0.65-0.55c-0.27-0.19-0.48-0.61-0.92-0.25
		c-0.04,0.03-0.22-0.06-0.3-0.13c-0.99-0.82-1.97-1.64-3.04-2.53c1.13-0.66,2.19-1.27,3.23-1.9c0.35-0.21,0.66-0.48,0.98-0.72
		l-0.02,0.02c0.17-0.05,0.35-0.08,0.49-0.16c0.53-0.3,1.04-0.62,1.56-0.92c2.78-1.62,5.55-3.23,8.33-4.86
		c0.1-0.06,0.17-0.2,0.25-0.3l-0.02,0.02c0.15-0.04,0.31-0.05,0.44-0.13c2.91-1.7,5.83-3.4,8.73-5.11c0.5-0.3,0.97-0.66,1.45-0.99
		l-0.02,0.02c0.6-0.31,1.21-0.59,1.8-0.93c1.65-0.95,3.29-1.92,4.93-2.88c0.04,0.04,0.08,0.09,0.12,0.13
		c-0.43,0.37-0.84,0.77-1.29,1.11c-1.01,0.77-2.02,1.55-2.12,2.93c-0.04,0.54,0.12,1.1,0.18,1.66c0.02,0.26,0,0.53,0,0.98
		c0.42,0.5,0.97,1.18,1.53,1.85c0.13,0.15,0.26,0.35,0.43,0.41c0.22,0.08,0.52,0.13,0.73,0.04c0.29-0.13,0.44-0.19,0.73,0.06
		c0.49,0.43,1.06,0.76,1.59,1.13c0.06-0.03,0.12-0.06,0.19-0.09c0-0.53,0.09-1.08-0.02-1.59c-0.18-0.82,0.12-1.52,0.44-2.2
		c0.67-1.44,1.43-2.85,2.11-4.28c0.13-0.27,0.08-0.63,0.08-0.95c0.01-1.14,0.02-2.27,0-3.41c-0.01-0.34,0.08-0.57,0.39-0.73
		c0.42-0.22,0.83-0.47,1.36-0.78c0,1.17,0.03,2.22-0.01,3.26c-0.02,0.55,0.21,1.14-0.28,1.67c-0.14,0.15-0.02,0.64,0.1,0.93
		c0.33,0.82,0.72,1.61,1.11,2.44c0.21-0.11,0.37-0.19,0.65-0.33c0.35,0.77,0.81,1.5,1.01,2.29c0.5,1.99,0.66,1.33-1.06,2.39
		c-1.5,0.93-3.04,1.79-4.56,2.69c-0.09,0.05-0.14,0.17-0.21,0.26l0.02-0.02c-0.15,0.05-0.31,0.06-0.44,0.14
		c-2.9,1.68-5.79,3.36-8.68,5.06c-0.52,0.31-1.01,0.69-1.51,1.04L179.22,253.79z"/>
	<path class="st1" d="M223.12,180.54c-3.92,2.29-7.71,4.5-11.5,6.72c-3.21,1.88-6.42,3.77-9.64,5.66
		c-3.85,2.26-7.71,4.51-11.56,6.77c-3.21,1.88-6.42,3.78-9.64,5.66c-3.85,2.26-7.71,4.51-11.57,6.77c-1.3,0.76-2.6,1.54-3.91,2.28
		c-0.28,0.16-0.63,0.23-0.96,0.25c-1.56,0.08-3.14-0.01-4.67,0.2c-2.15,0.31-3.85,1.43-4.77,3.48c-0.29,0.65-0.38,1.39-0.6,2.09
		c-0.07,0.23-0.17,0.53-0.35,0.64c-2.06,1.22-4.13,2.42-6.21,3.62c-0.02,0.01-0.04,0-0.1,0c-0.45-1.23-0.9-2.48-1.36-3.76
		c1.84-1.1,3.68-2.21,5.54-3.3c2-1.17,4.01-2.31,6.01-3.48c3.21-1.88,6.41-3.77,9.61-5.65c3.24-1.9,6.49-3.8,9.74-5.7
		c3.89-2.27,7.78-4.54,11.66-6.82c3.85-2.26,7.7-4.54,11.55-6.8c3.83-2.25,7.67-4.48,11.5-6.72c2.36-1.38,4.72-2.77,7.08-4.15
		c0.13-0.08,0.36-0.16,0.46-0.1C220.65,178.95,221.83,179.71,223.12,180.54z"/>
	<path class="st1" d="M163.54,234.85c0.98,0.57,1.9,1.11,2.82,1.66c0.37,0.22,0.76,0.34,1.1,0.03c1.08-0.99,2.18-0.9,3.51-0.43
		c1.23,0.43,2.6,0.46,3.99,0.68c-4.85,2.85-9.71,5.7-14.58,8.55c-0.55-0.2-0.33-0.63-0.23-1.12c-0.3,0.25-0.51,0.41-0.76,0.62
		c0.14,0.16,0.29,0.32,0.4,0.5c0.05,0.08,0.04,0.21,0.05,0.32c-0.11,0.01-0.23,0.05-0.32,0.01c-0.93-0.44-1.24-0.26-1.34,0.75
		c-0.01,0.15-0.16,0.29-0.2,0.36c-0.37-0.13-0.67-0.24-1.06-0.38c0.05,0.22,0.12,0.37,0.1,0.5c-0.02,0.16-0.07,0.39-0.19,0.46
		c-1.05,0.66-2.14,1.26-3.17,1.94c-0.49,0.32-0.8,0.29-1-0.24c-0.25-0.65-0.47-1.32-0.69-1.98c-0.06-0.18-0.06-0.38-0.11-0.67
		c-0.47,0.26-0.87,0.48-1.34,0.74c-0.02-0.24-0.06-0.45-0.06-0.66c0.01-1.2,0.02-2.4,0.07-3.59c0.01-0.22,0.22-0.51,0.42-0.63
		c2.35-1.41,4.71-2.79,7.07-4.17C159.86,237,161.72,235.92,163.54,234.85z"/>
	<path class="st1" d="M155.77,220.9c-0.17,2.74,0.69,5.16,2.05,7.5c0.5-0.26,0.96-0.51,1.41-0.75c0.81,1.06,1.59,2.1,2.43,3.2
		c-0.93,0.55-1.86,1.11-2.91,1.73c0.85,0.75,1.62,1.43,2.44,2.16c-4.34,2.54-8.63,5.06-13.04,7.65c-0.01-0.3-0.03-0.5-0.03-0.71
		c0-1.14,0.04-2.28,0.01-3.41c-0.01-0.47,0.19-0.7,0.55-0.9c0.91-0.51,1.82-1.02,2.71-1.57c0.18-0.11,0.38-0.35,0.39-0.54
		c0.04-0.89,0.02-1.78,0.02-2.79c-0.43,0.2-0.79,0.37-1.2,0.56c-0.08-0.71-0.11-1.38-0.22-2.03c-0.36-1.99-0.76-3.97-1.11-5.96
		c-0.03-0.18,0.08-0.49,0.22-0.58c2-1.21,4.01-2.38,6.03-3.56C155.55,220.87,155.62,220.9,155.77,220.9z"/>
	<path class="st1" d="M158.74,251.96c-0.5,0.24-1,0.47-1.48,0.74c-1,0.56-1.98,1.15-3.03,1.77c-0.53-0.45-1.09-0.92-1.61-1.36
		c0.17-0.31,0.32-0.6,0.47-0.88c-0.06-0.04-0.12-0.08-0.17-0.12c-0.26,0.18-0.37,0.82-0.9,0.31c0.26-0.23,0.48-0.42,0.78-0.68
		c-0.23-0.21-0.44-0.4-0.66-0.61c0.19-0.31,0.38-0.29,0.61,0.03c0.27,0.36,0.57,0.7,0.85,1.05c0.06-0.03,0.11-0.07,0.17-0.1
		c-0.02-0.11-0.02-0.25-0.08-0.34c-0.13-0.2-0.33-0.37-0.43-0.58c-0.07-0.16-0.02-0.37-0.02-0.55c0.18,0.01,0.37-0.03,0.52,0.03
		c0.26,0.12,0.47,0.31,0.72,0.45c0.11,0.06,0.35,0.09,0.37,0.05c0.07-0.12,0.1-0.3,0.07-0.43c-0.1-0.35-0.26-0.68-0.32-1.06
		c0.54,0.2,0.87,0.99,1.54,0.41c0.16-0.14,0.19-0.43,0.33-0.77c-0.5,0.12-0.45,0.92-1.04,0.43c0.26-0.33,0.51-0.65,0.65-0.83
		c0.47,0.04,0.88,0.14,1.25,0.08c0.15-0.03,0.24-0.43,0.28-0.71c-0.36,0.08-0.43,0.86-1.02,0.21c0.56-0.27,0.92-0.85,1.64-0.55
		c0.13,0.05,0.36-0.14,0.5-0.35c-0.12-0.03-0.24-0.05-0.38-0.08c0.06-0.06,0.09-0.12,0.13-0.15c2.21-1.13,4.25-2.56,6.41-3.77
		c2.16-1.22,4.28-2.49,6.42-3.73c0.49-0.28,0.96-0.59,1.46-0.86c0.24-0.13,0.52-0.25,0.79-0.27c3.97-0.26,7.2-2.06,9.98-4.79
		c0.72-0.7,1.31-1.52,2.02-2.23c0.4-0.4,0.9-0.72,1.4-1.02c0.97-0.6,1.97-1.16,3.06-1.68c-0.33,0.69-0.63,1.39-0.98,2.07
		c-0.68,1.3-1.37,2.6-2.1,3.87c-0.19,0.33-0.49,0.65-0.81,0.85c-1.93,1.16-3.89,2.27-5.83,3.41c-0.14,0.08-0.23,0.24-0.35,0.36
		l0.02-0.02c-0.2,0.07-0.42,0.1-0.61,0.21c-2.85,1.66-5.69,3.31-8.53,4.99c-0.52,0.31-1,0.69-1.49,1.04c0,0,0.02-0.02,0.02-0.02
		c-0.2,0.07-0.42,0.1-0.6,0.21c-2.83,1.64-5.65,3.29-8.47,4.96c-0.54,0.32-1.03,0.71-1.55,1.07L158.74,251.96z"/>
	<path class="st1" d="M232.96,208.46c0.77-0.41,1.55-0.81,2.31-1.25c1.13-0.65,2.25-1.32,3.38-1.98c0.13-0.08,0.29-0.11,0.52-0.19
		c0.05,1.44,0.1,2.81,0.14,4.19c0.01,0.26-0.1,0.48-0.4,0.28c-0.44-0.28-0.67,0.11-0.82,0.33c-0.17,0.25-0.57,0.51-0.24,0.93
		c0.1,0.13,0.16,0.28,0.25,0.42c0.2,0.3,0.37,0.68,0.9,0.22c-0.07,0.55-0.12,0.97-0.17,1.37c-0.97,0.29-1.11,0.2-1.89-1.28
		c0.19-0.22,0.39-0.45,0.69-0.78c-0.31-0.04-0.55-0.15-0.63-0.08c-0.6,0.5-0.84,0.02-1.12-0.38c-0.04-0.06-0.11-0.11-0.32-0.14
		c0.01,0.22-0.06,0.51,0.05,0.65c0.36,0.46,0.14,0.77-0.18,1.09c-0.88,0.2-1.55,0.73-2.15,1.38c-1.01,0.09-1.66,0.87-1.27,1.69
		c0.38,0.78,0.95,1.47,1.45,2.24c0.26-0.2,0.41-0.31,0.6-0.45c-0.4-0.58-0.8-1.12-1.14-1.68c-0.12-0.2-0.22-0.6-0.12-0.71
		c0.3-0.32,0.42-0.69,0.47-1.1c0.1,0.06,0.26,0.11,0.29,0.19c0.35,1.02,0.66,1.17,1.67,0.77c0.09-0.04,0.19-0.11,0.28-0.1
		c0.18,0.02,0.36,0.08,0.54,0.12c-0.06,0.18-0.07,0.42-0.2,0.52c-0.25,0.2-0.58,0.28-0.84,0.47c-0.12,0.09-0.21,0.32-0.19,0.47
		c0.01,0.08,0.32,0.24,0.39,0.19c0.52-0.33,1.07-0.65,1.49-1.08c0.32-0.33,0.25-0.87-0.12-1.15c-0.26-0.21-0.68-0.26-1.03-0.29
		c-0.22-0.01-0.45,0.19-0.68,0.23c-0.15,0.03-0.32-0.07-0.48-0.11c0.05-0.16,0.05-0.39,0.15-0.47c0.27-0.2,0.59-0.34,0.93-0.52
		c-0.02-0.19-0.03-0.41-0.05-0.63c0.8,0,1.22,0.51,1.6,1.14c0.5,0.84,0.74,0.9,1.81,0.68c0,0.46,0.09,0.91-0.02,1.32
		c-0.34,1.37-0.76,2.72-1.14,4.08c-0.18,0.64-0.77,0.79-1.24,1.07c-1.3,0.79-2.63,1.54-3.94,2.31c-0.1,0.06-0.16,0.2-0.24,0.31
		c0,0,0.02-0.02,0.02-0.02c-0.6,0.3-1.2,0.58-1.79,0.9c-0.61,0.33-1.2,0.7-1.83,1.06c0.12-0.92,0.24-1.75,0.34-2.59
		c0.05-0.44,0.09-0.88,0.12-1.32c0.01-0.11-0.04-0.29-0.1-0.32c-0.82-0.34-0.66-1.25-1.04-1.86c0.22,0.24,0.48,0.46,0.67,0.72
		c0.33,0.44,0.79,0.46,1.26,0.43c0.49-0.03,0.59-0.3,0.3-0.77c-1.13,0.41-1.27-0.7-1.92-1.15c0.23-0.26,0.41-0.45,0.58-0.64
		c-0.15-0.46-0.37-0.55-0.75-0.23c-0.1,0.08-0.33-0.01-0.5-0.02c0.02-0.16,0.03-0.32,0.05-0.51c-0.23,0.07-0.56,0.18-0.99,0.31
		c-1.19-1.05-2.76-1.47-4.42-1.72c0.06-0.13,0.11-0.24,0.16-0.35l-0.02,0.01c0.15-0.04,0.31-0.06,0.44-0.14
		c1.44-0.83,2.88-1.65,4.31-2.5c0.52-0.31,0.99-0.69,1.48-1.03l-0.02,0.02c0.17-0.05,0.35-0.07,0.49-0.16
		c0.91-0.52,1.81-1.04,2.7-1.59c0.42-0.25,0.81-0.55,1.21-0.83L232.96,208.46z M232.17,216.32c-0.48-1-0.93-1.34-1.56-1.23
		c-1.29,0.24-1.75,1.44-0.94,2.46c0.11,0.14,0.23,0.28,0.35,0.42c0.65,0.77,1.32,0.82,2.08,0.15c0.31-0.27,0.67-0.55,0.39-1.25
		c-0.25,0.23-0.44,0.4-0.64,0.56c-0.21,0.17-0.41,0.38-0.66,0.45c-0.13,0.04-0.33-0.18-0.58-0.32
		C231.2,217.09,231.69,216.71,232.17,216.32z"/>
	<path class="st1" d="M203.32,257.17c10.29-6.04,20.53-12.04,30.84-18.08c0.03,0.22,0.06,0.35,0.07,0.47
		c0.02,0.79-0.08,1.6,0.06,2.37c0.27,1.43-0.45,2.09-1.61,2.73c-3.08,1.7-6.1,3.53-9.14,5.31c-3.86,2.26-7.71,4.51-11.56,6.77
		c-0.56,0.33-1.14,0.62-1.65,1.01c-0.82,0.61-1.64,0.4-2.46,0.09c-0.3-0.11-0.54-0.28-0.88-0.07c-0.15,0.09-0.4,0.06-0.6,0.03
		c-0.82-0.11-1.65-0.22-2.47-0.36C203.73,257.42,203.55,257.29,203.32,257.17z"/>
	<path class="st1" d="M183.58,167.98c-11.57,6.78-23.13,13.56-34.7,20.35c-0.03-0.02-0.06-0.04-0.1-0.06
		c0.18-0.32,0.34-0.64,0.54-0.95c1.86-2.79,3.99-5.37,6.57-7.51c1.31-1.08,2.83-1.91,4.3-2.78c3.01-1.79,6.02-3.58,9.08-5.29
		c1.03-0.57,2.19-0.93,3.32-1.3c1.56-0.5,3.13-0.97,4.72-1.36c1.89-0.46,3.8-0.81,5.7-1.2c0.17-0.04,0.36,0,0.54,0
		C183.55,167.91,183.56,167.94,183.58,167.98z"/>
	<path class="st1" d="M222.37,214.66c-1.86,0.17-3.73,0.25-5.57,0.52c-1.64,0.24-3.24,0.69-4.86,1.04c-0.09,0.02-0.18,0.03-0.3-0.04
		c8.78-5.15,17.56-10.29,26.42-15.49c0.25,1.34,0.5,2.58,0.69,3.83c0.03,0.18-0.17,0.48-0.35,0.59c-1.71,1.02-3.44,2.01-5.16,3.02
		c-0.12,0.07-0.19,0.22-0.28,0.34c0,0,0.02-0.02,0.02-0.02c-0.13,0.02-0.28,0.01-0.39,0.08c-1.12,0.65-2.24,1.3-3.35,1.97
		c-0.24,0.15-0.45,0.35-0.67,0.53l0.02-0.02c-0.17,0.05-0.35,0.08-0.49,0.16c-1.42,0.82-2.85,1.63-4.26,2.48
		c-0.52,0.31-0.99,0.69-1.48,1.04L222.37,214.66z"/>
	<path class="st1" d="M220.21,252.97c4.64-2.72,9.28-5.44,13.94-8.17c0,1.48,0.02,2.91-0.01,4.34c-0.02,0.63-0.68,0.68-1.07,0.95
		c-0.61,0.42-1.33,0.7-1.91,1.16c-0.55,0.42-0.94,1.04-1.47,1.49c-2.22,1.92-4.46,3.82-6.71,5.72c-0.21,0.18-0.45,0.36-0.71,0.44
		c-0.85,0.25-1.24,0.01-1.51-0.85c-0.41-1.31-0.41-1.31,0.74-1.99c0.38-0.23,0.94-0.36,1.09-0.69c0.15-0.31-0.11-0.82-0.21-1.24
		c-0.11-0.45-0.25-0.89-0.4-1.41c-0.61,0.12-1.17,0.23-1.73,0.35C220.23,253.02,220.22,252.99,220.21,252.97z"/>
	<path class="st1" d="M194.92,230.79c0.69-0.36,1.38-0.71,2.08-1.08c0.75,0.97,1.79,1.85,2.23,2.98c0.44,1.14,1.39,1.65,2.06,2.47
		c0.45,0.54,0.91,0.49,1.32,0.09c1.38,0.76,2.73,1.49,4.14,2.26c-1.8,1.06-3.65,2.15-5.59,3.29c0.12-1,0.12-1.88-0.37-2.67
		c-0.04-0.07-0.08-0.14-0.13-0.21c-0.49-0.7-0.54-0.71-1.26-0.24c-0.96-0.65-2.01-1.3-2.38-2.45c-0.52-1.58-1.54-2.91-2.08-4.46
		L194.92,230.79z"/>
	<path class="st1" d="M217.91,254.49c-1.08,0.69-0.99,1.69-0.76,2.71c0.22,0.97-0.11,1.74-0.9,2.27c-0.32,0.21-0.79,0.3-1.18,0.28
		c-0.62-0.03-1.25-0.16-1.85-0.33c-0.42-0.13-0.8-0.4-1.24-0.63c-0.79,0.64-0.82,0.64-2.36,0.4c2.82-1.65,5.5-3.23,8.18-4.8
		C217.83,254.42,217.87,254.46,217.91,254.49z"/>
	<path class="st1" d="M194.94,230.77c-0.16-0.12-0.38-0.2-0.46-0.36c-0.36-0.67-0.68-1.37-1.03-2.05c-0.14-0.28-0.32-0.55-0.48-0.83
		c-0.06,0.02-0.13,0.04-0.19,0.06c-0.02,0.19-0.05,0.37-0.05,0.56c-0.01,1.05-0.03,2.11,0.01,3.16c0.02,0.45-0.14,0.71-0.53,0.9
		c-0.34,0.17-0.67,0.37-1.05,0.58c-0.03-0.16-0.07-0.28-0.07-0.41c-0.01-1.24-0.02-2.48,0.01-3.71c0-0.2,0.12-0.49,0.28-0.59
		c1.06-0.66,2.14-1.27,3.26-1.92c0.68,1.15,1.35,2.27,2.03,3.41c-0.49,0.29-0.96,0.56-1.42,0.85c-0.13,0.08-0.21,0.25-0.32,0.37
		C194.92,230.79,194.94,230.77,194.94,230.77z"/>
	<path class="st1" d="M168.55,199.3c0.29-0.02,0.83,0.76,0.72,1.03c-0.01,0.02-0.01,0.05-0.03,0.05c-0.1,0.04-0.27,0.12-0.3,0.09
		c-0.25-0.3-0.49-0.61-0.69-0.95c-0.05-0.08,0.08-0.26,0.12-0.4C168.43,199.18,168.49,199.24,168.55,199.3z"/>
	<path class="st1" d="M170.45,199.59c-0.24-0.37-0.42-0.62-0.56-0.89c-0.02-0.04,0.2-0.19,0.31-0.29c0.2,0.24,0.41,0.46,0.58,0.72
		C170.81,199.18,170.63,199.35,170.45,199.59z"/>
	<path class="st1" d="M191.32,215.75c-0.08-0.11-0.26-0.26-0.24-0.34c0.11-0.33,0.2-0.73,0.44-0.93c0.19-0.16,0.59-0.07,0.94,0.03
		c-0.43,0.38-1.25,0.32-0.9,1.32C191.48,215.8,191.4,215.77,191.32,215.75z"/>
	<path class="st1" d="M193.86,252.33c-0.05,0.86-0.53,1.22-1.17,1.02c-0.11-0.03-0.19-0.16-0.28-0.25c0.1-0.1,0.19-0.28,0.3-0.28
		c0.32-0.02,0.54-0.06,0.59-0.45c0.02-0.14,0.2-0.27,0.31-0.4C193.72,252.13,193.83,252.29,193.86,252.33z"/>
	<path class="st1" d="M191.49,251.53c0-0.84,0.36-1.18,0.99-1.07c0.14,0.02,0.25,0.18,0.37,0.28c-0.11,0.08-0.23,0.16-0.34,0.25
		c-0.16,0.13-0.32,0.26-0.45,0.42c-0.11,0.13-0.19,0.29-0.28,0.43C191.66,251.71,191.54,251.58,191.49,251.53z"/>
	<path class="st1" d="M165.43,202.87c0.55,0.48,0.53-0.26,0.9-0.37c0.18,0.46-0.03,0.74-0.38,0.9c-0.58,0.26-0.84-0.2-1.12-0.56
		c-0.26-0.34-0.22-0.69,0.1-0.97c0.32-0.28,0.65-0.29,0.96,0.02c0.36,0.37-0.01,0.51-0.21,0.71
		C165.6,202.67,165.53,202.76,165.43,202.87z"/>
	<path class="st1" d="M164.16,204.2c0.2-0.1,0.4-0.2,0.71-0.34c-0.54-0.27-1.22,0.35-1.38-0.44c-0.04-0.17,0.16-0.45,0.33-0.58
		c0.14-0.1,0.39-0.05,0.59-0.06c0.01,0.06,0.02,0.12,0.02,0.18c-0.19,0.1-0.38,0.2-0.56,0.3c0.01,0.05,0.03,0.1,0.04,0.15
		c0.15-0.02,0.32-0.09,0.46-0.06c0.25,0.05,0.55,0.1,0.7,0.27c0.09,0.09-0.01,0.5-0.14,0.61c-0.18,0.15-0.48,0.16-0.73,0.22
		C164.19,204.37,164.18,204.28,164.16,204.2z"/>
	<path class="st1" d="M232.17,216.32c-0.48,0.38-0.96,0.77-1.55,1.24c0.25,0.15,0.45,0.36,0.58,0.32c0.24-0.07,0.45-0.29,0.66-0.45
		c0.2-0.16,0.38-0.34,0.64-0.56c0.29,0.7-0.08,0.98-0.39,1.25c-0.76,0.68-1.43,0.62-2.08-0.15c-0.12-0.14-0.23-0.28-0.35-0.42
		c-0.81-1.02-0.36-2.22,0.94-2.46C231.24,214.98,231.68,215.33,232.17,216.32z M230.23,217.11c0.39-0.35,0.66-0.6,0.94-0.84
		c-0.14-0.14-0.36-0.44-0.41-0.41c-0.27,0.14-0.54,0.34-0.73,0.58C229.96,216.52,230.13,216.79,230.23,217.11z"/>
	<path class="st1" d="M235.38,211.84c0.02,0.22,0.04,0.44,0.05,0.63c-0.34,0.18-0.66,0.32-0.93,0.52c-0.11,0.08-0.11,0.31-0.15,0.47
		c0.16,0.04,0.33,0.13,0.48,0.11c0.24-0.04,0.46-0.25,0.68-0.23c0.35,0.02,0.77,0.08,1.03,0.29c0.37,0.29,0.44,0.82,0.12,1.15
		c-0.42,0.43-0.97,0.75-1.49,1.08c-0.07,0.04-0.39-0.11-0.39-0.19c-0.01-0.16,0.07-0.38,0.19-0.47c0.26-0.19,0.59-0.28,0.84-0.47
		c0.12-0.1,0.14-0.34,0.2-0.52c-0.18-0.04-0.36-0.11-0.54-0.12c-0.09-0.01-0.19,0.07-0.28,0.1c-1.01,0.4-1.32,0.25-1.67-0.77
		c-0.03-0.09-0.19-0.13-0.29-0.19l0.02,0.01c0.59-0.65,1.26-1.18,2.14-1.38C235.4,211.85,235.38,211.84,235.38,211.84z"/>
	<path class="st1" d="M233.24,213.22c-0.05,0.41-0.16,0.77-0.47,1.1c-0.1,0.11,0,0.51,0.12,0.71c0.34,0.57,0.74,1.1,1.14,1.68
		c-0.18,0.14-0.34,0.26-0.6,0.45c-0.51-0.76-1.08-1.45-1.45-2.24c-0.39-0.82,0.26-1.6,1.27-1.69
		C233.25,213.23,233.24,213.22,233.24,213.22z"/>
	<path class="st1" d="M222.35,214.67c0.49-0.35,0.97-0.73,1.48-1.04c1.41-0.84,2.84-1.66,4.26-2.48c0.15-0.08,0.33-0.11,0.49-0.16
		c-0.49,0.35-0.97,0.73-1.48,1.03c-1.43,0.85-2.87,1.68-4.31,2.5C222.66,214.61,222.5,214.63,222.35,214.67z"/>
	<path class="st1" d="M228.57,211.01c0.22-0.18,0.43-0.38,0.67-0.53c1.11-0.67,2.23-1.32,3.35-1.97c0.11-0.06,0.26-0.05,0.39-0.08
		c-0.4,0.28-0.79,0.58-1.21,0.83c-0.89,0.54-1.8,1.07-2.7,1.59C228.92,210.94,228.73,210.96,228.57,211.01z"/>
	<path class="st1" d="M230.23,217.11c-0.1-0.32-0.27-0.59-0.2-0.68c0.18-0.24,0.46-0.43,0.73-0.58c0.05-0.03,0.27,0.26,0.41,0.41
		C230.89,216.51,230.61,216.76,230.23,217.11z"/>
	<path class="st1" d="M201.45,168.45c-0.8,0.47-1.6,0.95-2.38,1.45c-0.16,0.1-0.33,0.22-0.39,0.4c-0.06,0.19,0.03,0.39,0.11,0.58
		c0.4,0.84,0.79,1.69,1.19,2.53c1.1-0.22,2.32-0.53,2.88-1.5c0.27-0.47,0.36-1.08,0.8-1.41c0.16-0.12,0.39-0.25,0.37-0.45
		c-0.01-0.12-0.1-0.21-0.19-0.29c-0.61-0.52-1.39-0.84-2.19-0.92"/>
	<path class="st1" d="M189.18,211.91c-0.45,1.55,0.1,3.34,1.33,4.37c0.41,0.35,0.99,0.62,1.48,0.4c0.6-0.27,0.69-1.07,0.69-1.73
		c0-0.59,0.01-1.18,0.01-1.77c0-0.22,0-0.46-0.15-0.62c-0.1-0.11-0.25-0.17-0.39-0.22c-1.13-0.4-2.26-0.81-3.39-1.21"/>
	<path class="st1" d="M178.98,192.95c-4.37,2.02-8.58,4.41-12.55,7.13c-0.47,0.32-0.99,0.73-1.02,1.3
		c-0.04,0.55,0.42,1.04,0.95,1.22c0.52,0.18,1.09,0.13,1.64,0.06c2.25-0.26,4.49-0.63,6.72-1.01c1.93-0.33,3.86-0.68,5.72-1.28
		c1.98-0.65,3.87-1.59,5.58-2.79c1.14-0.8,2.23-1.75,2.91-2.97c0.61-1.11,0.84-2.39,1.07-3.64c-1.99,0.4-3.88-1.17-5.83-0.98
		c-1.02,0.1-1.62,0.86-2.38,1.43C180.93,192.07,179.94,192.51,178.98,192.95z"/>
	<path class="st1" d="M217.84,259.43c0.31-0.03,0.63-0.08,0.91-0.22c0.28-0.14,0.5-0.38,0.77-0.55c0.98-0.64,2.29-0.33,3.45-0.53
		c0.28-0.05,0.57-0.13,0.77-0.33c0.2-0.19,0.29-0.46,0.37-0.72c0.58-1.8,0.97-3.67,1.16-5.55c-0.33-0.3-0.65-0.59-0.98-0.89
		c-0.08-0.07-0.17-0.14-0.27-0.14c-0.1,0.01-0.17,0.08-0.24,0.15c-1.14,1.14-2.5,2.06-3.99,2.7c-0.93,0.4-1.92,0.69-2.78,1.21
		c-0.87,0.52-1.63,1.34-1.77,2.35c-0.06,0.44-0.38,2.02-0.16,2.36C215.42,259.82,217.29,259.49,217.84,259.43z"/>
	<path class="st1" d="M158.76,246.02c-0.31,0.19-0.58,0.45-0.89,0.66c-0.45,0.3-0.98,0.49-1.53,0.52c-0.07,0-0.13,0.01-0.19-0.02
		c-0.15-0.07-0.17-0.27-0.17-0.43c0-0.22,0-0.44,0-0.66c0-0.17,0-0.34,0.08-0.48c0.07-0.12,0.18-0.2,0.29-0.28
		c0.84-0.58,1.73-1.09,2.65-1.54c0.08-0.04,0.16-0.08,0.25-0.07c0.37,0.01,1.2,0.9,1.15,1.3
		C160.32,245.61,159.19,245.75,158.76,246.02z"/>
	<path class="st1" d="M156.87,248c-0.37,0.15-0.71,0.35-1.05,0.55c-1.31,0.75-2.61,1.49-3.92,2.24c-0.21,0.12-0.45,0.27-0.49,0.51
		c-0.02,0.13,0.02,0.27,0.07,0.4c0.26,0.65,0.74,1.27,1.41,1.46c0.37,0.1,0.77,0.07,1.15,0c1.89-0.33,3.55-1.4,5.16-2.45
		c0.35-0.23,0.71-0.46,0.96-0.8c0.16-0.21,0.27-0.45,0.39-0.69c0.12-0.25,0.23-0.5,0.35-0.74c0.14-0.3,0.28-0.68,0.08-0.95
		c-0.34-0.45-1.45-0.61-1.96-0.44C158.3,247.34,157.58,247.72,156.87,248z"/>
	<path class="st1" d="M239.04,213.53c-0.03,0.34-0.06,0.68-0.22,0.98c-0.31,0.59-1.1,0.87-1.71,0.6c-0.55-0.24-0.86-0.8-1.21-1.29
		c-0.59-0.81-1.39-1.49-1.8-2.41c-0.08-0.18-0.15-0.37-0.14-0.57c0-0.32,0.18-0.62,0.42-0.83c0.48-0.43,1.14-0.57,1.77-0.69
		c0.69-0.13,1.4-0.32,2.1-0.4c0.41-0.04,0.79,0.03,0.91,0.47c0.16,0.59,0.02,1.4,0,2.01C239.14,212.11,239.14,212.83,239.04,213.53z
		"/>
	<path class="st1" d="M228.87,221.22c0.03,0.05,0.06,0.11,0.12,0.13c0.04,0.01,0.08,0,0.12,0c0.51-0.11,0.98-0.39,1.33-0.78
		c0.7-0.78,0.84-1.91,0.78-2.96c-0.01-0.16-0.02-0.33-0.08-0.48c-0.08-0.21-0.25-0.38-0.42-0.54c-0.61-0.56-1.32-1.02-2.08-1.34
		c-0.55-0.23-1.79-0.77-2.38-0.48c-0.67,0.33-0.66,1.07-0.24,1.53c0.59,0.63,0.97,1.33,1.38,2.09
		C227.91,219.32,228.4,220.26,228.87,221.22z"/>
	<path class="st1" d="M183.09,238.29c7.63-2.82,16.69-1.35,23.05,3.72c-0.08-3.08-1.66-6.06-4.1-7.93s-5.7-2.62-8.72-2.07
		c-2.45,0.44-4.69,1.67-7.03,2.52c-2.7,0.98-5.58,1.45-8.46,1.4c-2.34-0.04-5.41-1.21-6.07,1.98
		C170.55,243.76,181.04,239.05,183.09,238.29z"/>
	<path class="st1" d="M149.5,213.79c0.07,1.3,0.45,2.58,1.11,3.7c0.1,0.18,0.25,0.37,0.45,0.37c0.14,0,0.27-0.09,0.38-0.18
		c0.31-0.24,0.62-0.49,0.92-0.73c0.16-0.13,0.33-0.26,0.44-0.44c0.3-0.49,0.06-1.13-0.18-1.65c-0.33-0.71-0.66-1.42-0.99-2.13
		c-0.26-0.02-0.45,0.22-0.64,0.41c-0.81,0.81-2.09,0.84-3.24,0.81"/>
	<path class="st1" d="M228.6,234.79c-12.26,0.95-24.56,1.9-36.85,1.35c-6.89-0.31-13.89-1.08-20.62,0.43
		c-3.19,0.71-6.37,1.94-9.62,1.55c-1.01-0.12-1.99-0.4-2.94-0.76c-7.65-2.95-11.88-11.06-14.71-18.76
		c-0.79-2.16-1.54-4.46-1.09-6.71c0.89-4.45,5.81-6.68,10.13-8.08c12.16-3.94,24.62-6.94,37.24-8.96c6.29-1.01,12.7-1.77,19.03-1.08
		c6.34,0.69,12.66,2.96,17.3,7.34c1.83,1.73,3.35,3.74,4.87,5.74c0.92,1.22,1.84,2.43,2.65,3.73c2.45,3.95,3.75,8.57,4.01,13.22
		c0.12,2.1,0,4.33-1.14,6.09c-0.97,1.51-2.57,2.49-4.19,3.27c-3.3,1.59-6.91,2.54-10.56,2.78"/>
	<path class="st1" d="M170.62,293.64c0.86-9.1,1.48-19.05,1.83-29.34c0.67,12.02,1.89,22.84,3.49,30.88
		c0.48-11.15,1.2-21.9,2.14-31.89c0.76,10.52,1.52,21.03,2.28,31.55c0.82,1.3,1.43-4.4,1.77-9.17c0.46-6.58,0.92-13.17,1.38-19.75
		c1.03,11.31,2.06,22.62,3.08,33.92c0.86-11.16,1.59-22.66,2.2-34.41c0.95,10.28,2.09,19.88,3.4,28.55
		c0.5-8.01,1.01-16.03,1.51-24.04c0.49,10.35,0.98,20.7,1.47,31.06c1.19-9.56,2-20.89,2.35-32.75c1.02,9.11,1.91,18.77,2.66,28.84
		c1.44-10.38,2.35-23.49,2.58-37.07c0.97,13.76,1.93,27.53,2.9,41.29c-0.11-13.36,0.38-26.9,1.4-38.69
		c0.69,13.61,1.24,27.47,1.66,41.49c0.1-7.76,1.21-13.27,2.12-18.64c0.91-5.37,1.76-13.47,1.21-20.47
		c0.75,12.79,1.51,25.58,2.26,38.36c2.04-7.54,3.24-22.97,2.9-37.51c0.16,13.64,0.31,27.27,0.47,40.91
		c0.84-8.51,1.67-17.02,2.51-25.54c0.7-7.11,1.42-14.78,1.36-23.09c-1.45,1.93-2.95,0.9-4.42-0.25
		c-8.49-6.65-17.02-17.31-25.53-11.64c-1.73,1.15-3.45,2.98-5.18,3.9c-3.74,1.97-7.49-0.3-11.23-1.85c-2.06-0.86-5-1.87-6.68,7.35
		c-0.99,5.48-0.56,9.77,0.09,15.73C169.36,278.5,170.06,285.8,170.62,293.64z"/>
	<path class="st2" d="M141.9,216.55c-0.49,5.47,0.13,11.62,4.19,15.31c3.15,2.86,7.91,3.78,10.42,7.22
		c1.11,1.52,1.85,3.57,3.64,4.15c0.67,0.22,1.39,0.18,2.09,0.15c2.59-0.14,5.26-0.32,7.57-1.48s4.21-3.57,3.95-6.15
		c-2.71-1.35-6.35-0.66-8.54-2.76c-1.57-1.5-1.78-3.88-1.91-6.05c-0.17-3.01-0.34-6.02-0.51-9.03c-0.03-0.61-0.06-1.26,0.21-1.81
		c0.27-0.56,0.81-0.93,1.34-1.26c4.84-3.04,10.67-4.44,16.36-3.95c5.21,0.45,10.61,2.42,15.51,0.57c1.57-0.59,3-1.56,4.62-2.01
		c1.77-0.49,3.65-0.32,5.49-0.15c2.93,0.27,5.85,0.54,8.78,0.82c2.46,0.23,5.11,0.54,6.9,2.24c0.99,0.95,1.6,2.22,2.09,3.5
		c1.74,4.5,2.33,9.43,1.72,14.21c-2.34,2.17-5.55,3.37-8.74,3.3c2.15,1.06,3.8,3.1,4.38,5.42c3.84-0.7,7.56,3.39,11.27,2.18
		c1.51-0.49,2.62-1.79,3.46-3.14c2.15-3.47,3.01-7.57,3.83-11.57c0.74-3.6,1.48-7.24,1.41-10.91c-0.08-4.49-1.37-8.86-2.65-13.17
		c-4.19-2.1-6.65-6.63-10.57-9.2c-4.03-2.65-9.1-2.95-13.92-3.17c-6.92-0.32-13.83-0.64-20.75-0.95c-6.5-0.3-13.03-0.6-19.52-0.02
		c-4.36,0.39-8.73,1.19-12.75,2.92c-5.64,2.42-11.18,6.63-15.51,10.97c-1.39,1.39-3.76,3.5-4.18,5.52
		C141.09,210.64,142.13,213.96,141.9,216.55z"/>
	<path class="st2" d="M196.32,233.57c0.05,0.35,0.12,0.71,0.32,0.99c0.3,0.4,0.81,0.55,1.29,0.68c1.84,0.48,3.68,0.97,5.52,1.45
		c0.44,2.2,1.32,4.84,3.52,5.24c1.2,0.22,2.38-0.35,3.48-0.88c3.07-1.48,6.32-2.79,9.73-2.85c2.29-0.04,4.98,0.34,6.49-1.38
		c-1.39-0.25-2.78-0.49-4.17-0.74c-2.39-0.42-4.84-0.86-6.97-2.02c-4.76-2.57-7.02-8.05-8.89-13.12c-0.84-2.26-1.9-4.78-4.15-5.64
		C190.8,210.79,195.43,227.88,196.32,233.57z"/>
	<path class="st2" d="M234.75,202.7c1.36,0.27,2.74-0.26,4.01-0.81c7.17-3.1,13.95-7.03,20.71-10.96c1.31-0.76,2.81-1.88,2.61-3.39
		c-0.16-1.18-1.4-1.96-2.58-2.02c-1.19-0.06-2.32,0.43-3.4,0.92c-5.89,2.66-11.69,5.53-17.37,8.61
		C237.05,195.95,228.47,201.44,234.75,202.7z"/>
	<path class="st2" d="M234.07,227.99c0.52,1.29,1.72,2.15,2.87,2.91c6.52,4.3,13.53,7.81,20.52,11.31c1.36,0.68,3.12,1.32,4.26,0.32
		c0.9-0.78,0.87-2.25,0.27-3.27c-0.6-1.02-1.64-1.7-2.64-2.34c-5.45-3.47-11.03-6.74-16.72-9.81
		C240.97,226.22,231.68,222.05,234.07,227.99z"/>
	<path class="st2" d="M127.81,188.64c0.44,1.31,1.59,2.24,2.7,3.07c6.27,4.67,13.06,8.58,19.83,12.47c1.31,0.76,3.04,1.5,4.24,0.57
		c0.94-0.73,1-2.19,0.46-3.25c-0.54-1.06-1.53-1.79-2.5-2.49c-5.24-3.78-10.63-7.37-16.13-10.76
		C134.8,187.27,125.77,182.57,127.81,188.64z"/>
	<path class="st2" d="M128.91,245.88c1.36,0.27,2.74-0.26,4.01-0.81c7.17-3.1,13.95-7.03,20.71-10.96c1.31-0.76,2.81-1.88,2.61-3.39
		c-0.16-1.18-1.4-1.96-2.58-2.02c-1.19-0.06-2.32,0.43-3.4,0.92c-5.89,2.66-11.69,5.53-17.37,8.61
		C131.21,239.14,122.63,244.62,128.91,245.88z"/>
	<path class="st1" d="M161.38,200.34c1.18-3.17,5.32-3.79,8.71-3.89c4.12-0.13,8.24-0.25,12.36-0.38c1.54-0.05,3.14-0.08,4.55,0.52
		c1.09,0.47,1.99,1.28,2.98,1.94c3.9,2.6,9.4,2.5,13.21-0.22c1.07-0.76,2.03-1.72,3.26-2.19c1.08-0.41,2.27-0.4,3.43-0.38
		c3.78,0.06,7.57,0.11,11.35,0.17c3.24,0.05,6.59,0.12,9.53,1.47c3.7,1.7,6.33,5.33,7.33,9.28c1,3.95,0.51,8.18-0.82,12.03
		c-2.06,5.97-6.42,11.39-12.37,13.49c-5.95,2.11-13.43,0.18-16.69-5.23c-1.48-2.46-2.02-5.36-3.2-7.97
		c-1.19-2.61-3.42-5.11-6.28-5.2c-2.39-0.07-5.5,1.26-6.71-0.81c2.57,0.41,5.81,0.53,7.12-1.72c0.56-0.96,0.59-2.14,0.95-3.19
		c0.57-1.64,1.8-3.84,0.32-4.75c-0.46-0.28-1.03-0.28-1.57-0.27c-2.93,0.06-5.86,0.13-8.79,0.19c2.88,3.01,3.36,7.7,2.26,11.72
		c-1.09,4.01-3.52,7.52-5.9,10.93c-1.36,1.95-2.74,3.92-4.55,5.45c-3.71,3.13-8.95,4.07-13.72,3.19c-4.77-0.88-9.11-3.4-12.84-6.51
		c-1.55-1.3-3.07-2.78-3.74-4.69c-0.51-1.44-0.49-3.01-0.43-4.54c0.12-3.05,0.37-6.1,0.76-9.13c0.12-0.95,0.26-1.92,0.7-2.78
		c0.55-1.08,1.51-1.87,2.32-2.76c1.76-1.93,2.9-4.41,4.92-6.08c2.01-1.67,5.52-2.06,6.92,0.14"/>
	<path class="st1" d="M239.82,199.85c3.04-1.13,5.92-2.63,8.8-4.13c3-1.57,6-3.13,9-4.7c1.59-0.83,3.29-1.78,4.01-3.42
		c-0.06,1.41-1.47,2.31-2.72,2.97c-6.37,3.36-12.75,6.72-19.12,10.08c-1,0.53-2.08,1.07-3.21,0.96c-1-0.1-2.03-0.95-1.91-1.99
		C236.31,200.67,238.02,200.52,239.82,199.85z"/>
	<path class="st1" d="M236.97,228.08c-0.62,0.79,0.32,1.85,1.17,2.4c1.41,0.92,2.82,1.85,4.23,2.77c0.57,0.37,1.16,0.75,1.82,0.9
		c0.88,0.19,1.82-0.05,2.67,0.23c0.56,0.18,1.03,0.57,1.49,0.95c3.59,2.94,7.59,5.38,11.85,7.23c0.11-0.1,0.03-0.3,0.14-0.4
		c0.46-0.42,0.93-0.35,1.4-0.76c0.27,0.22,0.16,0.69-0.12,0.9c-0.28,0.21-0.66,0.22-1.01,0.22c-1.22,0-2.47-0.09-3.58-0.6
		c-1.54-0.7-2.64-2.11-4.13-2.9c-0.62-0.33-1.3-0.55-1.96-0.78c-2.3-0.81-4.5-1.88-6.57-3.17c-0.45-0.28-1.33-0.96-1.75-1.28
		c-1.46-1.1-3.68-1.67-5.46-2.11C236.27,230.73,236.66,229.34,236.97,228.08z"/>
	<path class="st1" d="M149.31,202.07c-3.73-2.55-7.47-5.1-11.44-7.25c-1.92-1.04-3.91-1.99-5.62-3.35c-1.71-1.36-3.16-3.2-3.54-5.35
		c-1.01,0.78-0.27,2.4,0.61,3.32c5.26,5.54,13.33,7.74,18.6,13.28c0.74,0.78,1.51,1.67,2.57,1.86c1.06,0.18,2.9-1.25,2.38-2.19
		c-0.36,0.42-0.94,0.64-1.49,0.57"/>
	<path class="st1" d="M134.24,242.43c0.69-0.42,1.47-0.66,2.27-0.71c0.63-0.04,1.27,0.04,1.88-0.13c1.07-0.3,1.77-1.29,2.69-1.9
		c0.72-0.47,1.56-0.71,2.38-0.97c3.77-1.19,7.36-2.97,10.59-5.26c0.95-0.68,1.99-1.7,1.67-2.82c-0.01,1.3-1.06,2.39-2.23,2.96
		c-1.17,0.57-2.49,0.75-3.73,1.15c-1.54,0.49-2.95,1.29-4.37,2.06c-3.97,2.15-8.07,4.07-12.26,5.74c-0.82,0.33-5.19,1.47-3.66,2.42
		C130.94,245.87,133.22,243.05,134.24,242.43z"/>
	<g>
		<path class="st1" d="M76,386.4v19.52h-2.49V386.4H76z M85.34,386.4v2.04h-9.56v-2.04H85.34z M87.52,386.4v19.52h-2.49V386.4H87.52
			z"/>
		<path class="st1" d="M99.18,386.15c1.57,0,2.8,0.18,3.71,0.54c0.91,0.36,1.56,0.98,1.95,1.85c0.4,0.88,0.59,2.12,0.59,3.72
			s-0.19,2.85-0.58,3.73c-0.39,0.89-1.02,1.5-1.9,1.85s-2.05,0.52-3.52,0.52c-0.79,0-1.55-0.02-2.28-0.06
			c-0.73-0.04-1.39-0.09-2-0.16c-0.6-0.07-1.12-0.14-1.54-0.21s-0.72-0.14-0.89-0.2l0.08-1.53c1,0,2.04,0,3.11,0s2.14,0,3.2,0
			c0.94-0.02,1.69-0.14,2.25-0.35s0.95-0.61,1.19-1.19c0.24-0.58,0.35-1.38,0.35-2.42c0-1.06-0.12-1.87-0.35-2.43
			s-0.63-0.96-1.19-1.19c-0.56-0.23-1.31-0.34-2.25-0.34c-1.55,0-2.88,0.01-4,0.03c-1.12,0.02-1.88,0.05-2.28,0.08l-0.4-2.01
			c0.72-0.08,1.39-0.13,2.01-0.17c0.62-0.04,1.3-0.06,2.04-0.07C97.22,386.15,98.12,386.15,99.18,386.15z M94.93,386.4v19.52h-2.49
			V386.4H94.93z"/>
		<path class="st1" d="M123.76,386.4v19.52h-2.4v-14.23c0-0.38,0.01-0.75,0.03-1.13c0.02-0.38,0.06-0.75,0.11-1.1h-0.14
			c-0.13,0.36-0.29,0.72-0.48,1.09s-0.37,0.71-0.54,1.03l-8.66,14.34h-2.55V386.4h2.4v14.09c0,0.4-0.01,0.79-0.04,1.17
			c-0.03,0.39-0.06,0.77-0.1,1.15h0.11c0.15-0.36,0.33-0.72,0.52-1.08c0.2-0.36,0.39-0.71,0.58-1.05l8.57-14.29H123.76z"/>
		<path class="st1" d="M135.02,386.18c1.6,0,2.88,0.15,3.82,0.44c0.94,0.29,1.63,0.81,2.05,1.54c0.42,0.74,0.64,1.77,0.64,3.11
			c0,1.4-0.26,2.46-0.78,3.2c-0.52,0.74-1.36,1.16-2.53,1.27v0.11c1.45,0.13,2.47,0.64,3.04,1.53c0.58,0.89,0.86,2.11,0.86,3.68
			c0,1.34-0.21,2.38-0.62,3.11c-0.42,0.74-1.08,1.25-1.99,1.54c-0.92,0.29-2.12,0.44-3.61,0.44c-1.11,0-2.07,0-2.87-0.01
			c-0.8-0.01-1.54-0.03-2.22-0.07c-0.68-0.04-1.39-0.08-2.12-0.14l0.4-1.98c0.42,0.02,1.2,0.04,2.36,0.06
			c1.16,0.02,2.51,0.03,4.06,0.03c1.04,0,1.85-0.09,2.45-0.27c0.59-0.18,1.02-0.51,1.27-1c0.25-0.49,0.38-1.2,0.38-2.12
			c0-1.02-0.13-1.8-0.4-2.35c-0.26-0.55-0.71-0.93-1.33-1.16c-0.62-0.23-1.47-0.35-2.55-0.37h-6.28v-1.9h6.25
			c0.94-0.02,1.69-0.12,2.25-0.3c0.56-0.18,0.96-0.51,1.2-0.99s0.37-1.16,0.37-2.02c0-0.89-0.13-1.57-0.4-2.04
			c-0.26-0.47-0.7-0.79-1.32-0.96c-0.61-0.17-1.45-0.25-2.5-0.25c-0.92,0-1.75,0-2.49,0s-1.38,0-1.94,0.01
			c-0.56,0.01-1.02,0.03-1.4,0.07l-0.4-1.98c0.66-0.08,1.29-0.13,1.88-0.16c0.59-0.03,1.25-0.05,1.95-0.06
			C133.23,386.18,134.06,386.18,135.02,386.18z M131.12,386.4v19.52h-2.43V386.4H131.12z"/>
		<path class="st1" d="M160.85,386.4v19.52h-2.4v-14.23c0-0.38,0.01-0.75,0.03-1.13c0.02-0.38,0.06-0.75,0.11-1.1h-0.14
			c-0.13,0.36-0.29,0.72-0.48,1.09s-0.37,0.71-0.54,1.03l-8.66,14.34h-2.55V386.4h2.4v14.09c0,0.4-0.01,0.79-0.04,1.17
			c-0.03,0.39-0.06,0.77-0.1,1.15h0.11c0.15-0.36,0.33-0.72,0.52-1.08c0.2-0.36,0.39-0.71,0.58-1.05l8.57-14.29H160.85z"/>
		<path class="st1" d="M182.02,403.89v2.04h-18.08v-2.04H182.02z M165.92,405.73l-0.25,4.47h-1.73v-4.47H165.92z M179.61,386.4
			v19.52h-2.49v-17.49h-4.02c-0.7,0-1.2,0.15-1.51,0.45c-0.31,0.3-0.49,0.81-0.52,1.53c-0.08,1.28-0.17,2.5-0.3,3.66
			s-0.28,2.26-0.47,3.31s-0.43,2.06-0.72,3.03c-0.29,0.97-0.64,1.91-1.05,2.81c-0.41,0.91-0.89,1.8-1.46,2.69h-2.32
			c0.96-1.57,1.71-3.22,2.23-4.97s0.92-3.54,1.17-5.38c0.25-1.84,0.43-3.68,0.52-5.53c0.04-1.15,0.41-2.05,1.1-2.69
			c0.7-0.64,1.65-0.96,2.86-0.96H179.61z M182.02,405.73v4.47h-1.73l-0.23-4.47H182.02z"/>
		<path class="st1" d="M199.33,386.4l4.98,9.42l-5.35,10.1h-2.69l5.49-10.1l-5.12-9.42H199.33z M205.7,394.84v1.92h-3.03v-1.92
			H205.7z M211.78,386.4l-5.15,9.42l5.52,10.1h-2.72l-5.35-10.1l5.01-9.42H211.78z"/>
		<path class="st1" d="M221.85,386.04c1.41,0,2.62,0.17,3.61,0.51c0.99,0.34,1.78,0.9,2.38,1.68c0.59,0.78,1.03,1.82,1.3,3.13
			c0.27,1.3,0.41,2.91,0.41,4.81c0,1.91-0.14,3.51-0.41,4.81c-0.27,1.3-0.71,2.34-1.3,3.13c-0.59,0.78-1.39,1.34-2.38,1.68
			c-0.99,0.34-2.19,0.51-3.61,0.51c-1.42,0-2.62-0.17-3.61-0.51c-0.99-0.34-1.79-0.9-2.39-1.68c-0.6-0.78-1.04-1.83-1.32-3.13
			c-0.27-1.3-0.41-2.9-0.41-4.81c0-1.9,0.14-3.51,0.41-4.81c0.27-1.3,0.71-2.34,1.32-3.13c0.6-0.78,1.4-1.34,2.39-1.68
			C219.24,386.21,220.44,386.04,221.85,386.04z M221.85,388.27c-1.28,0-2.3,0.25-3.04,0.74c-0.75,0.49-1.27,1.31-1.58,2.45
			c-0.31,1.14-0.47,2.71-0.47,4.71c0,1.98,0.16,3.55,0.47,4.7c0.31,1.15,0.84,1.97,1.58,2.46c0.75,0.49,1.76,0.74,3.04,0.74
			c1.28,0,2.3-0.25,3.04-0.74c0.75-0.49,1.27-1.31,1.58-2.46c0.31-1.15,0.47-2.72,0.47-4.7c0-2-0.16-3.57-0.47-4.71
			c-0.31-1.14-0.84-1.96-1.58-2.45C224.15,388.52,223.14,388.27,221.85,388.27z"/>
		<path class="st1" d="M240.5,386.15c1.57,0,2.8,0.18,3.71,0.54c0.91,0.36,1.56,0.98,1.95,1.85c0.4,0.88,0.59,2.12,0.59,3.72
			s-0.19,2.85-0.58,3.73c-0.39,0.89-1.02,1.5-1.9,1.85s-2.05,0.52-3.52,0.52c-0.79,0-1.55-0.02-2.28-0.06
			c-0.73-0.04-1.39-0.09-2-0.16c-0.6-0.07-1.12-0.14-1.54-0.21s-0.72-0.14-0.89-0.2l0.08-1.53c1,0,2.04,0,3.11,0s2.14,0,3.2,0
			c0.94-0.02,1.69-0.14,2.25-0.35s0.95-0.61,1.19-1.19c0.24-0.58,0.35-1.38,0.35-2.42c0-1.06-0.12-1.87-0.35-2.43
			s-0.63-0.96-1.19-1.19c-0.56-0.23-1.31-0.34-2.25-0.34c-1.55,0-2.88,0.01-4,0.03c-1.12,0.02-1.88,0.05-2.28,0.08l-0.4-2.01
			c0.72-0.08,1.39-0.13,2.01-0.17c0.62-0.04,1.3-0.06,2.04-0.07C238.55,386.15,239.44,386.15,240.5,386.15z M236.26,386.4v19.52
			h-2.49V386.4H236.26z"/>
		<path class="st1" d="M263.76,386.4v2.21h-15.08v-2.21H263.76z M257.45,386.4v19.52h-2.49V386.4H257.45z"/>
		<path class="st1" d="M281.52,386.4v19.52h-2.4v-14.23c0-0.38,0.01-0.75,0.03-1.13c0.02-0.38,0.06-0.75,0.11-1.1h-0.14
			c-0.13,0.36-0.29,0.72-0.48,1.09s-0.37,0.71-0.54,1.03l-8.66,14.34h-2.55V386.4h2.4v14.09c0,0.4-0.01,0.79-0.04,1.17
			c-0.03,0.39-0.06,0.77-0.1,1.15h0.11c0.15-0.36,0.33-0.72,0.52-1.08c0.2-0.36,0.39-0.71,0.58-1.05l8.57-14.29H281.52z"/>
		<path class="st1" d="M286.45,405.93V386.4h2.49v19.52H286.45z M288.71,405.93v-2.04h13.92v2.04H288.71z M297.74,405.93V386.4h2.49
			v19.52H297.74z M300.91,410.2l-0.25-4.47h1.98v4.47H300.91z"/>
		<path class="st1" d="M308.49,386.4v19.52H306V386.4H308.49z"/>
	</g>
</g>
</svg>
