<?xml version="1.0" encoding="utf-8"?>
<!-- Generator: Adobe Illustrator 23.1.1, SVG Export Plug-In . SVG Version: 6.00 Build 0)  -->
<svg version="1.1" id="Шар_1" xmlns="http://www.w3.org/2000/svg" xmlns:xlink="http://www.w3.org/1999/xlink" x="0px" y="0px"
	 viewBox="0 0 111 120" style="enable-background:new 0 0 111 120;" xml:space="preserve">
<style type="text/css">
	.st0{fill:#D2D2D2;}
</style>
<path class="st0" d="M105.37,65.62c-0.69,0.31-2.1-1.43-2.13,0.54c-0.07,3.53-2.41,4.62-5.2,5.69c-8.83,3.39-17.61,6.91-26.38,10.46
	c-1.13,0.46-2.09,1.35-3.12,2.04c0.97,1.06,1.86,2.23,2.95,3.14c0.51,0.42,1.84,0.05,1.14,1.39c-0.29,0.55-0.75,1.05-1.24,1.44
	c-0.08,0.07-0.72-0.43-1.02-0.75c-0.68-0.72-1.35-1.47-1.94-2.26c-1.56-2.08-3.32-3.05-5.87-1.53c-2.31,1.37-4.71,1.02-7.21,0.24
	c-4.75-1.49-9.57-2.74-14.34-4.14c-3.38-0.99-3.49-1.03-3.36-4.3c0.4-9.45,0.89-18.9,1.38-28.35c0.1-1.97,0.31-3.93,0.55-6.81
	c1.87,4.42,3.31,8.04,4.93,11.57c3.2,6.96,6.81,13.71,11.88,19.51c1.99,2.27,3.09,4.61,2.81,7.63c-0.1,1.14,0.13,2.31,0.23,3.47
	c0.01,0.13,0.25,0.38,0.31,0.36c0.23-0.08,0.46-0.22,0.63-0.4c0.1-0.1,0.09-0.31,0.11-0.48c0.11-1.64,0.22-3.29,0.33-4.94
	c1.29,1.18,2.58,2.35,3.87,3.53c0.12,0.11,0.21,0.31,0.35,0.34c0.55,0.13,1.12,0.22,1.68,0.32c-0.15-0.4-0.22-0.86-0.46-1.18
	c-1.19-1.6-2.36-3.21-3.66-4.72c-1.26-1.47-0.3-2.04,0.9-2.43c2.52-0.83,5.08-1.54,7.62-2.32c8.89-2.71,17.78-5.42,26.65-8.16
	c1.26-0.39,2.47-0.93,3.67-1.47c0.21-0.1,0.28-0.52,0.42-0.79c-0.3-0.1-0.64-0.35-0.89-0.28c-3.84,1.05-7.67,2.12-11.49,3.23
	c-8.61,2.5-17.2,5.02-25.81,7.52c-3.56,1.04-3.56,1.01-5.72-1.74c-7.45-9.48-13.13-19.94-17.36-31.2c-0.41-1.09-0.76-2.2-1.2-3.27
	c-0.11-0.27-0.55-0.68-0.64-0.64c-0.4,0.19-0.98,0.5-1.04,0.83c-0.45,2.95-0.98,5.9-1.14,8.87c-0.25,4.81-0.07,9.64-0.37,14.44
	c-0.36,5.62-1.03,11.22-1.61,16.82c-0.08,0.82-0.34,1.62-0.57,2.42c-0.42,1.49-0.98,2.16-2.8,1.35c-3.94-1.74-7.97-3.32-12.06-4.63
	c-2.1-0.67-3.11-1.57-2.87-3.82c0.11-0.97-0.04-1.99-0.21-2.97c-0.28-1.61-0.99-1.92-2.34-0.96c-2.15,1.54-4.22,3.19-6.33,4.79
	c-0.44,0.33-0.86,0.68-1.28,1.03c-0.18-0.78-0.46-1.57-0.47-2.35c-0.01-0.31,0.54-0.74,0.92-0.93c7.32-3.5,12.15-9.71,16.67-16.02
	c4.63-6.47,8.59-13.41,12.79-20.18c2.02-3.24,2-3.42,5.46-2.59c10.06,2.42,20.12,1.67,30.2,0.25c5.42-0.76,10.83-1.65,16.25-2.37
	c3.85-0.51,4-0.39,4.28,3.32c0.4,5.4,2.25,10.37,4.51,15.18c2.32,4.95,5.01,9.73,7.5,14.61c0.44,0.86,0.71,1.8,1.06,2.7
	L105.37,65.62z"/>
</svg>
